<svg width="749" height="545" viewBox="0 0 749 545" fill="none" xmlns="http://www.w3.org/2000/svg">
<path d="M667.58 260.945L61.41 310.755C59.16 337.575 56.91 364.405 54.65 391.225C52.5 416.895 50.81 444.655 64.32 466.435C84.86 499.545 129.74 503.925 168.21 504.805C265.09 507.015 361.97 509.225 458.85 511.435C520.98 512.865 653.75 507.515 676.96 470.695C696.28 440.035 696.46 400.395 696.48 364.095C696.49 327.785 687.83 290.835 667.58 260.945Z" fill="#B1C69B"/>
<path d="M659.42 203.685L75.37 198.935C73.12 225.765 56.91 364.405 54.65 391.225C52.5 416.895 50.81 444.655 64.32 466.435C84.86 499.545 129.74 503.925 168.21 504.805C265.09 507.015 361.97 509.225 458.85 511.435C520.98 512.865 653.75 507.515 676.96 470.695C696.28 440.035 696.46 400.395 696.48 364.095C696.49 327.785 679.67 233.575 659.42 203.685Z" fill="#D8E0C6"/>
<path d="M676.96 470.695C696.28 440.035 696.46 400.395 696.48 364.095C696.49 345.145 691.91 310.445 684.66 277.335C609.86 287.295 533.7 287.075 458.97 276.615C444.63 274.615 430.33 272.235 415.91 270.945C397.57 269.305 379.11 269.455 360.7 269.595C282.73 270.205 146.35 265.555 64.98 295.345C60.38 336.625 55.78 377.845 54.65 391.225C52.5 416.895 50.81 444.655 64.32 466.435C84.86 499.545 129.74 503.925 168.21 504.805C265.09 507.015 361.97 509.225 458.85 511.435C520.98 512.865 653.75 507.515 676.96 470.695Z" fill="#C8D6B4"/>
<path d="M696.28 354.645C638.91 352.185 582.16 335.525 524.52 335.275C465.64 335.015 408.2 351.825 349.98 360.555C274.43 371.875 197.22 367.645 122.13 353.565C105.76 350.485 79.55 346.885 58.6 344.185C57.29 359.865 55.97 375.545 54.65 391.225C52.5 416.895 50.81 444.655 64.32 466.435C84.86 499.545 129.74 503.925 168.21 504.805C265.09 507.015 361.97 509.225 458.85 511.435C520.98 512.865 653.75 507.515 676.96 470.695C696.28 440.035 696.46 400.395 696.48 364.095C696.48 360.945 696.41 357.795 696.28 354.645Z" fill="#BFD1AA"/>
<path d="M597.75 407.605C559.06 412.395 522.42 428.325 483.75 433.325C473.65 434.625 463.48 435.175 453.32 435.725C430.84 436.945 426.17 437.195 403.69 438.405V510.185C422.08 510.605 440.46 511.025 458.85 511.435C520.98 512.865 653.75 507.515 676.96 470.695C687.63 453.755 692.47 434.065 694.66 413.715C662.53 407.475 630.07 403.595 597.75 407.605Z" fill="#B1C69B"/>
<path d="M108.62 375.575C92.26 376.065 75.61 377.675 60.53 384.075C58.57 384.905 56.75 385.685 55.06 386.415C54.92 388.025 54.79 389.625 54.65 391.225C52.5 416.895 50.81 444.655 64.32 466.435C84.86 499.545 129.74 503.925 168.21 504.805C252.51 506.725 336.81 508.655 421.11 510.575L425.1 399.175C319.82 412.035 214.64 372.375 108.62 375.575Z" fill="#B1C69B"/>
<path d="M678.87 467.515C678.34 467.535 678.05 467.545 678.05 467.545C616.85 464.095 557.17 448.185 497.09 436.045C437.01 423.905 374.81 415.515 314.64 427.175C274.97 434.865 237.54 451.025 199.22 463.835C160.89 476.645 120.21 486.235 80.26 480.135L75.37 479.725C98.47 500.805 135.64 504.055 168.21 504.805C265.09 507.015 361.97 509.225 458.85 511.435C520.98 512.865 653.75 507.515 676.96 470.695C677.62 469.645 678.25 468.585 678.87 467.515Z" fill="#A6BA90"/>
<path d="M316.28 91.855C313.01 68.855 290.83 42.865 259.55 40.685C228.28 38.495 190.1 55.585 189.38 88.675C188.66 124.005 210.01 141.125 230.06 143.125C230.3 143.355 230.54 143.585 230.79 143.825C233.34 160.915 230.79 250.725 230.79 250.725C257.33 266.365 293.33 250.725 293.33 250.725C293.33 250.725 288.6 173.825 286.42 145.285C286.51 145.255 286.86 145.005 287.38 144.585C304.6 141.545 319.52 114.615 316.28 91.855Z" fill="#EBEFDA"/>
<path d="M455.24 87.685C451.96 64.685 429.78 38.685 398.51 36.505C367.24 34.325 329.06 51.415 328.33 84.505C327.62 119.835 348.97 136.945 369.01 138.945C369.26 139.185 369.5 139.415 369.75 139.655C372.29 156.735 369.75 246.555 369.75 246.555C396.29 262.185 432.29 246.555 432.29 246.555C432.29 246.555 427.56 169.645 425.38 141.105C425.47 141.075 425.82 140.825 426.34 140.405C443.56 137.375 458.48 110.435 455.24 87.685Z" fill="#EBEFDA"/>
<path d="M159.35 154.605C158.99 107.825 142.19 51.255 116.81 50.535C91.43 49.825 66.05 90.925 56.04 150.265C46.03 209.615 78.91 224.175 96.07 223.905C97.15 248.145 99.06 287.065 99.06 287.065C107.76 292.665 114.31 284.675 114.31 284.675L111.05 222.785C146.01 217.765 159.67 195.925 159.35 154.605Z" fill="#EBEFDA"/>
<path d="M683.43 138.825C683.07 92.045 666.27 35.465 640.89 34.755C615.51 34.035 590.13 75.145 580.12 134.485C570.11 193.825 602.98 208.395 620.14 208.125C621.23 232.365 623.13 271.285 623.13 271.285C631.83 276.885 638.39 268.895 638.39 268.895L635.13 207.005C670.09 201.985 683.74 180.145 683.43 138.825Z" fill="#EBEFDA"/>
<path d="M479.57 159.095C479.57 159.095 479.57 159.155 479.58 159.275C479.58 159.275 479.58 159.275 479.57 159.275C479.57 159.155 479.57 159.095 479.57 159.095ZM530.37 122.395C530.79 122.315 531.21 122.195 531.64 122.035C541.04 118.415 524.58 89.475 520.34 82.065C522.32 81.015 522.66 77.005 519.98 70.415C512.93 53.055 496.38 31.265 496.38 31.265C496.38 31.265 480.65 40.125 465.73 63.365C455.21 81.595 456.74 85.105 462.2 81.275C452.45 101.425 442.32 124.385 448.65 128.725C450.09 129.705 452.07 129.015 454.27 127.365C447.38 146.625 439.43 173.385 447.74 178.625C456.06 183.865 466.37 152.995 466.37 152.995C466.37 152.995 460.4 183.865 470.53 184.415C472.29 184.505 473.71 183.805 474.86 182.575L473.15 238.325C473.15 238.325 505.58 243.985 522.31 240.185C519.92 210.355 515.78 172.025 515.78 172.025C515.78 172.025 515.74 171.835 515.66 171.495C516.25 163.665 514.1 154.035 514.1 154.035C514.1 154.035 523.32 180.075 536.52 176.635C549.72 173.195 530.38 122.395 530.37 122.395Z" fill="#EBEFDA"/>
<path d="M344.11 159.955C336.39 162.305 334.52 163.105 334.72 148.135C340.45 150.355 347.43 151.905 355.31 151.455C355.26 151.525 351.78 157.605 344.11 159.955ZM328.44 173.675C328.27 179.895 323.12 175.865 316.9 170.085C310.69 164.295 302.4 157.395 302.36 147.425C308.37 145.585 313.91 142.225 317.61 137.555C317.61 137.555 320.9 140.865 326.71 144.265C326.72 144.325 328.6 167.465 328.44 173.675ZM369.43 79.675C387.76 63.275 370.24 52.015 357.29 58.775C359.46 36.905 319.27 13.755 303.51 53.625C268.46 44.625 256.24 69.705 253.02 80.315C249.81 90.925 254.95 107.975 272.64 113.755C261.06 129.195 268.78 141.095 280.04 146.565C284.42 148.685 289.81 149.405 295.26 148.855C298.05 172.395 315.19 176.895 320.12 185.895C325.05 194.905 324.55 270.145 324.55 270.145C324.55 270.145 332.34 273.155 340.06 270.145C339.63 241.425 335.77 178.825 337.92 173.255C340.06 167.675 361.51 165.825 361.61 150.675C365.74 149.885 370.08 148.515 374.58 146.395C407.38 130.965 402.87 79.355 369.43 79.675Z" fill="#D8E0C6"/>
<path d="M612.72 136.635C612.72 136.635 612.71 136.625 612.69 136.605C612.32 108.625 589.17 56.705 546.67 50.555C512.03 45.535 489.27 71.685 484.3 98.875C470.65 164.875 491.71 240.915 538.27 246.135C539.7 247.315 544.56 250.435 551.62 245.735C551.63 245.735 551.64 245.735 551.65 245.735C607.89 236.515 617.41 179.425 612.72 136.635Z" fill="#D8E0C6"/>
<path d="M161.22 153.545L158.03 246.505C158.03 246.505 168.18 252.365 196.37 244.375C193.36 191.525 191.28 141.475 191.28 141.475C191.28 141.475 175.3 135.065 161.22 153.545Z" fill="#D8E0C6"/>
<path d="M142.49 139.095C128.68 154.515 96 209.605 104.92 220.945C113.83 232.275 140.13 199.395 140.13 199.395C140.13 199.395 129.25 235.905 142.04 239.445C154.83 242.985 166.86 203.755 166.86 203.755C166.86 203.755 163.06 244.305 178.25 243.795C193.43 243.275 190.98 204.235 190.98 204.235C190.98 204.235 198.14 236.545 209.54 235.905C220.94 235.255 212.78 201.885 212.78 201.885C212.78 201.885 229.13 237.605 244.24 229.165C259.36 220.715 215.13 143.365 215.13 143.365C215.13 143.365 199.05 129.715 182.21 128.105C165.38 126.495 149.52 120.345 142.49 139.095Z" fill="#D8E0C6"/>
<path d="M146.51 95.435C132.69 110.855 97.39 155.145 106.31 166.485C115.23 177.815 141.52 144.935 141.52 144.935C141.52 144.935 130.65 181.455 143.44 184.995C156.23 188.535 168.26 149.305 168.26 149.305C168.26 149.305 164.46 189.845 179.64 189.335C194.83 188.825 192.37 149.785 192.37 149.785C192.37 149.785 199.54 182.085 210.94 181.445C222.34 180.805 214.17 147.425 214.17 147.425C214.17 147.425 230.53 183.145 245.64 174.705C260.75 166.255 216.52 88.905 216.52 88.905C216.52 88.905 200.44 75.255 183.61 73.645C166.77 72.035 153.54 76.695 146.51 95.435Z" fill="#D8E0C6"/>
<path d="M175.27 45.435C175.27 45.435 127.9 79.665 118.22 100.705C108.53 121.745 130.61 111.125 161.6 82.195C150.45 115.595 168.76 144.835 182.22 83.935C188.78 123.805 220.98 129.875 199.47 83.395C225.76 110.935 265.37 121.945 233.32 81.555C206.71 53.405 175.27 45.435 175.27 45.435Z" fill="#D8E0C6"/>
<path d="M304.5 188.965L282.93 167.905C282.21 215.005 283.18 269.145 283.18 269.145C283.18 269.145 295.57 273.855 306 271.235C304.9 259.825 304.55 224.145 304.5 188.965Z" fill="#D19C89"/>
<path d="M225.74 168.115C225.74 168.115 225.75 168.105 225.77 168.085C226.12 140.445 248.53 89.145 289.65 83.065C323.17 78.105 345.19 103.945 350 130.815C363.21 196.025 342.83 271.145 297.78 276.305C294.51 276.445 290.78 277.415 284.87 275.915C284.86 275.915 284.84 275.915 284.83 275.905C230.42 266.805 221.2 210.395 225.74 168.115Z" fill="#8FA380"/>
<path d="M536.72 256.775C536.72 256.775 550.59 241.275 547.55 239.515C544.51 237.765 536.28 245.655 536.28 245.655C536 238.635 535.74 231.745 535.49 225.195C535.49 225.195 548.85 203.475 545.58 202.045C542.31 200.625 534.98 211.475 534.98 211.475C534.4 195.735 533.96 183.385 533.78 178.245C533.78 178.245 547.05 162.895 544.7 160.195C542.35 157.495 535.89 162.815 535.89 162.815C535.89 162.815 539.04 135.975 535.94 135.375C532.84 134.765 530.17 152.315 530.17 152.315C530.17 152.315 523.67 136.235 520.07 137.735C516.47 139.245 524.92 159.155 524.92 159.155C524.92 159.155 516.27 151.165 514.02 154.675C511.77 158.185 524.38 175.305 524.38 175.305C524.08 179.945 524 187.495 524.09 196.865C524.09 196.865 517.85 188.955 514.83 191.135C511.81 193.305 524.24 207.795 524.24 207.795C524.35 213.645 524.49 219.925 524.67 226.455C524.67 226.455 510.97 216.475 509.51 220.835C508.04 225.195 525.04 238.705 525.04 238.705C526.5 285.475 529.09 339.005 529.09 339.005C529.09 339.005 535.51 342.065 540.67 338.115C539.67 326.945 538.11 291.635 536.72 256.775Z" fill="#D19C89"/>
<path d="M528.69 266.245C503.16 265.505 498.32 244.695 497.67 186.905C497.02 129.105 512.69 76.865 528.69 76.535C544.69 76.215 550.57 124.865 558.08 180.045C565.59 235.225 562.65 267.225 528.69 266.245Z" fill="#77937C"/>
<path d="M386.08 317.325C371.23 317.315 345.45 317.025 336.77 306.025C328.08 295.015 324.89 234.785 333.58 187.585C342.27 140.385 368.04 124.465 434.64 127.065C501.24 129.675 524.12 139.225 530.2 225.235C536.28 311.235 505.92 319.615 466.23 320.785C426.53 321.945 386.08 317.325 386.08 317.325Z" fill="#4B775E"/>
<path d="M466.41 303.705C477.62 288.945 501.82 265.195 495.16 260.555C488.5 255.925 475.76 275.325 466.44 286.915C466.44 286.915 466.43 286.945 466.4 287.005C466.16 255.875 464.45 230.965 459.11 224.365C448.56 211.335 413.5 217.845 404.38 224.365C396.47 230.015 392.15 250.715 388.31 290.685C376.73 285.195 366.01 270.405 361.96 276.195C357.91 281.985 374.41 299.075 387.11 303.995C387.11 303.995 386.75 308.195 386.57 310.365C382.23 363.355 390.05 443.275 390.05 443.275C408.73 455.875 439.13 437.635 466.06 443.275C463.06 418.785 466.1 356.055 466.41 303.705Z" fill="#D19C89"/>
<path d="M474.44 262.025C473.76 262.025 473.09 261.705 472.67 261.115C471.97 260.135 472.2 258.775 473.17 258.085L487.36 247.945C488.34 247.245 489.69 247.475 490.39 248.455C491.09 249.425 490.86 250.785 489.89 251.475L475.7 261.615C475.32 261.885 474.87 262.025 474.44 262.025Z" fill="#77937C"/>
<path d="M499.63 244.065C498.86 244.065 498.11 243.655 497.72 242.935C497.15 241.875 497.54 240.555 498.59 239.985L508.73 234.485C509.78 233.915 511.1 234.305 511.67 235.355C512.24 236.415 511.85 237.725 510.8 238.305L500.66 243.805C500.33 243.985 499.98 244.065 499.63 244.065Z" fill="#77937C"/>
<path d="M503.39 256.805C502.72 256.805 502.05 256.495 501.63 255.895C500.93 254.925 501.15 253.565 502.13 252.865L512.27 245.625C513.24 244.935 514.6 245.155 515.3 246.135C515.99 247.115 515.77 248.465 514.79 249.165L504.65 256.405C504.27 256.675 503.83 256.805 503.39 256.805Z" fill="#77937C"/>
<path d="M490.65 290.105C490.1 290.105 489.54 289.895 489.12 289.475C488.27 288.625 488.27 287.245 489.12 286.405L510.25 265.265C511.1 264.415 512.48 264.415 513.33 265.265C514.17 266.115 514.17 267.485 513.33 268.335L492.19 289.475C491.76 289.895 491.21 290.105 490.65 290.105Z" fill="#77937C"/>
<path d="M472.41 312.985C471.55 312.985 470.73 312.465 470.39 311.615C469.95 310.495 470.49 309.235 471.61 308.795L486.96 302.715C488.07 302.265 489.33 302.815 489.78 303.935C490.22 305.045 489.67 306.305 488.56 306.755L473.21 312.835C472.95 312.935 472.68 312.985 472.41 312.985Z" fill="#77937C"/>
<path d="M498.47 300.535C497.7 300.535 496.96 300.125 496.56 299.405C495.99 298.345 496.38 297.025 497.43 296.455L510.17 289.505C511.22 288.925 512.54 289.315 513.12 290.375C513.69 291.425 513.3 292.745 512.25 293.315L499.51 300.265C499.18 300.445 498.82 300.535 498.47 300.535Z" fill="#77937C"/>
<path d="M477.04 240.305C476.28 240.305 475.53 239.895 475.14 239.175C474.56 238.115 474.95 236.795 476 236.225L497.72 224.355C498.77 223.775 500.09 224.165 500.66 225.215C501.24 226.265 500.85 227.585 499.8 228.165L478.08 240.035C477.75 240.215 477.39 240.305 477.04 240.305Z" fill="#77937C"/>
<path d="M509.48 221.765C508.71 221.765 507.97 221.365 507.58 220.655C506.99 219.605 507.37 218.285 508.42 217.695L516.24 213.355C517.29 212.775 518.61 213.155 519.19 214.195C519.77 215.245 519.39 216.575 518.35 217.155L510.53 221.495C510.19 221.685 509.83 221.765 509.48 221.765Z" fill="#77937C"/>
<path d="M470.96 222.635C470.32 222.635 469.69 222.355 469.26 221.815C468.51 220.875 468.67 219.505 469.61 218.765L484.96 206.605C485.9 205.855 487.27 206.015 488.01 206.955C488.76 207.895 488.6 209.265 487.66 210.005L472.31 222.165C471.91 222.485 471.44 222.635 470.96 222.635Z" fill="#77937C"/>
<path d="M495.29 200.915C494.54 200.915 493.82 200.535 493.41 199.855C492.81 198.815 493.15 197.485 494.18 196.875L505.48 190.215C506.51 189.605 507.84 189.955 508.45 190.985C509.06 192.015 508.71 193.345 507.68 193.955L496.39 200.615C496.04 200.825 495.66 200.915 495.29 200.915Z" fill="#77937C"/>
<path d="M476.46 198.605C475.82 198.605 475.18 198.315 474.75 197.765C474.01 196.815 474.18 195.455 475.13 194.715L490.77 182.555C491.71 181.825 493.08 181.995 493.81 182.935C494.55 183.885 494.38 185.245 493.43 185.985L477.8 198.145C477.4 198.455 476.93 198.605 476.46 198.605Z" fill="#77937C"/>
<path d="M453 207.865C452.65 207.865 452.28 207.785 451.94 207.595C450.9 207.005 450.53 205.685 451.11 204.635L457.77 192.765C458.36 191.715 459.68 191.345 460.73 191.935C461.78 192.515 462.15 193.845 461.56 194.885L454.9 206.765C454.5 207.475 453.76 207.865 453 207.865Z" fill="#77937C"/>
<path d="M467.77 173.415C467.31 173.415 466.84 173.265 466.45 172.955C465.5 172.225 465.32 170.865 466.06 169.915L475.9 157.175C476.64 156.225 478 156.045 478.95 156.775C479.9 157.515 480.07 158.875 479.34 159.825L469.49 172.565C469.07 173.125 468.42 173.415 467.77 173.415Z" fill="#77937C"/>
<path d="M493.26 167.335C492.78 167.335 492.3 167.175 491.9 166.845C490.96 166.095 490.81 164.735 491.57 163.795L499.96 153.375C500.72 152.435 502.08 152.285 503.02 153.045C503.95 153.795 504.1 155.165 503.35 156.095L494.95 166.525C494.52 167.055 493.89 167.335 493.26 167.335Z" fill="#77937C"/>
<path d="M437.95 213.375C437.73 213.375 437.5 213.335 437.27 213.265C436.13 212.895 435.51 211.665 435.89 210.525L441.1 194.595C441.47 193.455 442.7 192.835 443.84 193.205C444.98 193.585 445.6 194.805 445.23 195.945L440.01 211.875C439.71 212.795 438.86 213.375 437.95 213.375Z" fill="#77937C"/>
<path d="M448.09 182.965C447.89 182.965 447.69 182.945 447.49 182.885C446.34 182.555 445.67 181.355 446 180.205L450.34 164.855C450.67 163.705 451.86 163.035 453.02 163.355C454.17 163.685 454.84 164.885 454.52 166.035L450.17 181.385C449.9 182.345 449.03 182.965 448.09 182.965Z" fill="#77937C"/>
<path d="M456.48 154.295C456.11 154.295 455.73 154.205 455.39 154.005C454.35 153.395 454 152.065 454.61 151.035L461.56 139.155C462.16 138.125 463.49 137.775 464.53 138.385C465.56 138.985 465.91 140.315 465.31 141.355L458.36 153.225C457.95 153.915 457.23 154.295 456.48 154.295Z" fill="#77937C"/>
<path d="M428.98 200.345C428.86 200.345 428.73 200.335 428.61 200.315C427.43 200.115 426.63 198.995 426.83 197.805L430.02 178.985C430.22 177.805 431.35 177.005 432.52 177.205C433.7 177.405 434.5 178.525 434.3 179.705L431.11 198.535C430.94 199.595 430.02 200.345 428.98 200.345Z" fill="#77937C"/>
<path d="M435.63 159.805C435.45 159.805 435.26 159.775 435.07 159.725C433.92 159.415 433.23 158.235 433.53 157.075L438.46 138.545C438.77 137.385 439.96 136.685 441.11 136.995C442.27 137.305 442.96 138.495 442.66 139.655L437.73 158.185C437.47 159.155 436.59 159.805 435.63 159.805Z" fill="#77937C"/>
<path d="M417.1 213.665C415.97 213.665 415.02 212.795 414.94 211.655L413.49 192.255C413.4 191.055 414.3 190.015 415.49 189.925C416.68 189.825 417.73 190.735 417.82 191.925L419.27 211.325C419.36 212.525 418.46 213.565 417.26 213.655C417.21 213.655 417.15 213.665 417.1 213.665Z" fill="#77937C"/>
<path d="M413.63 174.855C412.45 174.855 411.48 173.915 411.46 172.735L410.88 145.805C410.85 144.605 411.8 143.615 413 143.585C413.02 143.585 413.03 143.585 413.05 143.585C414.23 143.585 415.19 144.525 415.22 145.715L415.8 172.645C415.82 173.835 414.87 174.835 413.67 174.855C413.66 174.855 413.64 174.855 413.63 174.855Z" fill="#77937C"/>
<path d="M404.36 189.625C403.34 189.625 402.43 188.905 402.23 187.865L399.33 172.805C399.11 171.625 399.88 170.495 401.05 170.265C402.23 170.045 403.37 170.805 403.6 171.985L406.49 187.045C406.72 188.225 405.95 189.365 404.77 189.585C404.63 189.615 404.49 189.625 404.36 189.625Z" fill="#77937C"/>
<path d="M397.41 158.065C396.35 158.065 395.42 157.285 395.26 156.215L393.23 142.605C393.06 141.415 393.88 140.315 395.06 140.135C396.25 139.955 397.35 140.775 397.53 141.965L399.56 155.575C399.73 156.755 398.92 157.865 397.73 158.045C397.62 158.055 397.51 158.065 397.41 158.065Z" fill="#77937C"/>
<path d="M400.59 217.425C399.64 217.425 398.77 216.795 398.5 215.835L391.84 191.805C391.52 190.645 392.2 189.445 393.35 189.125C394.51 188.805 395.71 189.485 396.03 190.635L402.69 214.675C403.01 215.835 402.33 217.025 401.18 217.345C400.98 217.405 400.79 217.425 400.59 217.425Z" fill="#77937C"/>
<path d="M385.25 170.225C384.33 170.225 383.47 169.635 383.18 168.715L377.39 150.465C377.02 149.325 377.66 148.105 378.8 147.745C379.94 147.375 381.16 148.005 381.53 149.155L387.32 167.395C387.68 168.535 387.05 169.765 385.91 170.125C385.69 170.195 385.47 170.225 385.25 170.225Z" fill="#77937C"/>
<path d="M383.22 205.555C382.35 205.555 381.53 205.025 381.2 204.165L369.04 172.895C368.6 171.775 369.15 170.525 370.27 170.085C371.39 169.655 372.65 170.205 373.08 171.325L385.24 202.595C385.68 203.715 385.13 204.975 384.01 205.405C383.75 205.505 383.48 205.555 383.22 205.555Z" fill="#77937C"/>
<path d="M375.98 218.295C375.48 218.295 374.98 218.125 374.57 217.775L356.33 202.135C355.42 201.355 355.31 199.985 356.09 199.075C356.87 198.165 358.24 198.055 359.15 198.835L377.4 214.475C378.31 215.255 378.41 216.625 377.63 217.535C377.2 218.035 376.59 218.295 375.98 218.295Z" fill="#77937C"/>
<path d="M359.48 184.705C358.88 184.705 358.28 184.455 357.85 183.975L345.98 170.655C345.18 169.765 345.26 168.385 346.16 167.595C347.06 166.795 348.43 166.875 349.22 167.765L361.1 181.085C361.9 181.985 361.82 183.355 360.92 184.155C360.51 184.525 359.99 184.705 359.48 184.705Z" fill="#77937C"/>
<path d="M383.8 238.275C383.5 238.275 383.2 238.215 382.91 238.085L368.14 231.425C367.05 230.935 366.56 229.645 367.05 228.555C367.55 227.455 368.83 226.965 369.92 227.465L384.69 234.125C385.79 234.615 386.27 235.905 385.78 236.995C385.42 237.795 384.63 238.275 383.8 238.275Z" fill="#77937C"/>
<path d="M352.52 227.855C352.21 227.855 351.88 227.785 351.58 227.635L340.28 222.125C339.2 221.605 338.76 220.305 339.28 219.225C339.81 218.145 341.11 217.705 342.18 218.225L353.48 223.725C354.56 224.255 355 225.555 354.48 226.625C354.1 227.405 353.33 227.855 352.52 227.855Z" fill="#77937C"/>
<path d="M381.19 258.835C380.95 258.835 380.7 258.795 380.46 258.705L369.17 254.655C368.04 254.245 367.45 253.005 367.86 251.875C368.26 250.745 369.51 250.165 370.64 250.565L381.93 254.615C383.06 255.025 383.64 256.265 383.24 257.395C382.92 258.285 382.09 258.835 381.19 258.835Z" fill="#77937C"/>
<path d="M359.76 247.835C359.5 247.835 359.22 247.785 358.96 247.675L341.59 240.725C340.47 240.285 339.93 239.015 340.38 237.905C340.82 236.795 342.08 236.245 343.2 236.695L360.57 243.645C361.69 244.085 362.23 245.355 361.78 246.465C361.44 247.315 360.63 247.835 359.76 247.835Z" fill="#77937C"/>
<path d="M369.9 269.265C369.74 269.265 369.57 269.245 369.4 269.205L345.07 263.405C343.91 263.135 343.19 261.955 343.46 260.795C343.74 259.625 344.92 258.905 346.08 259.185L370.4 264.975C371.57 265.255 372.29 266.425 372.01 267.595C371.78 268.585 370.89 269.265 369.9 269.265Z" fill="#77937C"/>
<path d="M347.61 295.895C346.9 295.895 346.2 295.555 345.79 294.915C345.13 293.915 345.41 292.565 346.42 291.915L353.94 286.985C354.95 286.335 356.29 286.615 356.95 287.615C357.61 288.625 357.32 289.965 356.32 290.625L348.79 295.545C348.43 295.785 348.01 295.895 347.61 295.895Z" fill="#77937C"/>
<path d="M359.48 307.485C358.74 307.485 358.01 307.105 357.61 306.415C357 305.385 357.34 304.055 358.37 303.445L364.74 299.675C365.77 299.065 367.11 299.405 367.72 300.445C368.33 301.475 367.99 302.805 366.95 303.415L360.58 307.185C360.23 307.385 359.85 307.485 359.48 307.485Z" fill="#77937C"/>
<path d="M641.02 458.065C640.88 457.945 640.68 457.935 640.52 458.025C637.89 459.595 635.44 461.435 633.31 463.235C634.3 461.625 635.15 459.865 635.67 458.045C635.72 457.875 635.66 457.685 635.52 457.575C635.37 457.465 635.18 457.455 635.02 457.545C632.75 458.905 630.87 461.025 629.38 463.195C630.74 456.345 628.96 451.805 628.85 451.555C628.67 451.105 628.16 450.885 627.71 451.075C627.26 451.255 627.05 451.765 627.23 452.215C627.26 452.305 629.95 459.255 625.76 468.795C625.08 466.025 623.29 461.655 618.63 459.035C618.49 458.965 618.32 458.965 618.19 459.045C618.05 459.125 617.97 459.265 617.97 459.425C618.05 466.615 625.17 471.495 625.49 471.725H625.5C625.5 471.725 625.5 471.725 625.51 471.725C625.53 471.745 625.56 471.755 625.59 471.765C625.6 471.765 625.61 471.775 625.61 471.775C625.62 471.775 625.62 471.775 625.62 471.775C625.66 471.785 625.7 471.795 625.74 471.795C625.76 471.795 625.77 471.795 625.79 471.795C625.91 471.785 637.44 470.375 641.17 458.535C641.22 458.365 641.16 458.175 641.02 458.065Z" fill="#4B775E"/>
<path d="M627.79 437.865C626.73 437.555 626.67 434.735 623.87 434.895C621.06 435.055 621.22 437.585 619.82 438.825C618.42 440.065 615.46 438.705 614.06 441.025C612.65 443.345 613.65 445.475 615.98 446.515C618.3 447.555 619.1 448.475 618.54 451.595C617.98 454.725 624.11 456.925 626.39 453.445C628.67 449.955 629.96 453.205 633.36 451.995C636.77 450.795 637.53 445.595 634.96 443.345C632.4 441.105 634.84 439.105 632.64 437.705C630.44 436.295 629.32 438.305 627.79 437.865Z" fill="#36697B"/>
<path d="M626.15 442.265C624.84 440.665 622.11 442.865 623.39 444.705C624.67 446.555 627.59 444.025 626.15 442.265Z" fill="#5389A5"/>
<path d="M580.71 451.375C580.78 451.015 580.54 450.675 580.19 450.605C579.83 450.535 579.49 450.765 579.42 451.125C578.64 455.065 574.36 456.735 571.99 457.355C573.71 454.715 574.85 451.235 574.33 446.755C574.28 446.395 573.95 446.135 573.59 446.175C573.23 446.225 572.97 446.545 573.02 446.905C573.32 449.525 573.03 451.755 572.38 453.655C571.7 452.925 570.56 452.335 569.7 452.335C569.22 452.335 568.94 452.525 568.79 452.685C568.52 452.965 568.47 453.355 568.64 453.765C569 454.595 570.35 455.585 571.39 455.875C571 456.575 570.56 457.225 570.1 457.815C570 457.885 569.93 457.975 569.88 458.085C567.7 460.715 565 462.185 563.61 462.815C563.62 461.345 563.65 459.905 563.71 458.505C564.8 458.475 566.16 456.945 566.62 455.895C567 455.035 566.8 454.545 566.56 454.295C566.29 453.995 565.95 453.845 565.57 453.845C564.92 453.845 564.33 454.295 563.91 454.725C564.13 451.485 564.46 448.545 564.79 446.045C565.86 445.975 567.71 444.965 568.19 443.965C568.41 443.515 568.37 443.075 568.09 442.725C567.95 442.555 567.7 442.355 567.25 442.355C566.67 442.355 565.88 442.715 565.21 443.215C565.79 439.565 566.31 437.375 566.32 437.305C566.41 436.955 566.19 436.595 565.84 436.515C565.48 436.425 565.13 436.645 565.04 436.995C565.02 437.115 563.43 443.825 562.68 453.485C561.97 452.785 561.4 451.915 560.93 450.975C560.92 450.965 560.92 450.965 560.92 450.955C560.67 450.465 560.45 449.945 560.26 449.425C560.9 449.045 561.46 448.055 561.72 447.425C562 446.745 562.38 445.515 561.74 444.885C561.56 444.695 561.32 444.605 561.07 444.605C560.4 444.605 559.86 445.245 559.59 445.625C559.5 445.745 559.42 445.885 559.34 446.025C558.9 443.715 558.85 441.885 558.85 441.845C558.85 441.485 558.55 441.195 558.2 441.195C558.19 441.195 558.19 441.195 558.18 441.195C557.82 441.205 557.53 441.495 557.54 441.865C557.54 442.145 557.65 446.735 559.35 450.715C554.92 450.895 551.73 443.955 551.69 443.875C551.54 443.545 551.15 443.395 550.82 443.545C550.49 443.695 550.34 444.085 550.49 444.415C550.57 444.585 551.43 446.475 552.92 448.325C552.3 448.395 551.6 448.625 551.2 449.155C550.92 449.525 550.84 449.985 550.98 450.465C551.16 451.095 551.66 451.455 552.35 451.455C553.2 451.455 554.26 450.905 554.79 450.265C556.03 451.295 557.5 452.045 559.16 452.045C559.42 452.045 559.69 452.025 559.97 451.985C560.08 452.185 560.19 452.385 560.31 452.575C559.34 452.935 558.19 453.885 557.82 454.745C557.58 455.285 557.65 455.785 557.99 456.155C558.26 456.445 558.61 456.595 558.99 456.595C560.06 456.595 561.19 455.385 561.69 454.355C561.96 454.635 562.25 454.895 562.56 455.125C562.39 457.815 562.29 460.695 562.3 463.715C562.29 463.775 562.29 463.845 562.3 463.905C562.32 466.565 562.42 469.315 562.65 472.115C559.85 470.955 557.74 469.055 556.17 467.015C556.93 466.225 557.45 464.385 557.53 463.275C557.68 461.455 556.93 461.065 556.48 460.995C555.58 460.845 554.83 461.665 554.44 463.165C554.37 463.445 554.31 463.755 554.27 464.085C552.49 460.775 551.93 457.835 551.92 457.775C551.85 457.415 551.51 457.175 551.15 457.245C550.8 457.305 550.56 457.645 550.62 458.005C550.66 458.205 551.03 460.175 552.11 462.695C552.01 462.695 551.91 462.685 551.81 462.685C550.73 462.685 549.29 463.035 548.66 463.805C548.39 464.135 548.29 464.515 548.37 464.905C548.43 465.195 548.69 465.885 549.89 465.885C550.92 465.885 552.31 465.375 553.1 464.765C554.07 466.565 555.38 468.455 557.15 470.105C556.41 470.405 555.7 471.015 555.38 471.685C555.08 472.285 555.12 472.885 555.5 473.365C555.75 473.685 556.09 473.855 556.48 473.855C557.54 473.855 558.68 472.595 559.07 471.655C560.17 472.415 561.4 473.075 562.78 473.585C562.88 474.565 562.99 475.565 563.12 476.565C563.16 476.895 563.45 477.135 563.77 477.135C563.8 477.135 563.83 477.135 563.86 477.125C564.22 477.085 564.47 476.755 564.43 476.395C564.23 474.835 564.07 473.275 563.94 471.745C565.35 471.695 568.18 469.975 568.59 468.665C568.74 468.195 568.61 467.775 568.22 467.505C567.92 467.285 567.54 467.175 567.12 467.175C565.98 467.175 564.62 467.995 563.76 468.875C563.68 467.305 563.63 465.755 563.62 464.235C564.27 463.965 565.56 463.345 567.03 462.335C567.47 463.375 568.82 464.805 569.98 464.805C570.28 464.805 570.55 464.705 570.77 464.515C570.95 464.345 571.22 463.965 570.96 463.265C570.65 462.455 569.71 461.445 568.81 460.965C569.48 460.385 570.15 459.715 570.79 458.965C571.41 458.875 573.22 458.525 575.14 457.655C575.54 458.575 576.85 459.525 577.81 459.525C578.06 459.525 578.29 459.465 578.47 459.345C578.9 459.075 579.05 458.575 578.88 458.015C578.7 457.385 578.13 456.705 577.44 456.315C578.97 455.185 580.27 453.595 580.71 451.375Z" fill="#4B775E"/>
<path d="M556.49 439.425C556.49 439.425 555.45 438.305 555.63 436.915C555.82 435.525 558.25 435.395 558.49 438.805C559.77 437.395 563.51 439.825 559.64 440.575C562.55 441.955 560.65 444.815 558.2 441.855C557.63 444.655 555.31 444.655 556.17 442.035C553.55 442.435 552.29 438.355 556.49 439.425Z" fill="#E57828"/>
<path d="M548.66 443.485C548.66 443.485 547.01 444.015 546.23 443.135C545.46 442.255 546.18 440.375 548.82 441.375C548.32 438.835 552.59 438.035 551.87 441.985C553.95 441.875 554.64 445.835 551.09 444.145C551.36 446.575 548.16 447.545 548.66 443.485Z" fill="#E57828"/>
<path d="M565.83 433.845C565.83 433.845 566.02 432.295 566.77 431.335C567.51 430.375 569.3 430.155 569.17 432.085C569.04 434.005 567.51 435.125 567.51 435.125C567.51 435.125 569.73 434.135 570.69 434.805C571.65 435.475 571.52 436.725 570.18 436.885C568.85 437.045 567.57 436.885 567.57 436.885C567.57 436.885 568.9 437.665 569.3 439.125C569.7 440.595 567.7 440.895 566.69 439.345C565.67 437.795 565.83 436.885 565.83 436.885C565.83 436.885 565 438.645 563.32 438.725C561.64 438.805 561.11 436.745 564.82 435.365C561.13 434.805 561.83 432.085 563.32 431.915C564.82 431.755 565.83 433.845 565.83 433.845Z" fill="#E57828"/>
<path d="M549.71 455.375C549.71 455.375 549.07 454.165 549.12 453.105C549.18 452.025 550.36 450.975 551.23 452.435C552.1 453.885 551.56 455.465 551.56 455.465C551.56 455.465 552.67 453.625 553.7 453.625C554.73 453.625 555.26 454.595 554.38 455.385C553.5 456.175 552.49 456.705 552.49 456.705C552.49 456.705 553.85 456.585 554.87 457.445C555.9 458.305 554.6 459.525 553.09 458.915C551.58 458.305 551.24 457.575 551.24 457.575C551.24 457.575 551.53 459.265 550.36 460.165C549.19 461.065 547.77 459.845 549.75 456.985C546.81 458.435 545.94 456.125 546.93 455.255C547.93 454.385 549.71 455.375 549.71 455.375Z" fill="#E57828"/>
<path d="M580.9 448.705C580.9 448.705 581.48 447.465 582.37 446.865C583.26 446.275 584.81 446.585 584.17 448.155C583.53 449.725 581.94 450.235 581.94 450.235C581.94 450.235 584.07 450.025 584.69 450.845C585.31 451.675 584.85 452.685 583.69 452.445C582.54 452.215 581.51 451.725 581.51 451.725C581.51 451.725 582.41 452.745 582.34 454.075C582.27 455.415 580.52 455.105 580.1 453.535C579.68 451.965 580.06 451.245 580.06 451.245C580.06 451.245 578.88 452.485 577.46 452.095C576.03 451.695 576.16 449.825 579.63 449.695C576.71 448.215 578.04 446.135 579.34 446.405C580.63 446.685 580.9 448.705 580.9 448.705Z" fill="#E57828"/>
<path d="M571.96 444.405C571.96 444.405 570.92 443.285 571.11 441.895C571.29 440.505 573.72 440.375 573.96 443.785C575.97 442.395 578.25 444.315 575.11 445.555C578.02 446.935 576.13 449.795 573.67 446.835C573.11 449.635 570.79 449.635 571.64 447.015C569.02 447.415 567.77 443.335 571.96 444.405Z" fill="#E57828"/>
<path d="M567.11 435.485C567.11 435.815 566.85 436.085 566.51 436.085C566.18 436.085 565.91 435.815 565.91 435.485C565.91 435.155 566.18 434.885 566.51 434.885C566.85 434.885 567.11 435.155 567.11 435.485Z" fill="#5389A5"/>
<path d="M573.93 445.615C573.93 445.945 573.66 446.215 573.33 446.215C573 446.215 572.73 445.945 572.73 445.615C572.73 445.285 573 445.015 573.33 445.015C573.66 445.015 573.93 445.285 573.93 445.615Z" fill="#5389A5"/>
<path d="M581.39 450.225C581.39 450.555 581.12 450.825 580.79 450.825C580.45 450.825 580.18 450.555 580.18 450.225C580.18 449.885 580.45 449.625 580.79 449.625C581.12 449.625 581.39 449.885 581.39 450.225Z" fill="#5389A5"/>
<path d="M558.15 440.375C558.15 440.705 557.89 440.975 557.55 440.975C557.22 440.975 556.95 440.705 556.95 440.375C556.95 440.045 557.22 439.775 557.55 439.775C557.89 439.775 558.15 440.045 558.15 440.375Z" fill="#5389A5"/>
<path d="M550.89 442.325C550.89 442.655 550.62 442.925 550.29 442.925C549.96 442.925 549.69 442.655 549.69 442.325C549.69 441.995 549.96 441.725 550.29 441.725C550.62 441.725 550.89 441.995 550.89 442.325Z" fill="#5389A5"/>
<path d="M551.49 456.435C551.49 456.765 551.22 457.035 550.89 457.035C550.56 457.035 550.29 456.765 550.29 456.435C550.29 456.105 550.56 455.835 550.89 455.835C551.22 455.835 551.49 456.105 551.49 456.435Z" fill="#5389A5"/>
<path d="M289.46 389.625C289.53 389.265 289.29 388.915 288.94 388.845C288.58 388.775 288.24 389.015 288.17 389.365C287.4 393.315 283.12 394.975 280.74 395.605C282.46 392.965 283.6 389.485 283.08 385.005C283.03 384.645 282.71 384.385 282.34 384.425C281.98 384.465 281.72 384.795 281.77 385.155C282.07 387.765 281.78 390.005 281.13 391.905C280.45 391.175 279.31 390.585 278.45 390.585C277.97 390.585 277.69 390.775 277.54 390.935C277.27 391.205 277.22 391.605 277.4 392.015C277.75 392.845 279.1 393.835 280.14 394.125C279.75 394.825 279.32 395.475 278.85 396.065C278.75 396.135 278.68 396.225 278.63 396.335C276.45 398.955 273.75 400.425 272.36 401.055C272.37 399.585 272.4 398.145 272.46 396.755C273.55 396.715 274.91 395.195 275.37 394.145C275.75 393.275 275.55 392.795 275.31 392.535C275.04 392.245 274.7 392.085 274.32 392.085C273.67 392.085 273.08 392.535 272.66 392.975C272.88 389.735 273.21 386.795 273.55 384.295C274.62 384.225 276.46 383.215 276.94 382.215C277.16 381.765 277.12 381.325 276.84 380.965C276.7 380.805 276.45 380.605 276 380.605C275.42 380.605 274.64 380.955 273.96 381.465C274.54 377.815 275.06 375.615 275.07 375.555C275.16 375.195 274.94 374.845 274.59 374.765C274.23 374.675 273.88 374.895 273.79 375.245C273.77 375.355 272.18 382.075 271.43 391.735C270.73 391.025 270.15 390.165 269.68 389.225C269.68 389.215 269.67 389.215 269.67 389.205C269.42 388.705 269.21 388.195 269.01 387.665C269.66 387.295 270.21 386.305 270.47 385.665C270.75 384.995 271.13 383.765 270.5 383.135C270.31 382.945 270.07 382.845 269.82 382.845C269.15 382.845 268.61 383.485 268.34 383.875C268.25 383.995 268.17 384.125 268.09 384.265C267.65 381.965 267.61 380.125 267.61 380.085C267.6 379.725 267.31 379.445 266.95 379.445C266.94 379.445 266.94 379.445 266.94 379.445C266.57 379.445 266.28 379.745 266.29 380.115C266.29 380.385 266.4 384.985 268.11 388.965C263.67 389.145 260.48 382.195 260.44 382.125C260.3 381.795 259.91 381.645 259.57 381.795C259.24 381.945 259.1 382.335 259.24 382.665C259.32 382.835 260.19 384.725 261.67 386.575C261.05 386.635 260.35 386.875 259.95 387.405C259.67 387.775 259.59 388.225 259.73 388.715C259.91 389.345 260.41 389.705 261.1 389.705C261.95 389.705 263.01 389.155 263.54 388.505C264.78 389.535 266.25 390.295 267.91 390.295C268.17 390.295 268.44 390.275 268.72 390.235C268.83 390.435 268.94 390.625 269.06 390.825C268.09 391.185 266.94 392.135 266.57 392.995C266.33 393.535 266.4 394.035 266.74 394.395C267.01 394.685 267.36 394.845 267.74 394.845C268.81 394.845 269.94 393.635 270.44 392.595C270.71 392.875 271 393.135 271.31 393.375C271.14 396.065 271.04 398.945 271.05 401.955C271.04 402.025 271.04 402.085 271.05 402.155C271.07 404.805 271.17 407.565 271.4 410.365C268.6 409.195 266.49 407.305 264.92 405.265C265.69 404.475 266.2 402.635 266.28 401.525C266.43 399.705 265.68 399.305 265.23 399.235C264.33 399.095 263.58 399.915 263.19 401.415C263.12 401.695 263.07 402.005 263.02 402.325C261.24 399.025 260.68 396.075 260.67 396.025C260.61 395.665 260.27 395.425 259.9 395.485C259.55 395.555 259.31 395.895 259.37 396.255C259.41 396.455 259.78 398.425 260.86 400.945C260.76 400.935 260.66 400.935 260.56 400.935C259.48 400.935 258.04 401.285 257.41 402.055C257.14 402.375 257.04 402.755 257.12 403.145C257.18 403.445 257.44 404.135 258.64 404.135C259.67 404.135 261.06 403.615 261.86 403.015C262.82 404.805 264.14 406.705 265.9 408.345C265.16 408.655 264.45 409.265 264.13 409.925C263.83 410.535 263.87 411.125 264.25 411.615C264.5 411.935 264.84 412.105 265.23 412.105C266.29 412.105 267.43 410.845 267.83 409.905C268.92 410.665 270.15 411.325 271.54 411.825C271.63 412.815 271.74 413.805 271.87 414.805C271.92 415.135 272.2 415.385 272.52 415.385C272.55 415.385 272.58 415.375 272.61 415.375C272.97 415.325 273.23 414.995 273.18 414.635C272.98 413.075 272.82 411.525 272.69 409.985C274.1 409.945 276.93 408.225 277.35 406.905C277.49 406.445 277.36 406.015 276.97 405.745C276.67 405.535 276.3 405.425 275.87 405.425C274.73 405.425 273.37 406.245 272.51 407.125C272.43 405.555 272.38 404.005 272.37 402.485C273.02 402.205 274.31 401.595 275.78 400.585C276.22 401.625 277.57 403.055 278.73 403.055C279.03 403.055 279.31 402.955 279.52 402.755C279.71 402.595 279.97 402.215 279.71 401.515C279.4 400.705 278.46 399.695 277.56 399.205C278.23 398.625 278.9 397.965 279.54 397.215C280.16 397.115 281.97 396.775 283.89 395.895C284.29 396.825 285.6 397.775 286.56 397.775C286.81 397.775 287.04 397.715 287.23 397.585C287.65 397.315 287.8 396.815 287.64 396.265C287.45 395.625 286.88 394.945 286.19 394.565C287.72 393.425 289.03 391.835 289.46 389.625Z" fill="#77937C"/>
<path d="M265.24 377.665C265.24 377.665 264.2 376.545 264.38 375.155C264.57 373.775 267 373.635 267.24 377.055C268.52 375.635 272.26 378.065 268.39 378.815C271.3 380.205 269.4 383.065 266.95 380.095C266.39 382.905 264.06 382.905 264.92 380.285C262.3 380.685 261.05 376.605 265.24 377.665Z" fill="#5389A5"/>
<path d="M257.41 381.725C257.41 381.725 255.76 382.265 254.99 381.385C254.21 380.495 254.93 378.625 257.57 379.615C257.07 377.085 261.34 376.285 260.62 380.235C262.7 380.125 263.4 384.075 259.84 382.395C260.11 384.825 256.91 385.785 257.41 381.725Z" fill="#5389A5"/>
<path d="M274.58 372.085C274.58 372.085 274.77 370.535 275.52 369.575C276.27 368.615 278.05 368.405 277.92 370.325C277.79 372.245 276.26 373.375 276.26 373.375C276.26 373.375 278.48 372.385 279.44 373.045C280.41 373.715 280.27 374.975 278.94 375.135C277.6 375.295 276.32 375.135 276.32 375.135C276.32 375.135 277.65 375.905 278.05 377.375C278.45 378.845 276.45 379.135 275.44 377.585C274.42 376.045 274.58 375.135 274.58 375.135C274.58 375.135 273.76 376.895 272.07 376.975C270.39 377.055 269.86 374.985 273.57 373.615C269.88 373.045 270.58 370.325 272.07 370.165C273.57 370.005 274.58 372.085 274.58 372.085Z" fill="#5389A5"/>
<path d="M258.46 393.625C258.46 393.625 257.82 392.415 257.87 391.345C257.93 390.275 259.11 389.225 259.98 390.675C260.85 392.135 260.31 393.705 260.31 393.705C260.31 393.705 261.42 391.875 262.45 391.875C263.48 391.875 264.01 392.845 263.13 393.635C262.25 394.415 261.25 394.945 261.25 394.945C261.25 394.945 262.6 394.835 263.62 395.695C264.65 396.545 263.36 397.765 261.84 397.165C260.33 396.555 259.99 395.825 259.99 395.825C259.99 395.825 260.28 397.505 259.11 398.415C257.94 399.315 256.52 398.095 258.5 395.235C255.56 396.685 254.69 394.375 255.69 393.505C256.68 392.635 258.46 393.625 258.46 393.625Z" fill="#5389A5"/>
<path d="M289.65 386.955C289.65 386.955 290.23 385.715 291.12 385.115C292.01 384.515 293.57 384.835 292.92 386.405C292.28 387.965 290.7 388.485 290.7 388.485C290.7 388.485 292.82 388.275 293.44 389.095C294.06 389.915 293.61 390.925 292.45 390.695C291.29 390.465 290.26 389.975 290.26 389.975C290.26 389.975 291.16 390.985 291.09 392.325C291.02 393.665 289.27 393.355 288.85 391.785C288.43 390.205 288.81 389.495 288.81 389.495C288.81 389.495 287.64 390.735 286.21 390.345C284.78 389.945 284.91 388.075 288.39 387.945C285.46 386.455 286.79 384.375 288.09 384.655C289.38 384.935 289.65 386.955 289.65 386.955Z" fill="#5389A5"/>
<path d="M280.71 382.645C280.71 382.645 279.67 381.525 279.86 380.135C280.05 378.755 282.47 378.615 282.71 382.035C284.72 380.645 287 382.565 283.86 383.795C286.77 385.185 284.88 388.045 282.42 385.075C281.86 387.885 279.54 387.885 280.39 385.265C277.78 385.665 276.52 381.585 280.71 382.645Z" fill="#5389A5"/>
<path d="M275.86 373.735C275.86 374.065 275.6 374.335 275.26 374.335C274.93 374.335 274.66 374.065 274.66 373.735C274.66 373.395 274.93 373.125 275.26 373.125C275.6 373.125 275.86 373.395 275.86 373.735Z" fill="#E57828"/>
<path d="M282.68 383.855C282.68 384.195 282.41 384.465 282.08 384.465C281.75 384.465 281.48 384.195 281.48 383.855C281.48 383.525 281.75 383.255 282.08 383.255C282.41 383.255 282.68 383.525 282.68 383.855Z" fill="#E57828"/>
<path d="M290.14 388.465C290.14 388.805 289.87 389.075 289.54 389.075C289.21 389.075 288.94 388.805 288.94 388.465C288.94 388.135 289.21 387.865 289.54 387.865C289.87 387.865 290.14 388.135 290.14 388.465Z" fill="#E57828"/>
<path d="M266.91 378.625C266.91 378.955 266.64 379.225 266.3 379.225C265.97 379.225 265.7 378.955 265.7 378.625C265.7 378.285 265.97 378.025 266.3 378.025C266.64 378.025 266.91 378.285 266.91 378.625Z" fill="#E57828"/>
<path d="M259.64 380.575C259.64 380.905 259.37 381.175 259.04 381.175C258.71 381.175 258.44 380.905 258.44 380.575C258.44 380.235 258.71 379.975 259.04 379.975C259.37 379.975 259.64 380.235 259.64 380.575Z" fill="#E57828"/>
<path d="M260.24 394.685C260.24 395.015 259.97 395.285 259.64 395.285C259.31 395.285 259.04 395.015 259.04 394.685C259.04 394.355 259.31 394.085 259.64 394.085C259.97 394.085 260.24 394.355 260.24 394.685Z" fill="#E57828"/>
<path d="M496.9 382.295C495.54 382.295 492.21 384.615 490.4 386.585C490.42 385.605 490.42 384.615 490.41 383.605H490.42C492.98 383.605 497.19 376.635 497.79 374.125C497.85 373.865 498.04 373.075 497.49 372.795C497.39 372.745 497.27 372.715 497.15 372.715C495.87 372.715 492.18 376.825 490.31 379.775C490.27 378.625 490.21 377.465 490.15 376.325C492.48 376.085 496.83 369.965 497.59 367.435C497.83 366.645 497.75 366.115 497.35 365.855C497.21 365.755 497.05 365.715 496.87 365.715C495.27 365.715 491.62 370.035 489.91 372.835C489.78 371.125 489.64 369.465 489.49 367.895C491.65 367.465 494.82 361.865 495.55 359.055C495.67 358.595 496.04 357.175 495.2 356.705C495.06 356.625 494.9 356.585 494.73 356.585C493.1 356.585 490.41 360.665 489.05 363.625C488.53 359.025 488.07 355.895 488.06 355.815C488.01 355.455 487.67 355.205 487.31 355.265C486.95 355.315 486.71 355.655 486.76 356.015C486.77 356.085 487.17 358.815 487.64 362.895C485.8 360.125 482.71 356.685 481.38 356.685C481.13 356.685 480.91 356.795 480.77 356.985C480.47 357.415 480.6 358.135 481.21 359.335C482.48 361.785 486.35 366.965 488.15 367.775C488.25 368.775 488.35 369.825 488.44 370.895C486.62 367.855 482.87 363.095 481.15 363.095C480.86 363.095 480.61 363.205 480.44 363.425C480.07 363.885 480.17 364.665 480.74 365.855C482.16 368.795 486.86 374.555 488.78 375.585C488.85 376.565 488.9 377.555 488.95 378.545C486.81 374.885 482.03 368.895 480.58 368.895C480.35 368.895 480.16 368.995 480.04 369.175C479.83 369.495 479.78 370.035 480.76 371.835C482.28 374.635 487.18 381.515 489.08 382.525C489.1 383.355 489.1 384.195 489.1 385.015C487.32 382.015 483.53 377.595 482.01 377.595C481.74 377.595 481.52 377.705 481.37 377.905C481.05 378.345 481.18 379.085 481.8 380.295C483.09 382.835 487.15 388.155 489.01 388.945C488.99 389.485 488.96 390.015 488.92 390.535C488.9 390.895 489.17 391.215 489.53 391.235C489.55 391.245 489.56 391.245 489.58 391.245C489.92 391.245 490.21 390.975 490.24 390.625C490.26 390.315 490.28 390.005 490.29 389.685C490.34 389.685 490.39 389.695 490.43 389.695C492.52 389.695 496.65 385.965 497.59 383.975C497.88 383.385 497.89 382.925 497.63 382.605C497.51 382.465 497.3 382.295 496.9 382.295Z" fill="#8FA380"/>
<path d="M492.62 347.805C491.63 347.415 489.57 350.535 488.27 353.555C488.16 349.105 486.78 341.495 485.36 341.875C483.91 342.275 485.16 350.225 486.45 354.295C484.52 351.395 481.47 348.365 480.87 349.195C480.04 350.355 485.41 357.575 487.33 358.545C487.36 358.585 487.4 358.625 487.44 358.655C489.29 359.985 494.38 348.505 492.62 347.805Z" fill="#EA8532"/>
<path d="M462.35 99.785C461.74 100.275 461.27 100.925 460.96 101.685C460.96 101.685 457.66 102.645 456.56 103.625C458.48 105.015 460.63 105.095 460.63 105.095C460.73 107.115 458.93 108.895 457.98 111.305C456.99 113.805 455.73 120.055 461.18 123.045C463.19 124.145 465.05 124.755 466.82 125.045L464.09 129.235C463.8 129.675 463.93 130.255 464.36 130.545C464.52 130.655 464.7 130.705 464.88 130.705C465.19 130.705 465.49 130.545 465.68 130.275L468.95 125.255C469.54 125.275 470.13 125.275 470.71 125.245L467.67 129.285C467.36 129.705 467.44 130.305 467.86 130.615C468.03 130.745 468.23 130.805 468.43 130.805C468.72 130.805 469 130.675 469.19 130.425L473.26 124.995C474 124.895 474.74 124.775 475.48 124.655C479.97 123.925 487.7 124.795 491.95 127.605C496.59 133.235 497.72 133.515 499.02 133.545C497.43 131.465 495.16 128.235 492.79 125.025L492.68 124.865L492.64 124.815L492.57 124.715L492.46 124.565L492.42 124.525L492.34 124.415L491.9 123.815L491.78 123.665V123.655L491.67 123.515L491.56 123.375V123.365L491.35 123.085L491.34 123.065L491.22 122.925L491.13 122.805L491.11 122.775L491 122.625L490.92 122.515L490.89 122.475L490.78 122.335L490.7 122.235L490.66 122.185L490.55 122.035L490.49 121.955L490.44 121.895L490.33 121.745L490.22 121.605L490.11 121.465L490.06 121.405L489.99 121.315L489.88 121.175L489.85 121.125L489.77 121.035L489.66 120.895L489.63 120.855L489.55 120.755L489.44 120.615L489.42 120.595L489.33 120.475L489.22 120.335L489.21 120.325L489.11 120.205L489 120.065L488.89 119.935L488.57 119.535L488.46 119.405L488.38 119.295L488.36 119.275L488.25 119.145L488.14 119.015L488.04 118.885L487.97 118.805L487.93 118.765L487.82 118.635L487.72 118.515L487.62 118.395L487.57 118.335L487.51 118.275L487.41 118.155L487.37 118.105L487.31 118.035L487.2 117.915L487.17 117.885L487.1 117.805L487 117.685L486.98 117.665L486.9 117.575L486.8 117.465L486.78 117.445L486.7 117.355L486.6 117.245L486.59 117.235L486.5 117.135L486.4 117.035C482.4 112.745 478.81 109.235 475.58 106.595L475.43 106.475L475.28 106.355L475.18 106.275L475.14 106.245L475.13 106.235L475.08 106.195L475.05 106.165L475.03 106.155L475 106.125L474.99 106.115L474.94 106.075L474.91 106.055L474.89 106.045L474.87 106.015L474.85 106.005L474.8 105.965L474.79 105.955L474.76 105.925L474.73 105.905L474.71 105.895L474.67 105.855H474.66L474.6 105.805L474.58 105.785L474.54 105.755L474.49 105.715L474.48 105.705L474.45 105.685L474.42 105.655L474.41 105.645L474.37 105.615L474.32 105.575L474.3 105.565L474.28 105.545L474.24 105.515L474.23 105.505L474.2 105.485L474.19 105.465L474.16 105.445L474.12 105.415H474.11L474.08 105.385V105.375L474.04 105.355L474 105.325L473.97 105.295H473.96L473.93 105.255L473.89 105.225L473.86 105.205L473.85 105.195L473.81 105.165L473.78 105.145L473.76 105.125L473.74 105.115L473.7 105.085L473.67 105.055L473.66 105.045L473.63 105.025L473.6 104.995L473.57 104.975L473.56 104.965L473.53 104.945L473.49 104.915L473.47 104.895L473.46 104.885L473.42 104.855L473.39 104.835L473.37 104.815L473.36 104.805L473.32 104.775L473.29 104.755L473.28 104.735L473.26 104.725L473.23 104.705L473.2 104.675L473.19 104.665H473.18L473.17 104.655L473.13 104.625L473.1 104.605V104.595H473.09L473.07 104.575L473.04 104.555L473.02 104.535L473.01 104.525H473L472.96 104.485L472.92 104.455L472.9 104.435L472.85 104.395L472.84 104.385L472.79 104.355L472.75 104.325C471.79 103.545 471.31 103.135 470.92 102.665L470.9 102.635L470.88 102.605L470.87 102.595L470.86 102.585L470.84 102.555C469.59 100.955 467.96 98.765 464.94 98.865L464.8 98.875H464.79L464.67 98.885H464.66H464.65L464.54 98.895H464.52L464.49 98.905L464.41 98.915H464.38L464.27 98.935H464.25L464.24 98.945L464.16 98.955L464.12 98.965H464.11L463.99 98.995L463.87 99.025H463.86L463.75 99.055L463.74 99.065H463.73L463.63 99.095L463.62 99.105H463.59L463.52 99.135L463.5 99.145H463.49C463.38 99.185 463.26 99.235 463.15 99.285L463.08 99.325L463.04 99.345L463 99.355L462.93 99.395V99.405L462.83 99.455L462.82 99.465L462.8 99.475L462.73 99.515L462.71 99.525L462.67 99.555L462.61 99.595L462.6 99.605L462.54 99.645L462.47 99.685V99.695L462.41 99.735L462.35 99.785Z" fill="#261918"/>
<path d="M412.69 468.675C412.72 468.695 412.76 468.705 412.79 468.725C412.81 468.725 412.83 468.745 412.85 468.745C412.91 468.765 412.97 468.775 413.03 468.775H413.04C413.09 468.775 413.14 468.765 413.19 468.755H413.2C413.27 468.735 413.34 468.695 413.4 468.655C414.14 468.185 421.2 463.515 422.71 456.295C422.76 456.065 422.67 455.825 422.48 455.685C422.29 455.545 422.03 455.525 421.82 455.645C416.82 458.445 414.13 463.715 413.04 466.385C411.88 463.385 408.93 457.045 403.95 454.465C403.75 454.365 403.51 454.375 403.33 454.505C403.14 454.625 403.04 454.845 403.06 455.065C403.82 462.555 412.33 468.425 412.69 468.675Z" fill="#4B775E"/>
<path d="M423.71 465.975C423.73 465.765 423.64 465.565 423.48 465.445C423.31 465.315 423.1 465.275 422.9 465.345C417.93 467.095 414.62 472.705 413.44 475.015C411.9 472.745 407.56 467.055 401.79 465.625C401.56 465.575 401.33 465.645 401.18 465.825C401.03 465.995 400.99 466.235 401.08 466.455C404.29 474.005 412.97 476.725 413.34 476.835C413.4 476.855 413.46 476.865 413.51 476.865C413.52 476.865 413.52 476.865 413.52 476.865C413.65 476.865 413.76 476.825 413.85 476.765C414.74 476.305 423.16 471.755 423.71 465.975Z" fill="#4B775E"/>
<path d="M412.79 457.975C412.79 457.975 406.22 452.455 403.52 446.645C400.81 440.825 404.7 439.125 409.92 446.095C409.52 440.475 411.64 437.915 413.46 438.015C415.28 438.115 416.21 440.745 415.82 446.095C417.69 440.475 419.65 439.985 421.09 440.775C422.71 441.655 422.18 450.125 412.79 457.975Z" fill="#36697B"/>
<path d="M416.71 454.115C415.9 453.105 414.66 451.955 413.26 452.045C410.8 452.185 409.35 454.675 409.35 454.675C410.53 455.915 411.57 456.895 412.19 457.445C412.23 460.775 412.4 473.365 413.25 479.345C413.29 479.655 413.55 479.865 413.85 479.865C413.88 479.865 413.91 479.865 413.94 479.865C414.27 479.815 414.5 479.505 414.45 479.175C413.61 473.265 413.44 460.745 413.41 457.435C414.67 456.335 415.77 455.215 416.71 454.115Z" fill="#77937C"/>
<path d="M528.43 485.625C528.32 485.515 528.17 485.475 528.02 485.515C520.22 487.295 515.93 492.705 513.8 496.525C514.53 492.285 515.66 487.455 517.41 482.935C520.2 481.665 527.11 475.745 525.77 465.605C525.74 465.455 525.65 465.325 525.52 465.255C525.38 465.185 525.22 465.185 525.08 465.255C515.6 470.445 515.93 479.665 516.21 482.155C515.37 484.255 514.68 486.415 514.09 488.555C514.04 483.325 513.22 476.475 509.64 472.975C509.52 472.855 509.36 472.815 509.2 472.855C509.04 472.895 508.92 473.015 508.87 473.165C505.11 485.335 510.42 492.865 512.33 495.075C512.4 495.215 512.47 495.355 512.54 495.495C512.26 497.075 512.03 498.575 511.85 499.965C510.93 496.025 508.62 491.305 502.88 489.515C502.74 489.465 502.58 489.495 502.46 489.595C502.34 489.695 502.27 489.835 502.28 489.995C502.98 499.465 507.17 504.915 511.22 506.315C511.14 507.595 511.11 508.405 511.11 508.565C511.1 508.945 511.4 509.265 511.79 509.275H511.8C512.18 509.275 512.49 508.975 512.5 508.595C512.5 508.515 512.58 505.515 513.12 501.165C519.5 501.085 527.19 495.315 528.58 486.025C528.6 485.885 528.55 485.725 528.43 485.625Z" fill="#77937C"/>
<path d="M497.13 488.865C497.15 488.705 497.07 488.545 496.93 488.445C496.79 488.355 496.61 488.345 496.46 488.415C490.25 491.555 487.13 496.675 485.56 500.815C485.6 497.865 485.52 494.855 485.38 492.165C487.13 491.535 489.86 489.245 491.9 486.045C493.79 483.085 495.67 478.445 493.9 473.155C493.85 473.005 493.73 472.895 493.58 472.855C493.42 472.815 493.26 472.855 493.15 472.965C488.39 477.415 486.12 483.355 485.06 487.365C484.86 484.805 484.67 483.085 484.65 482.875L484.63 482.795C484.63 482.765 484.59 482.605 484.53 482.365C484.92 479.745 485.66 470.445 477.33 466.965C477.18 466.905 477.02 466.925 476.89 467.005C476.77 467.095 476.69 467.235 476.68 467.385C476.54 477.325 481.68 481.875 483.27 483.035C483.27 483.045 483.27 483.065 483.27 483.065C483.31 483.405 483.57 485.875 483.81 489.295C482.09 485.735 478.7 481.365 473.09 480.725C472.95 480.705 472.81 480.755 472.71 480.855C472.61 480.965 472.56 481.105 472.58 481.245C474.14 491.875 481.75 493.745 484.06 494.065C484.18 496.955 484.22 500.085 484.1 503.025C483.67 501.855 483.06 500.655 482.23 499.515C480.78 497.555 478.15 495.075 473.78 494.475C473.62 494.445 473.47 494.505 473.37 494.625C473.27 494.735 473.23 494.895 473.27 495.045C475.97 505.785 481.61 508.055 483.61 508.525C483.58 508.885 483.83 509.215 484.19 509.265C484.23 509.275 484.26 509.275 484.3 509.275C484.64 509.275 484.93 509.025 484.98 508.685C485 508.565 485.02 508.435 485.04 508.305C485.04 508.285 485.04 508.265 485.05 508.245C485.06 508.115 485.08 507.975 485.1 507.845C488.63 507.085 496.28 499.715 497.13 488.865Z" fill="#4B775E"/>
<path d="M171.4 502.965C171.4 502.965 161.28 494.005 161.74 477.015C162.2 460.025 178.04 443.955 178.04 443.955C178.04 443.955 186.3 460.485 182.75 477.355C179.19 494.235 171.4 502.965 171.4 502.965Z" fill="#4B775E"/>
<path d="M171.95 510.445C171.5 510.445 171.1 510.125 171.02 509.665C170.99 509.465 167.76 489.575 176.44 458.735C176.58 458.235 177.11 457.945 177.61 458.085C178.11 458.225 178.4 458.745 178.26 459.245C169.7 489.645 172.85 509.155 172.88 509.345C172.97 509.855 172.63 510.345 172.11 510.435C172.06 510.445 172.01 510.445 171.95 510.445Z" fill="#4B775E"/>
<path d="M189.98 464.045C189.98 464.045 181.59 476.095 185.04 499.745C194.23 494.695 205.28 476.975 205.28 476.975L201.57 467.005L189.98 464.045Z" fill="#4B775E"/>
<path d="M183.64 511.475C183.61 511.475 183.58 511.475 183.56 511.475C183.04 511.435 182.65 510.975 182.69 510.455C185.07 482.495 195.31 468.595 195.75 468.015C196.06 467.595 196.65 467.515 197.07 467.825C197.48 468.135 197.57 468.725 197.26 469.145C197.15 469.285 186.9 483.245 184.58 510.615C184.53 511.105 184.12 511.475 183.64 511.475Z" fill="#4B775E"/>
<path d="M215.92 485.855C215.92 485.855 201.99 474.875 195.99 468.005C192.5 464.465 189.98 464.045 189.98 464.045C189.98 464.045 205.48 460.255 220.17 463.355C222.24 473.225 215.92 485.855 215.92 485.855Z" fill="#77937C"/>
<path d="M214.95 485.075C215.57 485.575 215.92 485.855 215.92 485.855C215.92 485.855 216.26 485.165 216.76 483.995C216.05 476.715 211.86 467.555 208.33 462.145C207.55 462.135 206.79 462.135 206.05 462.155C209.55 467.165 214.54 477.385 214.95 485.075Z" fill="#77937C"/>
<path d="M121.87 471.595C125.4 473.345 136.26 489.505 134.69 501.375C126.62 493.525 120.1 481.395 114.72 478.295C114.72 478.295 113.77 473.635 114.72 472.135C115.67 470.645 121.87 471.595 121.87 471.595Z" fill="#4B775E"/>
<path d="M155.96 466.625C155.96 466.625 161.32 459.895 168.96 466.625C176.6 473.345 174.31 485.425 172.25 487.565C170.19 489.705 164.68 489.405 162.7 483.135C160.71 476.865 158.34 473.965 154.64 476.295L155.96 466.625Z" fill="#77937C"/>
<path d="M148 504.805C148 504.805 154.75 482.215 156.12 464.785C157.5 447.365 154.88 443.925 151.73 443.345C148.57 442.775 143.82 446.785 142.1 464.785C140.38 482.785 148 504.805 148 504.805Z" fill="#4B775E"/>
<path d="M141.29 506.145C141.29 506.145 143.69 490.805 141.29 478.195C138.89 465.595 131.43 449.885 124.44 451.145C117.45 452.405 126.58 472.205 129.68 479.765C132.77 487.335 138.3 497.755 141.29 506.145Z" fill="#77937C"/>
<path d="M135.95 510.295C135.96 510.295 135.97 510.295 135.99 510.295C136.51 510.275 136.91 509.835 136.89 509.315C136.21 490.975 119.59 473.365 118.89 472.625C118.53 472.255 117.93 472.235 117.56 472.595C117.18 472.955 117.17 473.555 117.52 473.925C117.69 474.105 134.35 491.765 135.01 509.385C135.03 509.895 135.45 510.295 135.95 510.295Z" fill="#4B775E"/>
<path d="M148.17 509.525C148.18 509.525 148.19 509.525 148.2 509.525C148.72 509.505 149.13 509.075 149.11 508.555C149.1 508.175 147.94 470.245 151.85 449.515C151.95 448.995 151.61 448.505 151.1 448.415C150.59 448.305 150.09 448.655 150 449.165C146.05 470.105 147.22 508.235 147.23 508.615C147.25 509.125 147.67 509.525 148.17 509.525Z" fill="#4B775E"/>
<path d="M141.84 512.045C141.87 512.045 141.9 512.045 141.93 512.045C142.45 511.995 142.83 511.535 142.78 511.025C142.66 509.695 139.71 478.425 130.89 461.825C130.65 461.365 130.08 461.195 129.62 461.435C129.16 461.675 128.98 462.245 129.23 462.705C137.86 478.975 140.88 510.875 140.9 511.195C140.95 511.685 141.36 512.045 141.84 512.045Z" fill="#77937C"/>
<path d="M121.87 471.595C121.87 471.595 118.52 471.975 116.38 475.335C114.24 478.695 112.33 484.125 110.03 484.125C107.74 484.125 105.52 478.695 107.43 473.045C109.34 467.385 116.96 468.685 121.87 471.595Z" fill="#77937C"/>
<path d="M109.09 483.815C109.11 481.935 109.44 472.825 114.35 469.135C115.37 469.205 116.41 469.395 117.44 469.695C111.44 471.375 111.01 481.925 110.98 483.815C110.67 484.015 110.36 484.125 110.03 484.125C109.71 484.125 109.4 484.015 109.09 483.815Z" fill="#77937C"/>
<path d="M404.2 249.715C409.74 238.485 444.01 234.805 450.26 245.655C456.51 256.515 462.11 282.835 450.26 288.665C438.41 294.495 400.87 297.565 399.75 283.965C398.64 270.365 401.06 256.095 404.2 249.715Z" fill="#3D0F1E"/>
<path d="M90.02 308.275L86.84 412.265C86.84 412.265 131.25 420.005 154.16 414.815C150.88 373.955 145.22 321.465 145.22 321.465C145.22 321.465 137.08 286.805 128.95 285.445C120.81 284.085 90.02 308.275 90.02 308.275Z" fill="#D19C89"/>
<path d="M60.99 260.305C51.56 286.685 40.66 323.325 52.05 330.505C63.44 337.685 77.56 295.405 77.56 295.405C77.56 295.405 69.39 337.685 83.25 338.425C97.12 339.175 95.63 303.765 95.63 303.765C95.63 303.765 99.04 340.905 112.93 339.915C126.83 338.925 118.16 304.255 118.16 304.255C118.16 304.255 123.36 336.205 137.1 334.215C150.84 332.235 142.92 296.835 142.92 296.835C142.92 296.835 155.55 332.485 173.62 327.785C191.69 323.075 165.2 253.505 165.2 253.505C165.2 253.505 144.16 215.375 118.41 216.115C92.66 216.855 80.03 225.525 67.16 239.145C54.28 252.765 60.99 260.305 60.99 260.305Z" fill="#77937C"/>
<path d="M71.85 197.195C58.49 224.785 44.63 256.225 53.29 262.175C61.96 268.115 84.98 229.685 84.98 229.685C84.98 229.685 76.57 269.845 86.72 270.585C96.87 271.335 103.55 238.645 103.55 238.645C103.55 238.645 103.06 270.585 115.19 269.595C127.32 268.605 126.33 233.895 126.33 233.895C126.33 233.895 132.27 262.415 142.67 258.705C153.07 254.985 146.39 233.895 146.39 233.895C146.39 233.895 154.06 257.965 166.94 253.005C179.81 248.055 157.28 208.435 151.46 198.285C140.2 170.065 128.31 147.285 114.69 147.535C101.08 147.785 71.85 197.195 71.85 197.195Z" fill="#8FA380"/>
<path d="M118.66 128.715C118.66 128.715 141.31 158.555 150.97 182.325C160.62 206.095 141.68 205.345 128.31 170.805C133.51 203.495 115.68 231.715 111.6 167.095C106.77 210.915 84.49 235.425 97.86 164.495C82.63 193.835 48.84 220.945 76.69 172.665C97.12 140.855 118.66 128.715 118.66 128.715Z" fill="#77937C"/>
<path d="M77.55 183.315C77.18 183.315 76.81 183.195 76.48 182.965C75.64 182.375 75.45 181.215 76.04 180.375C76.08 180.315 80.32 174.365 85.23 167.845C85.85 167.025 87.01 166.865 87.83 167.485C88.65 168.105 88.82 169.265 88.2 170.085C83.32 176.565 79.11 182.475 79.07 182.535C78.71 183.045 78.13 183.315 77.55 183.315Z" fill="#8FA380"/>
<path d="M98.47 158.955C98.15 158.955 97.83 158.875 97.53 158.695C96.65 158.175 96.36 157.035 96.88 156.155C97.15 155.705 103.46 145.035 107.27 140.975C107.97 140.225 109.15 140.185 109.9 140.885C110.65 141.585 110.68 142.765 109.98 143.515C106.45 147.275 100.14 157.935 100.08 158.045C99.73 158.625 99.11 158.955 98.47 158.955Z" fill="#8FA380"/>
<path d="M120.39 172.415C119.39 172.415 118.56 171.625 118.53 170.615C118.29 162.495 118.53 147.655 118.53 147.505C118.55 146.475 119.42 145.675 120.42 145.675C121.44 145.695 122.26 146.535 122.25 147.565C122.24 147.715 122 162.475 122.24 170.505C122.28 171.535 121.47 172.385 120.44 172.415C120.43 172.415 120.41 172.415 120.39 172.415Z" fill="#8FA380"/>
<path d="M101.08 193.465C100.05 193.465 99.22 192.635 99.22 191.605C99.22 184.755 104.03 166.875 104.24 166.115C104.5 165.125 105.52 164.535 106.51 164.805C107.5 165.075 108.09 166.095 107.82 167.085C107.77 167.265 102.93 185.245 102.93 191.605C102.93 192.635 102.1 193.465 101.08 193.465Z" fill="#8FA380"/>
<path d="M142.67 185.295C141.95 185.295 141.27 184.875 140.96 184.165C138.09 177.465 130.06 165.265 129.98 165.145C129.42 164.295 129.65 163.135 130.51 162.575C131.36 162.005 132.52 162.245 133.08 163.105C133.42 163.615 141.38 175.695 144.38 182.705C144.78 183.645 144.35 184.735 143.4 185.145C143.17 185.245 142.92 185.295 142.67 185.295Z" fill="#8FA380"/>
<path d="M73.84 231.845C73.59 231.845 73.33 231.785 73.08 231.675C72.15 231.255 71.73 230.155 72.15 229.225L81.56 208.305C81.98 207.365 83.08 206.955 84.01 207.375C84.95 207.795 85.36 208.895 84.94 209.825L75.54 230.745C75.23 231.435 74.55 231.845 73.84 231.845Z" fill="#77937C"/>
<path d="M90.68 251.895C89.72 251.895 88.9 251.155 88.83 250.185C87.82 237.575 93.62 219.705 93.87 218.945C94.18 217.975 95.23 217.445 96.21 217.765C97.18 218.075 97.71 219.125 97.4 220.105C97.34 220.275 91.58 238.035 92.53 249.885C92.61 250.915 91.85 251.805 90.83 251.885C90.78 251.895 90.73 251.895 90.68 251.895Z" fill="#77937C"/>
<path d="M113.21 247.685C112.28 247.685 111.48 246.995 111.37 246.055C110.12 236.105 111.3 214.695 111.35 213.785C111.41 212.765 112.28 211.975 113.31 212.035C114.34 212.095 115.12 212.975 115.06 213.995C115.05 214.215 113.85 235.975 115.05 245.595C115.18 246.615 114.46 247.545 113.44 247.675C113.36 247.685 113.28 247.685 113.21 247.685Z" fill="#77937C"/>
<path d="M137.1 241.005C136.44 241.005 135.8 240.645 135.47 240.025C132 233.595 129.78 214.895 129.69 214.105C129.57 213.085 130.3 212.165 131.31 212.045C132.34 211.935 133.26 212.655 133.37 213.675C133.4 213.865 135.6 232.455 138.74 238.265C139.22 239.165 138.89 240.295 137.98 240.775C137.7 240.925 137.4 241.005 137.1 241.005Z" fill="#77937C"/>
<path d="M160 233.825C159.17 233.825 158.42 233.265 158.21 232.425C156.06 224.075 148.54 210.085 148.47 209.945C147.98 209.045 148.32 207.915 149.22 207.435C150.12 206.945 151.25 207.285 151.73 208.185C152.05 208.775 159.54 222.715 161.8 231.505C162.06 232.495 161.46 233.505 160.47 233.765C160.31 233.805 160.16 233.825 160 233.825Z" fill="#77937C"/>
<path d="M61.46 301.665C61.35 301.665 61.24 301.655 61.13 301.635C60.12 301.445 59.45 300.485 59.64 299.475C59.78 298.695 63.14 280.235 65.36 271.845C65.62 270.855 66.64 270.265 67.63 270.525C68.62 270.785 69.21 271.805 68.95 272.795C66.77 281.045 63.32 299.945 63.29 300.135C63.13 301.035 62.34 301.665 61.46 301.665Z" fill="#8FA380"/>
<path d="M83.25 323.205C82.34 323.205 81.55 322.535 81.41 321.615C80.15 313.055 83.02 288.735 83.14 287.705C83.26 286.685 84.18 285.955 85.2 286.075C86.22 286.195 86.95 287.125 86.83 288.135C86.8 288.385 83.9 312.995 85.09 321.075C85.24 322.085 84.53 323.035 83.52 323.185C83.43 323.195 83.34 323.205 83.25 323.205Z" fill="#8FA380"/>
<path d="M106.77 313.545C105.97 313.545 105.23 313.025 104.99 312.225C102.71 304.615 102.69 283.375 102.69 282.475C102.69 281.445 103.52 280.615 104.54 280.615C105.57 280.615 106.4 281.445 106.4 282.475C106.4 282.685 106.43 304.075 108.55 311.155C108.84 312.135 108.29 313.175 107.3 313.465C107.13 313.525 106.95 313.545 106.77 313.545Z" fill="#8FA380"/>
<path d="M131.53 310.075C130.61 310.075 129.81 309.395 129.69 308.455C128.73 300.825 122.91 284.495 122.85 284.335C122.5 283.375 123.01 282.305 123.97 281.965C124.94 281.615 126 282.115 126.35 283.085C126.59 283.765 132.37 299.955 133.37 307.995C133.5 309.005 132.78 309.935 131.76 310.065C131.68 310.075 131.6 310.075 131.53 310.075Z" fill="#8FA380"/>
<path d="M166.69 303.645C165.85 303.645 165.09 303.075 164.88 302.225C162.28 291.555 152.19 276.995 152.09 276.845C151.5 276.005 151.71 274.855 152.55 274.265C153.39 273.675 154.54 273.885 155.13 274.725C155.56 275.345 165.72 289.995 168.49 301.345C168.74 302.335 168.13 303.345 167.13 303.585C166.98 303.625 166.83 303.645 166.69 303.645Z" fill="#8FA380"/>
<path d="M93.22 407.265C93.24 407.085 93.15 406.905 92.99 406.825C92.83 406.745 92.63 406.765 92.49 406.885C89.35 409.695 86.79 413.895 85.04 417.335C86.68 406.825 84.27 400.835 84.15 400.535C83.96 400.085 83.45 399.875 83 400.055C82.55 400.245 82.34 400.755 82.53 401.205C82.56 401.285 85.16 407.765 82.94 419.095C82.42 415.725 81.18 411.515 78.7 409.495C78.58 409.395 78.42 409.365 78.27 409.415C78.13 409.475 78.02 409.595 77.99 409.745C76.93 414.975 80.65 421.195 81.97 423.205C81.84 423.715 81.69 424.225 81.53 424.745C81.39 425.205 81.65 425.695 82.12 425.835C82.2 425.865 82.29 425.875 82.37 425.875C82.75 425.875 83.1 425.635 83.21 425.255C83.42 424.565 83.61 423.895 83.79 423.235C85.93 421.505 92.28 415.745 93.22 407.265Z" fill="#4B775E"/>
<path d="M82 387.135C83.26 388.495 86.32 384.095 88.46 385.375C90.6 386.655 88.67 389.755 89.37 391.725C90.06 393.705 93.8 394.075 93.21 397.705C92.63 401.345 88.09 400.865 85.26 400.645C82.43 400.435 81.04 402.245 80.02 405.025C79.01 407.805 74.52 408.555 72.87 405.395C71.21 402.245 73.35 397.975 69.72 398.775C66.08 399.575 64.27 394.875 68.38 392.635C72.49 390.395 73.19 391.355 73.83 387.245C74.47 383.125 77.67 383.185 79.38 384.035C81.09 384.895 81.3 386.385 82 387.135Z" fill="#5389A5"/>
<path d="M75 395.735C74.45 393.175 81.68 389.965 83.97 393.915C86.27 397.865 75.96 400.215 75 395.735Z" fill="#36697B"/>
<path d="M176.37 393.595C175.01 393.595 171.68 395.915 169.87 397.875C169.89 396.905 169.89 395.915 169.88 394.905C169.88 394.905 169.88 394.905 169.89 394.905C172.45 394.905 176.65 387.935 177.26 385.425C177.32 385.165 177.51 384.375 176.95 384.095C176.85 384.045 176.74 384.015 176.62 384.015C175.34 384.015 171.65 388.125 169.78 391.075C169.74 389.925 169.68 388.765 169.61 387.625C171.94 387.385 176.3 381.265 177.06 378.725C177.29 377.935 177.21 377.405 176.82 377.145C176.68 377.055 176.52 377.015 176.33 377.015C174.74 377.015 171.08 381.335 169.38 384.135C169.25 382.425 169.1 380.765 168.96 379.195C171.12 378.765 174.29 373.165 175.02 370.355C175.14 369.885 175.51 368.475 174.67 367.995C174.52 367.925 174.36 367.875 174.19 367.875C172.57 367.875 169.87 371.965 168.51 374.925C168 370.325 167.54 367.195 167.53 367.115C167.47 366.755 167.14 366.505 166.78 366.565C166.42 366.615 166.17 366.945 166.22 367.305C166.24 367.385 166.64 370.105 167.1 374.195C165.26 371.425 162.18 367.985 160.85 367.985C160.6 367.985 160.38 368.095 160.24 368.285C159.93 368.715 160.07 369.435 160.68 370.625C161.94 373.085 165.82 378.265 167.62 379.065C167.72 380.075 167.81 381.115 167.9 382.185C166.08 379.145 162.34 374.385 160.61 374.385C160.33 374.385 160.08 374.505 159.91 374.715C159.54 375.185 159.63 375.965 160.21 377.155C161.63 380.095 166.33 385.855 168.25 386.885C168.31 387.865 168.37 388.845 168.41 389.835C166.28 386.175 161.5 380.185 160.05 380.185C159.82 380.185 159.62 380.295 159.5 380.475C159.3 380.795 159.25 381.335 160.22 383.135C161.75 385.935 166.64 392.815 168.54 393.825C168.56 394.655 168.57 395.485 168.57 396.305C166.79 393.305 163 388.895 161.47 388.895C161.21 388.895 160.99 389.005 160.84 389.205C160.52 389.645 160.65 390.385 161.26 391.595C162.55 394.135 166.62 399.445 168.48 400.245C168.45 400.785 168.42 401.315 168.39 401.835C168.36 402.195 168.64 402.515 169 402.535C169.01 402.535 169.03 402.535 169.05 402.535C169.39 402.535 169.68 402.275 169.7 401.925C169.72 401.615 169.74 401.305 169.76 400.985C169.81 400.985 169.85 400.995 169.9 400.995C171.99 400.995 176.11 397.265 177.06 395.275C177.34 394.685 177.35 394.225 177.09 393.905C176.98 393.755 176.76 393.595 176.37 393.595Z" fill="#8FA380"/>
<path d="M172.09 359.105C171.09 358.715 169.03 361.835 167.73 364.845C167.62 360.405 166.25 352.795 164.83 353.175C163.38 353.565 164.62 361.525 165.92 365.595C163.98 362.695 160.94 359.665 160.34 360.495C159.5 361.655 164.88 368.875 166.8 369.845C166.83 369.885 166.87 369.925 166.91 369.955C168.75 371.285 173.85 359.795 172.09 359.105Z" fill="#EA8532"/>
<path d="M618.78 335.145C659.69 343.475 706.5 318.685 711.34 277.495C713.77 251.805 701.31 230.485 683.79 219.335C666.27 208.195 673.06 194.135 671.12 167.485C669.18 140.825 647.86 130.655 623.63 133.555C599.4 136.465 586.57 160.695 589.35 194.625C592.13 228.545 589.14 239.395 571.11 259.075C545.12 287.425 561.6 323.495 618.78 335.145Z" fill="#77937C"/>
<path d="M644.5 287.685C655.32 272.505 668.35 245.305 664.71 244.235C661.07 243.165 651.44 255.795 643.65 270.785C641.6 232.605 638.97 201.395 635.82 201.235C631.78 201.235 631.06 236.955 631.61 279.035C628.88 275.815 604.18 246.985 600.95 250.015C597.52 253.225 631.86 294.375 631.86 294.375C632.96 351.055 635.82 412.625 635.82 412.625C642.67 416.905 649.8 412.075 649.8 412.075C649.8 412.075 647.2 344.805 644.5 287.685Z" fill="#D19C89"/>
<path d="M627.74 301.745C627.34 301.745 626.94 301.615 626.6 301.345L613.15 290.435C612.37 289.805 612.25 288.665 612.88 287.885C613.51 287.105 614.66 286.975 615.44 287.615L628.89 298.515C629.67 299.145 629.79 300.295 629.15 301.075C628.8 301.515 628.27 301.745 627.74 301.745Z" fill="#4B775E"/>
<path d="M628.11 318.465C627.73 318.465 627.34 318.345 627.02 318.105L619.75 312.655C618.94 312.045 618.78 310.905 619.38 310.105C619.99 309.305 621.12 309.145 621.93 309.745L629.2 315.195C630 315.795 630.16 316.935 629.56 317.735C629.2 318.215 628.66 318.465 628.11 318.465Z" fill="#4B775E"/>
<path d="M621.56 328.275C621.23 328.275 620.9 328.185 620.6 328.005L604.97 318.185C604.12 317.655 603.86 316.535 604.4 315.685C604.93 314.835 606.05 314.575 606.9 315.105L622.53 324.925C623.38 325.455 623.64 326.575 623.1 327.425C622.76 327.975 622.17 328.275 621.56 328.275Z" fill="#4B775E"/>
<path d="M615.39 308.285C615.06 308.285 614.73 308.205 614.43 308.015L595.53 296.385C594.68 295.865 594.41 294.745 594.94 293.885C595.46 293.035 596.58 292.765 597.44 293.295L616.34 304.925C617.19 305.455 617.46 306.565 616.93 307.425C616.59 307.985 615.99 308.285 615.39 308.285Z" fill="#4B775E"/>
<path d="M592.49 308.655C592.09 308.655 591.68 308.515 591.34 308.245L581.9 300.615C581.11 299.985 580.99 298.845 581.62 298.055C582.25 297.275 583.4 297.155 584.18 297.785L593.63 305.425C594.41 306.055 594.53 307.195 593.9 307.975C593.54 308.425 593.02 308.655 592.49 308.655Z" fill="#4B775E"/>
<path d="M604.48 283.935C603.93 283.935 603.39 283.685 603.03 283.215L593.95 271.225C593.34 270.425 593.5 269.285 594.3 268.675C595.1 268.075 596.24 268.225 596.84 269.025L605.93 281.025C606.54 281.825 606.38 282.965 605.58 283.565C605.25 283.815 604.87 283.935 604.48 283.935Z" fill="#4B775E"/>
<path d="M589.22 281.755C588.77 281.755 588.32 281.595 587.97 281.265L575.25 269.265C574.52 268.575 574.48 267.425 575.17 266.695C575.86 265.965 577.01 265.935 577.74 266.625L590.46 278.615C591.19 279.305 591.23 280.455 590.54 281.185C590.18 281.565 589.7 281.755 589.22 281.755Z" fill="#4B775E"/>
<path d="M579.77 290.475C579.49 290.475 579.22 290.415 578.95 290.285L570.96 286.285C570.06 285.845 569.7 284.745 570.14 283.855C570.59 282.955 571.68 282.585 572.58 283.035L580.58 287.035C581.48 287.485 581.84 288.575 581.39 289.475C581.07 290.115 580.43 290.475 579.77 290.475Z" fill="#4B775E"/>
<path d="M657.18 327.185C656.55 327.185 655.93 326.855 655.6 326.265C655.11 325.385 655.42 324.275 656.29 323.785L667.92 317.245C668.8 316.755 669.91 317.065 670.4 317.935C670.89 318.815 670.58 319.925 669.71 320.415L658.08 326.955C657.79 327.115 657.49 327.185 657.18 327.185Z" fill="#4B775E"/>
<path d="M661.18 312.655C660.58 312.655 659.98 312.345 659.64 311.795C659.11 310.945 659.37 309.825 660.22 309.285L676.58 299.115C677.43 298.585 678.55 298.845 679.08 299.695C679.61 300.545 679.35 301.665 678.5 302.195L662.14 312.375C661.84 312.565 661.51 312.655 661.18 312.655Z" fill="#4B775E"/>
<path d="M681.17 310.835C680.76 310.835 680.34 310.695 680 310.405C679.23 309.755 679.14 308.605 679.79 307.835L692.15 293.305C692.8 292.535 693.94 292.445 694.71 293.095C695.47 293.745 695.56 294.885 694.92 295.655L682.56 310.195C682.2 310.615 681.69 310.835 681.17 310.835Z" fill="#4B775E"/>
<path d="M656.09 299.925C655.61 299.925 655.12 299.735 654.76 299.345C654.08 298.615 654.12 297.465 654.86 296.775L665.03 287.325C665.77 286.645 666.92 286.685 667.6 287.425C668.28 288.165 668.24 289.305 667.51 289.995L657.33 299.445C656.98 299.765 656.54 299.925 656.09 299.925Z" fill="#4B775E"/>
<path d="M661.91 281.755C661.64 281.755 661.37 281.695 661.12 281.575C660.21 281.135 659.84 280.045 660.27 279.145L666.45 266.425C666.89 265.525 667.98 265.145 668.88 265.585C669.78 266.025 670.16 267.105 669.72 268.015L663.54 280.735C663.23 281.375 662.58 281.755 661.91 281.755Z" fill="#4B775E"/>
<path d="M675.36 290.845C675.05 290.845 674.75 290.765 674.46 290.605C673.59 290.115 673.28 289.005 673.77 288.135L681.77 273.955C682.26 273.085 683.37 272.775 684.25 273.265C685.12 273.765 685.43 274.865 684.94 275.745L676.94 289.915C676.61 290.505 675.99 290.845 675.36 290.845Z" fill="#4B775E"/>
<path d="M686.26 286.845C686.03 286.845 685.8 286.805 685.58 286.715C684.65 286.335 684.2 285.275 684.58 284.345L693.66 261.815C694.04 260.885 695.1 260.435 696.03 260.805C696.96 261.185 697.41 262.245 697.03 263.175L687.95 285.705C687.66 286.415 686.98 286.845 686.26 286.845Z" fill="#4B775E"/>
<path d="M697.17 285.755C696.98 285.755 696.79 285.725 696.61 285.665C695.65 285.365 695.13 284.335 695.43 283.385L698.71 273.205C699.01 272.245 700.04 271.725 700.99 272.025C701.95 272.335 702.47 273.365 702.17 274.315L698.89 284.495C698.65 285.265 697.93 285.755 697.17 285.755Z" fill="#4B775E"/>
<path d="M674.99 268.675C674.77 268.675 674.54 268.635 674.32 268.545C673.39 268.175 672.93 267.115 673.3 266.185L680.94 246.925C681.31 245.985 682.36 245.535 683.3 245.905C684.23 246.275 684.69 247.325 684.32 248.255L676.68 267.525C676.4 268.235 675.72 268.675 674.99 268.675Z" fill="#4B775E"/>
<path d="M688.08 255.955C687.83 255.955 687.59 255.905 687.35 255.795C686.43 255.395 686.01 254.325 686.41 253.405L691.5 241.775C691.9 240.855 692.98 240.435 693.9 240.835C694.81 241.235 695.23 242.315 694.83 243.235L689.74 254.865C689.44 255.545 688.78 255.955 688.08 255.955Z" fill="#4B775E"/>
<path d="M672.81 247.595C672.73 247.595 672.65 247.585 672.56 247.575C671.57 247.435 670.87 246.515 671.01 245.525L673.19 229.895C673.33 228.895 674.25 228.205 675.25 228.345C676.24 228.485 676.93 229.405 676.79 230.395L674.61 246.025C674.49 246.935 673.71 247.595 672.81 247.595Z" fill="#4B775E"/>
<path d="M652.46 245.775C652.33 245.775 652.19 245.755 652.05 245.725C651.07 245.505 650.46 244.525 650.69 243.555L654.69 226.105C654.91 225.125 655.88 224.515 656.86 224.735C657.84 224.965 658.45 225.935 658.23 226.915L654.23 244.365C654.04 245.205 653.29 245.775 652.46 245.775Z" fill="#4B775E"/>
<path d="M665.54 231.595C664.54 231.595 663.73 230.785 663.73 229.785V214.155C663.73 213.145 664.54 212.335 665.54 212.335C666.55 212.335 667.36 213.145 667.36 214.155V229.785C667.36 230.785 666.55 231.595 665.54 231.595Z" fill="#4B775E"/>
<path d="M660.82 201.795C660.74 201.795 660.65 201.785 660.57 201.775C659.58 201.645 658.88 200.725 659.02 199.725L661.56 181.195C661.7 180.195 662.62 179.505 663.61 179.635C664.6 179.775 665.3 180.695 665.16 181.685L662.62 200.225C662.49 201.135 661.71 201.795 660.82 201.795Z" fill="#4B775E"/>
<path d="M648.46 216.695C647.46 216.695 646.64 215.885 646.64 214.875C646.64 213.785 646.99 197.015 647.01 196.305C647.03 195.315 647.84 194.525 648.82 194.525C648.84 194.525 648.85 194.525 648.86 194.525C649.87 194.545 650.66 195.375 650.64 196.375C650.52 202.405 650.28 214.035 650.28 214.875C650.28 215.885 649.46 216.695 648.46 216.695Z" fill="#4B775E"/>
<path d="M661.54 170.175C660.75 170.175 660.03 169.655 659.8 168.855L656.16 156.135C655.89 155.165 656.45 154.165 657.41 153.885C658.38 153.615 659.38 154.165 659.66 155.135L663.29 167.855C663.57 168.825 663.01 169.825 662.05 170.105C661.88 170.155 661.71 170.175 661.54 170.175Z" fill="#4B775E"/>
<path d="M647.01 148.725C646.83 148.725 646.64 148.705 646.46 148.645L633.74 144.645C632.78 144.345 632.25 143.325 632.55 142.365C632.85 141.405 633.87 140.875 634.83 141.175L647.55 145.175C648.51 145.475 649.04 146.495 648.74 147.455C648.5 148.235 647.78 148.725 647.01 148.725Z" fill="#4B775E"/>
<path d="M609.21 156.365C608.75 156.365 608.29 156.195 607.94 155.845C607.22 155.145 607.2 153.995 607.9 153.275L619.9 140.925C620.6 140.205 621.75 140.185 622.47 140.885C623.19 141.585 623.2 142.735 622.5 143.455L610.51 155.805C610.15 156.175 609.68 156.365 609.21 156.365Z" fill="#4B775E"/>
<path d="M601.94 184.345C601.92 184.345 601.91 184.345 601.9 184.345C600.89 184.325 600.1 183.495 600.12 182.485L600.48 166.855C600.51 165.875 601.32 165.085 602.3 165.085C602.31 165.085 602.33 165.085 602.34 165.085C603.35 165.105 604.14 165.945 604.12 166.945L603.75 182.575C603.73 183.565 602.92 184.345 601.94 184.345Z" fill="#4B775E"/>
<path d="M648.82 179.255C647.96 179.255 647.19 178.635 647.03 177.755L644.13 161.035C643.95 160.045 644.62 159.105 645.61 158.935C646.6 158.765 647.54 159.425 647.71 160.415L650.62 177.135C650.79 178.115 650.12 179.065 649.14 179.235C649.03 179.255 648.93 179.255 648.82 179.255Z" fill="#4B775E"/>
<path d="M621.2 160.355C620.35 160.355 619.59 159.765 619.42 158.895C619.22 157.915 619.86 156.955 620.84 156.765L633.57 154.215C634.54 154.015 635.51 154.655 635.7 155.645C635.9 156.625 635.26 157.585 634.28 157.775L621.56 160.325C621.44 160.345 621.32 160.355 621.2 160.355Z" fill="#4B775E"/>
<path d="M595.4 263.585C594.93 263.585 594.46 263.405 594.11 263.045L586.84 255.785C586.13 255.075 586.13 253.925 586.84 253.215C587.55 252.505 588.7 252.505 589.41 253.215L596.68 260.485C597.39 261.185 597.39 262.345 596.68 263.045C596.33 263.405 595.86 263.585 595.4 263.585Z" fill="#4B775E"/>
<path d="M604.12 210.155C603.28 210.155 602.53 209.575 602.34 208.725L599.43 195.275C599.22 194.295 599.85 193.325 600.83 193.115C601.81 192.895 602.77 193.525 602.99 194.505L605.89 207.955C606.11 208.935 605.48 209.895 604.5 210.115C604.37 210.145 604.24 210.155 604.12 210.155Z" fill="#4B775E"/>
<path d="M625.56 215.965C624.91 215.965 624.28 215.615 623.95 214.995L616.32 200.455C615.85 199.565 616.2 198.475 617.08 198.005C617.97 197.535 619.07 197.885 619.54 198.765L627.17 213.305C627.64 214.195 627.3 215.295 626.41 215.765C626.14 215.905 625.85 215.965 625.56 215.965Z" fill="#4B775E"/>
<path d="M615.38 188.345C614.49 188.345 613.71 187.685 613.58 186.775L611.77 173.325C611.63 172.325 612.33 171.415 613.32 171.275C614.32 171.145 615.23 171.845 615.37 172.835L617.19 186.285C617.32 187.275 616.62 188.195 615.63 188.325C615.55 188.345 615.46 188.345 615.38 188.345Z" fill="#4B775E"/>
<path d="M641.56 187.625C640.9 187.625 640.27 187.265 639.95 186.655L633.04 173.565C632.57 172.675 632.91 171.575 633.8 171.105C634.69 170.645 635.79 170.985 636.26 171.865L643.16 184.955C643.63 185.845 643.29 186.945 642.4 187.405C642.13 187.555 641.84 187.625 641.56 187.625Z" fill="#4B775E"/>
<path d="M628.83 191.255C627.99 191.255 627.23 190.655 627.05 189.795L623.05 170.175C622.85 169.185 623.49 168.225 624.47 168.025C625.45 167.825 626.42 168.465 626.62 169.445L630.61 189.075C630.82 190.055 630.18 191.015 629.2 191.215C629.07 191.245 628.95 191.255 628.83 191.255Z" fill="#4B775E"/>
<path d="M643.29 420.255C641.7 420.545 639.74 398.525 644.09 382.855C648.44 367.185 659.3 356.545 663.53 358.725C667.76 360.895 660.31 373.705 654.37 386.285C648.44 398.865 645.8 419.795 643.29 420.255Z" fill="#4B775E"/>
<path d="M659.85 366.715C660.15 366.295 660.06 365.705 659.64 365.395C659.23 365.095 658.64 365.185 658.33 365.605C658.17 365.815 643.13 386.705 642.39 418.185C642.67 419.555 642.98 420.315 643.29 420.255C643.6 420.195 643.92 419.815 644.25 419.175C644.7 387.785 659.69 366.925 659.85 366.715Z" fill="#77937C"/>
<path d="M653.11 421.175C650.76 421.705 649.38 402.715 653.82 392.475C658.25 382.225 664.65 370.275 670.26 372.565C675.86 374.845 672.05 383.425 666.06 394.405C655.39 412.825 655.63 420.595 653.11 421.175Z" fill="#4B775E"/>
<path d="M653.11 421.175C653.45 421.095 653.73 420.885 654 420.545C652.97 405.645 666.74 380.825 666.88 380.565C667.14 380.115 666.98 379.545 666.52 379.285C666.07 379.035 665.5 379.195 665.24 379.655C664.66 380.685 651.38 404.625 652.1 420.105C652.4 420.865 652.74 421.255 653.11 421.175Z" fill="#77937C"/>
<path d="M664.1 422.085C661.44 421.975 661.34 405.845 665.45 398.865C669.57 391.895 677.12 388.345 682.61 390.635C688.1 392.915 688.56 401.495 684.9 404.585C681.24 407.675 680.44 399.325 673.92 404.015C667.4 408.705 666.86 422.205 664.1 422.085Z" fill="#4B775E"/>
<path d="M685.49 400.705C685.45 400.625 681.29 393.325 672.57 397.685C664.98 401.475 663.46 417.575 663.21 421.295C663.46 421.785 663.76 422.075 664.1 422.085C664.46 422.105 664.78 421.885 665.08 421.495C665.31 418.165 666.76 402.695 673.41 399.365C680.49 395.835 683.71 401.375 683.85 401.605C684.1 402.065 684.67 402.225 685.12 401.975C685.58 401.725 685.74 401.155 685.49 400.705Z" fill="#77937C"/>
<path d="M624.84 257.405C624.33 257.405 623.82 257.195 623.46 256.775L622.85 256.065C620.32 255.965 617.69 255.755 615.1 255.415C615.23 257.455 614.93 258.315 614.54 258.355C613.51 258.465 613.08 256.115 613.08 256.115C613.08 256.115 611.88 259.325 610.73 258.915C609.88 258.715 610.73 255.995 610.73 255.995C610.73 255.995 609.28 258.545 608.48 258.195C607.85 257.915 608.67 255.415 609.05 254.365C607.86 254.115 606.7 253.825 605.58 253.515C605.92 255.985 605.58 257.445 605.12 257.495C604.09 257.605 603.67 255.155 603.67 255.155C603.67 255.155 602.47 258.305 601.32 257.905C600.47 257.705 601.32 254.955 601.32 254.955C601.32 254.955 599.87 257.695 599.07 257.345C598.4 257.055 599.89 252.985 600.4 251.625C595.7 249.465 591.94 246.235 589.18 241.105C585.27 233.845 583.6 224.985 584.4 217.795C584.1 216.995 583.94 216.125 583.94 215.225C583.94 212.655 585.24 210.395 587.22 209.055C587.41 208.755 587.61 208.475 587.82 208.205C585.75 207.115 583.79 204.545 583.4 201.335C584.19 202.085 585.83 202.545 591.39 204.135C591.71 204.225 592.01 204.325 592.31 204.445C596.1 202.515 600.71 202.545 604.92 204.615C605.35 204.435 605.8 204.275 606.28 204.135C611.85 202.545 613.48 202.085 614.28 201.335C613.88 204.585 611.87 207.175 609.78 208.245C614.3 212.665 616.92 214.395 619.3 216.185C619.47 216.275 630.07 222.315 635.32 234.355C640.62 246.485 639.5 255.595 639.5 255.595C639.5 255.595 633.83 256.215 626.56 256.155C626.46 256.455 626.28 256.745 626.02 256.965C625.68 257.255 625.26 257.405 624.84 257.405Z" fill="#2B2A29"/>
<path d="M569.02 405.135C569.02 405.135 574.28 409.955 574.14 415.505C574.01 421.055 569.33 416.055 568.92 411.695C568.69 415.435 566.8 416.285 565.63 416.145C564.45 416.015 563.83 414.235 564.23 412.265C562.24 414.765 560.15 414.565 559.35 412.905C558.56 411.255 561.6 407.475 569.02 405.135Z" fill="#EA8532"/>
<path d="M561.73 396.235C561.67 396.095 561.69 395.945 561.77 395.825C561.85 395.695 562 395.625 562.14 395.635C567.2 395.825 570.45 398.995 571.46 400.135C571.58 400.045 571.71 399.965 571.84 399.905C573 399.275 574.28 399.245 575.55 399.805C575.74 399.885 575.93 399.985 576.11 400.095C575.25 397.935 574.33 394.585 575.66 392.085C575.74 391.945 575.88 391.855 576.04 391.855C576.2 391.855 576.34 391.935 576.42 392.075C578.24 395.175 578.09 399.975 577.98 401.545C579.81 403.355 581.4 406.105 582.6 409.175C582.77 406.235 583.6 402.095 586.55 398.955C586.67 398.825 586.84 398.785 587.01 398.835C587.17 398.895 587.28 399.035 587.3 399.205C588.1 406.145 584.78 411.255 583.75 412.665C584.1 413.965 584.38 415.275 584.58 416.565C585.42 414.135 587.12 410.905 590.45 409.145C590.59 409.065 590.76 409.075 590.9 409.165C591.03 409.255 591.11 409.405 591.09 409.565C590.53 415.705 586.28 418.955 584.88 419.875C584.92 421.095 584.85 422.255 584.67 423.285C584.63 423.555 584.42 423.755 584.18 423.815C584.09 423.835 584 423.835 583.92 423.825C583.56 423.765 583.32 423.425 583.38 423.065C583.54 422.155 583.6 421.165 583.59 420.115C582 419.865 577.81 418.855 576.25 415.045C576.19 414.905 576.22 414.735 576.31 414.615C576.41 414.485 576.56 414.425 576.72 414.445C580.05 414.945 582.24 416.695 583.45 418.015C583.27 416.405 582.94 414.725 582.47 413.075C580.65 412.665 574.99 411.095 572.99 407.005C572.92 406.875 572.93 406.715 573.01 406.585C573.09 406.455 573.23 406.375 573.38 406.375C577.01 406.355 579.77 408.345 581.49 410.065C579.85 405.745 577.44 402.075 575.02 401.005C574.11 400.595 573.27 400.615 572.46 401.055C570.95 401.865 569.87 403.955 569.54 405.645C569.94 406.065 570.52 406.715 571.14 407.545C569.34 409.805 566.09 409.545 565.78 406.365C566.54 406.025 567.37 405.695 568.26 405.385C568.53 403.995 569.25 402.325 570.35 401.105C568.14 400.775 563.13 399.655 561.73 396.235Z" fill="#77937C"/>
<path fill-rule="evenodd" clip-rule="evenodd" d="M264.61 176.205C264.86 173.475 266.26 174.735 266.01 178.185C265.76 181.635 263.17 191.905 258.82 198.715C254.47 205.535 249.36 212.225 246.99 214.635C244.62 217.045 243.79 217.215 248.11 216.935C252.42 216.645 260.65 211.685 263.1 206.005C263.89 204.105 264.83 203.595 264.31 207.515C263.78 211.435 256.84 218.225 251.63 220.855C246.42 223.475 237.11 223.295 233.42 223.795C229.75 224.305 224.95 226.515 223.28 229.095C223.8 230.335 224.27 231.625 224.63 232.875L224.55 232.465C226.93 229.535 232.22 225.975 241.11 227.695C241.11 228.435 241.01 229.165 240.82 229.875C239.27 235.655 231.98 239.905 225.26 235.775C225.29 236.035 225.32 236.295 225.33 236.535C225.46 238.495 225.21 240.315 224.73 242.255C224.73 242.255 227 250.245 228.73 257.685C228.73 257.685 228.73 257.685 228.73 257.695C231 258.335 249.44 256.815 262.06 255.625C274.67 254.445 289.88 254.445 300.77 257.895C303.99 258.915 306.94 260.165 309.55 261.705C315.78 265.375 320.05 270.645 321.27 278.175C322.99 288.845 319.98 286.365 317.61 283.565C316.97 282.805 316.33 281.675 315.74 280.425C315.74 280.435 315.74 280.445 315.74 280.445C315.64 281.905 315.58 283.315 315.54 284.695C314.75 316.765 330.21 328.175 330.21 328.175L315.76 379.695H308.71H306.73H302.17C302.17 379.695 303.46 374.305 311.71 369.675C311.73 369.665 311.75 369.655 311.77 369.645C313.28 362.525 314.04 332.635 314.04 332.635C314.04 332.635 310.58 331.585 305.94 328.435C306.07 328.735 306.14 328.895 306.14 328.895C303.95 339.785 295.38 374.655 295.38 374.655H281.68C281.68 374.655 284.7 367.285 290.52 365.025C290.85 349.275 290.96 331.135 290.96 331.135C290.96 331.135 278.42 315.655 275.74 306.575C275.74 306.575 275.74 306.565 275.74 306.555C268.25 307.615 259.88 309.295 244.16 310.425C239.27 310.775 234.95 310.805 231.09 310.505L226.68 335.545C226.68 335.545 227.97 338.345 227.54 341.145C227.11 343.955 225.17 346.245 225.17 346.245L222.37 378.515H216.67H214.7H210.29C210.29 378.515 211.67 375.265 215.63 371.705C213.23 371.705 207.31 371.705 203.6 371.705C204.46 367.755 210.29 363.275 210.29 363.275L207.7 332.925C207.7 332.925 205.05 331.875 204.67 327.775C204.29 323.685 206.07 321.365 206.07 321.365L201.59 293.645C201.59 293.645 201.63 293.655 201.71 293.675C201.12 292.865 200.52 292.015 199.92 291.135C195.33 284.365 194.37 275.425 194.9 266.825C195.33 259.805 196.75 253.015 198 247.815C198.6 245.315 199.16 243.185 199.55 241.575C199.18 239.885 199 238.265 199.11 236.535C199.12 236.295 199.15 236.035 199.18 235.775C192.46 239.905 185.17 235.655 183.63 229.875C183.44 229.165 183.33 228.435 183.33 227.695C192.22 225.975 197.51 229.535 199.9 232.465L199.81 232.865C200.17 231.625 200.64 230.345 201.16 229.105C199.5 226.525 194.69 224.305 191.01 223.795C187.32 223.295 178.01 223.475 172.8 220.855C167.59 218.225 160.65 211.435 160.12 207.515C159.59 203.595 160.54 204.105 161.33 206.005C163.78 211.685 172.01 216.645 176.32 216.935C180.64 217.215 179.81 217.045 177.44 214.635C175.06 212.225 169.96 205.535 165.61 198.715C161.26 191.905 158.67 181.635 158.42 178.185C158.17 174.735 159.57 173.475 159.82 176.205C160.29 181.665 164.75 187.315 165.5 187.345C166.26 187.385 166.69 185.115 167.23 181.815C167.77 178.505 168.27 175.305 169.09 175.375C169.91 175.445 169.42 178.645 169.13 183.685C168.85 188.715 170.1 194.145 171.04 194.175C171.97 194.215 173.12 191.485 174.1 188.965C175.07 186.445 176.21 183.685 176.68 183.895C177.15 184.115 177.4 185.725 175.53 191.155C173.66 196.585 173.91 200.905 174.63 204.315C175.35 207.725 181.68 214.455 184.7 216.715C187.72 218.985 188.51 218.945 185.7 215.895C182.9 212.835 180.85 207.725 180.78 204.425C180.71 201.115 181.46 201.545 181.89 203.275C183.98 210.825 189.37 214.735 192.86 216.425C196.35 218.115 195.77 216.965 194.44 213.485C193.11 209.995 193.33 205.785 193.94 203.995C194.55 202.195 196.06 201.115 195.7 202.985C195.34 204.855 195.23 207.245 197.06 212.585C198.7 217.355 203.67 221.685 204.72 222.565C207.22 222.925 209.74 224.245 212.22 224.245C214.7 224.245 217.21 222.935 219.71 222.565C220.75 221.695 225.73 217.355 227.36 212.585C229.2 207.245 229.09 204.855 228.73 202.985C228.37 201.115 229.88 202.195 230.49 203.995C231.1 205.785 231.32 209.995 229.99 213.485C228.66 216.965 228.08 218.115 231.57 216.425C235.06 214.735 240.45 210.825 242.53 203.275C242.97 201.545 243.72 201.115 243.65 204.425C243.58 207.725 241.53 212.835 238.72 215.895C235.92 218.945 236.71 218.985 239.73 216.715C242.75 214.455 249.08 207.725 249.8 204.315C250.51 200.905 250.77 196.585 248.9 191.155C247.03 185.725 247.28 184.115 247.75 183.895C248.21 183.685 249.36 186.445 250.33 188.965C251.3 191.485 252.46 194.215 253.39 194.175C254.32 194.145 255.58 188.715 255.3 183.685C255.01 178.645 254.52 175.445 255.34 175.375C256.16 175.305 256.66 178.505 257.2 181.815C257.74 185.115 258.17 187.385 258.93 187.345C259.68 187.315 264.14 181.665 264.61 176.205Z" fill="#2B2A29"/>
<path fill-rule="evenodd" clip-rule="evenodd" d="M449.29 273.775C449.43 273.665 449.64 273.685 449.76 273.835C449.87 273.975 449.85 274.185 449.71 274.305C449.5 274.465 449.35 274.655 449.25 274.805C449.28 274.825 449.3 274.845 449.33 274.865C450.25 275.565 450.58 276.485 449.83 277.545C449.72 277.705 449.54 277.785 449.31 277.805C448.6 279.015 446.96 279.685 446.41 279.265C445.85 278.835 445.43 278.105 445.9 276.795C445.83 276.775 445.75 276.765 445.67 276.755C445.34 276.735 445.01 276.825 444.8 277.075C444.51 277.425 443.87 278.365 443.03 279.285C442.53 279.845 441.98 280.375 441.32 280.795C441.28 280.815 441.24 280.845 441.2 280.875C440.71 281.175 440.19 281.385 439.65 281.525C439.46 281.575 439.26 281.625 439.04 281.655C438.8 281.695 438.55 281.725 438.31 281.735C437.95 281.755 437.6 281.755 437.27 281.725H437.26C437.07 281.705 436.89 281.675 436.72 281.645C436.75 281.805 436.77 281.965 436.78 282.135C437.01 285.225 435.47 289.815 430.72 291.535C430.69 291.545 430.66 291.555 430.62 291.565C434.11 291.505 436.08 291.885 437.19 292.365C430.83 293.435 423.56 293.915 417.12 293.425L416.52 293.505C415.97 293.425 415.39 293.325 414.82 293.205C414.73 293.195 414.64 293.185 414.55 293.175C412.59 292.745 410.63 292.125 409.16 291.315C405.89 289.525 402.88 285.545 402.1 277.645C401.97 279.955 401.25 281.775 400.17 283.115C397.79 286.055 393.62 286.675 389.9 285.045C384.93 282.865 381.47 275.845 385.79 268.505C386.18 267.825 386.64 267.155 387.17 266.485C393.49 258.455 403.31 260.165 408.3 263.705C413.29 267.235 413.57 272.915 413.35 278.795C413.47 277.575 413.78 276.415 414.32 275.355C414.56 274.895 414.81 274.465 415.08 274.075C418.14 269.525 423.13 268.905 427.29 268.815C429.85 268.755 431.44 268.175 432.58 267.365C433.42 266.765 434.03 266.035 434.65 265.265C434.66 265.245 434.68 265.225 434.7 265.205C435.25 264.495 435.78 263.785 436.48 263.155C436.83 262.835 437.21 262.545 437.66 262.285C437.65 262.295 437.64 262.305 437.63 262.315C437.99 262.115 438.38 261.925 438.83 261.775C439.04 260.095 439.43 257.935 440.08 257.935C440.72 257.935 441.39 259.915 441.81 261.485C443.95 261.865 446.07 263.525 446.98 266.445C447.77 268.965 448.03 270.595 447.53 271.525C447.4 271.775 447.22 271.965 446.98 272.115C446.71 272.295 446.36 272.405 445.93 272.465C443.69 272.775 440.81 270.935 440.81 270.935C440.77 271.035 439.84 273.795 441.72 274.545C443.75 275.345 445.15 273.905 446.64 274.635C447.28 274.215 448.02 274.235 448.66 274.485C448.78 274.285 448.99 274.015 449.29 273.775Z" fill="#2B2A29"/>
<path fill-rule="evenodd" clip-rule="evenodd" d="M158.79 396.175C168.22 399.915 175.7 403.385 180.06 403.915C179.71 404.925 179.4 405.905 179.14 406.815C179.92 405.625 180.53 405.015 180.58 404.965C180.81 404.735 181.18 404.735 181.41 404.965C181.64 405.195 181.64 405.565 181.41 405.795C181.39 405.815 179.43 407.815 178.02 411.635C178 411.695 177.98 411.745 177.94 411.785C177.87 412.165 177.84 412.375 177.84 412.375C177.84 412.375 180.06 418.155 183.09 419.845C184.65 420.715 186.34 421.075 187.71 421.325C189 421.575 190 421.735 190.3 422.165C190.59 422.575 190.01 423.655 188.8 424.935C187.38 426.445 185.08 428.215 182.29 429.465C179.81 430.575 175 432.015 167.98 433.165L167.47 436.315C167.39 436.765 167 437.095 166.55 437.095C166.5 437.095 166.45 437.095 166.4 437.085C165.89 437.005 165.54 436.525 165.62 436.015L166.04 433.465C164.98 433.615 163.88 433.765 162.73 433.905V436.455C162.73 436.965 162.43 437.385 161.91 437.385C161.39 437.385 161.09 436.965 161.09 436.455V434.095C157.83 434.455 154.25 434.735 150.33 434.915C146.39 435.095 142.12 435.155 137.51 435.075C135.12 435.075 132.93 434.985 130.96 434.855L131.47 436.985C131.59 437.485 131.28 437.995 130.78 438.115C130.7 438.125 130.63 438.135 130.56 438.135C130.14 438.135 129.75 437.845 129.65 437.415L129 434.705C128.67 434.685 128.35 434.655 128.04 434.625L128.8 437.785C128.92 438.285 128.61 438.795 128.11 438.915C128.03 438.925 127.96 438.935 127.89 438.935C127.47 438.935 127.08 438.645 126.98 438.225L126.07 434.405C122.18 433.935 119.98 433.385 119.98 433.385C119.98 433.385 118.45 430.725 117.53 426.635C117.32 426.485 117.24 426.205 117.34 425.945C117.35 425.925 117.36 425.905 117.37 425.885C116.34 420.705 116.4 413.495 121.4 406.495C130.75 393.415 149.35 392.435 158.79 396.175Z" fill="#2B2A29"/>
<path fill-rule="evenodd" clip-rule="evenodd" d="M609.15 376.185C612.06 377.425 618.32 379.575 622.1 385.415C625.87 391.235 627.73 399.685 628.02 403.185V403.195C631.46 403.145 633.18 404.965 633.33 406.945C625.16 406.945 598.97 406.945 598.97 406.945C598.97 406.945 599.78 402.195 609.1 403.145C607.11 401.055 605.18 398.545 604.28 396.045C604.28 396.045 604.28 396.035 604.27 396.035L603.39 395.275C600.59 403.055 596.86 406.945 596.86 406.945C596.86 406.945 595.01 406.945 591.67 406.945C591.67 406.435 591.79 406.015 591.98 405.685C591.37 405.685 590.67 405.685 589.89 405.685C589.89 403.045 593.12 402.945 593.12 402.945C593.12 402.945 594.34 399.415 595.08 395.235C595.67 391.965 596.48 387.115 596.34 383.905C596.34 383.895 596.34 383.895 596.34 383.885C596.04 380.265 596.29 376.235 596.29 376.225C596.29 376.225 589.45 375.555 589.1 373.165C588.76 370.945 590.9 367.625 595.01 365.765C595.44 365.565 595.87 365.395 596.29 365.265C597.15 364.775 596.81 357.225 596.29 351.865C595.78 346.515 595.56 345.875 595.56 345.875C595.56 345.875 597.77 345.275 599.16 349.165C600.55 353.045 600.18 358.685 599.16 363.025C598.84 364.265 599.13 364.805 599.57 364.875C599.6 364.875 599.63 364.885 599.65 364.885C600.4 363.845 599.84 360.855 600.11 356.775C600.45 351.805 601.98 345.885 604.03 346.075C606.09 346.265 606.71 354.965 604.8 359.165C603.26 362.545 602.34 364.565 602.41 365.995C603.21 366.615 603.88 367.485 604.39 368.615C604.43 368.715 604.47 368.815 604.52 368.915C606.07 372.745 606.22 374.665 608.59 375.915C608.76 376.005 608.95 376.095 609.15 376.185Z" fill="#2B2A29"/>
<path fill-rule="evenodd" clip-rule="evenodd" d="M537.8 368.555C539.79 368.965 541.93 369.695 544.43 370.775C549.12 372.995 551.18 373.585 554.09 373.725C554.74 373.755 555.44 373.765 556.22 373.765C556.63 374.395 556.9 374.985 556.95 375.545C557.03 376.475 556.5 377.295 554.98 377.935C553.38 378.615 547.78 380.425 542.13 383.745C541.98 383.835 541.82 383.925 541.67 384.015C541.66 384.015 541.66 384.025 541.65 384.025C538.94 385.655 536.25 387.635 534 390.005C528.42 395.865 523.56 401.555 519.9 406.845C519.91 406.835 519.92 406.835 519.92 406.835C517.56 415.085 514.19 428.475 516.46 439.155C518.65 441.125 519.9 443.915 519.9 443.915H511.56C512.35 444.685 513.06 445.675 513.61 446.545C513.61 446.545 513.61 446.545 513.62 446.545C514.44 447.675 514.78 448.615 514.78 448.615H514.77H499.5H499.48C499.48 448.615 499.42 448.325 499.31 447.825L494.42 427.495C489.13 427.885 480.83 428.495 472.27 428.545L469.5 440.165C469.5 440.165 473.09 442.635 473.82 444.405C462.27 444.975 458.02 444.985 457.08 441.035C456.24 437.475 456.92 429.395 457.06 427.885C456.35 427.805 455.64 427.715 454.95 427.615C452.61 434.775 452.69 443.425 452.69 443.425C452.69 443.425 453.92 444.395 454.99 445.615C455.03 445.615 455.05 445.615 455.06 445.615C455.6 446.255 456.1 446.965 456.34 447.625C456.34 447.625 456.33 447.625 456.32 447.625C456.33 447.645 456.34 447.665 456.34 447.685C450.64 447.755 446.03 447.355 443.11 446.925C440.18 446.485 438.57 444.635 438.35 439.665V439.655C438.19 435.915 437.74 429.025 437.74 423.365C437.74 421.475 437.79 419.725 437.92 418.265C437.92 418.265 435.36 423.625 432.25 422.785C430.75 422.235 434.26 410.895 436.45 406.315C437.01 405.155 437.87 403.495 439.2 401.625C443.12 396.075 451.09 388.635 467.12 386.665C488.56 384.035 502.21 384.125 517.42 374.965C517.48 374.935 517.53 374.905 517.58 374.875C516.81 374.185 516.22 373.255 516.01 372.015C518.79 371.315 521.31 371.425 523.14 371.715C525.3 370.565 527.21 369.705 528.98 369.115C528.98 369.115 528 368.285 527.56 366.305C532.31 365.505 537.8 368.555 537.8 368.555Z" fill="#2B2A29"/>
<path fill-rule="evenodd" clip-rule="evenodd" d="M368.63 383.145C370.54 383.045 375.53 387.965 377.43 391.795C381.03 389.295 384.82 388.695 387.93 388.695C391.06 388.695 394.85 389.295 398.44 391.795C400.34 387.965 405.33 383.045 407.24 383.145C409.24 383.235 408.86 392.725 405.44 400.315C409.71 401.935 412.75 401.745 412.75 401.745C412.75 401.745 413.17 408.005 407.97 413.055C403.61 423.765 395.77 431.605 387.17 441.985C382.94 447.075 379.97 451.555 378.25 456.085C376.46 460.785 376.01 465.545 376.91 471.085C378.69 481.975 381.82 485.925 380.87 487.535C379.81 489.335 373.09 487.235 369.67 478.065C365.66 467.315 363.52 458.305 361.51 455.585C361.53 455.615 361.54 455.635 361.55 455.655C359.42 463.055 359.61 476.905 360.46 479.945C361.32 482.985 363.89 485.925 360.71 485.925C357.52 485.925 352.78 480.325 350.69 472.825C348.6 465.335 346.06 455.555 346.05 455.525C343.31 455.715 340.59 455.765 338.26 455.455C330.28 454.415 326.68 452.895 323.17 455.175C322.06 455.895 321.16 456.915 320.45 458.085C318.9 460.645 318.27 463.905 318.52 466.185C318.89 469.505 320.98 480.795 322.31 484.315C323.64 487.825 327.53 489.625 327.15 491.335C326.77 493.045 322.5 493.705 316.52 487.725C310.54 481.745 305.7 470.455 303.62 462.675C302.88 459.925 302.06 457.115 301.29 454.425C301.29 454.445 301.29 454.445 301.29 454.445C298.96 463.875 296.81 479.185 298.58 483.865C300.36 488.545 296.31 488.175 292.38 483.865C289.57 480.785 287.99 471.975 287.32 467.235C287.07 465.485 286.95 464.295 286.93 464.135C277.84 474.925 259.21 482.495 244.96 477.105C229.4 471.225 229.97 454.705 229.97 454.705C229.97 454.705 244.31 458.245 254.83 452.795C279.78 439.865 286.06 421.525 305.13 416.585C324.21 411.655 346.7 411.345 363.31 404.385H363.32C363.05 402.795 363.12 401.745 363.12 401.745C363.12 401.745 366.16 401.935 370.43 400.315C367.01 392.725 366.63 383.235 368.63 383.145Z" fill="#2B2A29" stroke="#2B2A29" stroke-width="0.77" stroke-miterlimit="22.9256"/>
</svg>
