<svg width="44" height="36" viewBox="0 0 44 36" fill="none" xmlns="http://www.w3.org/2000/svg">
<path d="M6.34995 1.785C5.73995 2.275 5.26993 2.925 4.95993 3.685C4.95993 3.685 1.65994 4.64499 0.559937 5.62499C2.47994 7.01499 4.62994 7.095 4.62994 7.095C4.72994 9.115 2.92995 10.895 1.97995 13.305C0.98995 15.805 -0.270068 22.055 5.17993 25.045C7.18993 26.145 9.04995 26.755 10.8199 27.045L8.08994 31.235C7.79994 31.675 7.92992 32.255 8.35992 32.545C8.51992 32.655 8.69994 32.705 8.87994 32.705C9.18994 32.705 9.48993 32.545 9.67993 32.275L12.95 27.255C13.54 27.275 14.1299 27.275 14.7099 27.245L11.67 31.285C11.36 31.705 11.4399 32.305 11.8599 32.615C12.0299 32.745 12.2299 32.805 12.4299 32.805C12.7199 32.805 12.9999 32.675 13.1899 32.425L17.2599 26.995C17.9999 26.895 18.7399 26.775 19.4799 26.655C23.9699 25.925 31.7 26.795 35.95 29.605C40.59 35.235 41.7199 35.515 43.0199 35.545C41.4299 33.465 39.1599 30.235 36.7899 27.025L36.6799 26.865L36.64 26.815L36.5699 26.715L36.4599 26.565L36.42 26.525L36.3399 26.415L35.8999 25.815L35.7799 25.665V25.655L35.67 25.515L35.5599 25.375V25.365L35.3499 25.085L35.3399 25.065L35.2199 24.925L35.1299 24.805L35.1099 24.775L34.9999 24.625L34.92 24.515L34.89 24.475L34.7799 24.335L34.7 24.235L34.6599 24.185L34.5499 24.035L34.4899 23.955L34.4399 23.895L34.3299 23.745L34.2199 23.605L34.1099 23.465L34.0599 23.405L33.9899 23.315L33.8799 23.175L33.8499 23.125L33.7699 23.035L33.6599 22.895L33.6299 22.855L33.5499 22.755L33.4399 22.615L33.42 22.595L33.3299 22.475L33.2199 22.335L33.2099 22.325L33.1099 22.205L32.9999 22.065L32.89 21.935L32.5699 21.535L32.4599 21.405L32.3799 21.295L32.3599 21.275L32.2499 21.145L32.14 21.015L32.0399 20.885L31.9699 20.805L31.9299 20.765L31.8199 20.635L31.7199 20.515L31.6199 20.395L31.5699 20.335L31.5099 20.275L31.4099 20.155L31.3699 20.105L31.3099 20.035L31.2 19.915L31.17 19.885L31.0999 19.805L30.9999 19.685L30.9799 19.665L30.8999 19.575L30.7999 19.465L30.7799 19.445L30.7 19.355L30.5999 19.245L30.5899 19.235L30.4999 19.135L30.3999 19.035C26.3999 14.745 22.8099 11.235 19.5799 8.595L19.4299 8.47499L19.2799 8.355L19.1799 8.275L19.14 8.245L19.1299 8.235L19.0799 8.19499L19.0499 8.165L19.0299 8.15499L18.9999 8.12499L18.9899 8.115L18.9399 8.075L18.9099 8.055L18.89 8.045L18.8699 8.01499L18.8499 8.005L18.7999 7.965L18.7899 7.955L18.7599 7.925L18.7299 7.90499L18.7099 7.895L18.67 7.855H18.6599L18.5999 7.805L18.5799 7.785L18.5399 7.755L18.4899 7.715L18.4799 7.705L18.45 7.685L18.42 7.65499L18.4099 7.645L18.3699 7.615L18.3199 7.575L18.2999 7.565L18.2799 7.545L18.2399 7.51499L18.2299 7.505L18.2 7.485L18.1899 7.465L18.1599 7.44499L18.1199 7.415H18.1099L18.0799 7.385V7.37499L18.0399 7.355L17.9999 7.325L17.9699 7.295H17.9599L17.9299 7.255L17.89 7.22499L17.8599 7.205L17.8499 7.19499L17.8099 7.165L17.7799 7.145L17.7599 7.12499L17.7399 7.115L17.7 7.08499L17.67 7.055L17.6599 7.045L17.6299 7.025L17.5999 6.995L17.5699 6.97499L17.5599 6.965L17.5299 6.94499L17.4899 6.915L17.4699 6.895L17.4599 6.885L17.42 6.855L17.39 6.83499L17.3699 6.815L17.3599 6.805L17.3199 6.775L17.2899 6.755L17.2799 6.735L17.2599 6.72499L17.2299 6.705L17.2 6.675L17.1899 6.665H17.1799L17.17 6.65499L17.1299 6.62499L17.0999 6.605V6.595H17.0899L17.0699 6.575L17.0399 6.555L17.0199 6.535L17.0099 6.525H16.9999L16.9599 6.485L16.92 6.455L16.8999 6.435L16.8499 6.395L16.8399 6.385L16.7899 6.355L16.7499 6.325C15.7899 5.545 15.31 5.135 14.92 4.665L14.8999 4.635L14.8799 4.605L14.8699 4.595L14.8599 4.58499L14.8399 4.55499C13.5899 2.95499 11.9599 0.765 8.93994 0.865L8.79993 0.874995H8.78995L8.66995 0.884997H8.65994H8.64993L8.53995 0.894999H8.51993L8.48993 0.904993L8.40994 0.914995H8.37994L8.26993 0.935H8.24994L8.23993 0.944994L8.15994 0.954996L8.11993 0.964999H8.10992L7.98993 0.994997L7.86993 1.025H7.85992L7.74994 1.05499L7.73993 1.065H7.72995L7.62994 1.095L7.61993 1.105H7.58994L7.51993 1.135L7.49994 1.145H7.48993C7.37993 1.185 7.25993 1.235 7.14993 1.285L7.07993 1.325L7.03995 1.345L6.99994 1.355L6.92993 1.395V1.40499L6.82993 1.455L6.81995 1.465L6.79993 1.47499L6.72995 1.51499L6.70993 1.525L6.66995 1.55499L6.60992 1.595L6.59995 1.605L6.53995 1.645L6.46994 1.685V1.69499L6.40994 1.735L6.34995 1.785Z" fill="#261918"/>
</svg>
