<svg width="173" height="206" viewBox="0 0 173 206" fill="none" xmlns="http://www.w3.org/2000/svg">
<path fill-rule="evenodd" clip-rule="evenodd" d="M106.61 2.20502C106.86 -0.524981 108.26 0.735014 108.01 4.18501C107.76 7.63501 105.17 17.905 100.82 24.715C96.47 31.535 91.36 38.225 88.99 40.635C86.62 43.045 85.79 43.215 90.11 42.935C94.42 42.645 102.65 37.685 105.1 32.005C105.89 30.105 106.83 29.595 106.31 33.515C105.78 37.435 98.84 44.225 93.63 46.855C88.42 49.475 79.11 49.295 75.42 49.795C71.75 50.305 66.95 52.515 65.28 55.095C65.8 56.335 66.27 57.625 66.63 58.875L66.55 58.465C68.93 55.535 74.22 51.975 83.11 53.695C83.11 54.435 83.01 55.165 82.82 55.875C81.27 61.655 73.98 65.905 67.26 61.775C67.29 62.035 67.32 62.295 67.33 62.535C67.46 64.495 67.21 66.315 66.73 68.255C66.73 68.255 69 76.245 70.73 83.685C70.73 83.685 70.73 83.685 70.73 83.695C73 84.335 91.44 82.815 104.06 81.625C116.67 80.445 131.88 80.445 142.77 83.895C145.99 84.915 148.94 86.165 151.55 87.705C157.78 91.375 162.05 96.645 163.27 104.175C164.99 114.845 161.98 112.365 159.61 109.565C158.97 108.805 158.33 107.675 157.74 106.425C157.74 106.435 157.74 106.445 157.74 106.445C157.64 107.905 157.58 109.315 157.54 110.695C156.75 142.765 172.21 154.175 172.21 154.175L157.76 205.695H150.71H148.73H144.17C144.17 205.695 145.46 200.305 153.71 195.675C153.73 195.665 153.75 195.655 153.77 195.645C155.28 188.525 156.04 158.635 156.04 158.635C156.04 158.635 152.58 157.585 147.94 154.435C148.07 154.735 148.14 154.895 148.14 154.895C145.95 165.785 137.38 200.655 137.38 200.655H123.68C123.68 200.655 126.7 193.285 132.52 191.025C132.85 175.275 132.96 157.135 132.96 157.135C132.96 157.135 120.42 141.655 117.74 132.575C117.74 132.575 117.74 132.565 117.74 132.555C110.25 133.615 101.88 135.295 86.16 136.425C81.27 136.775 76.95 136.805 73.09 136.505L68.68 161.545C68.68 161.545 69.97 164.345 69.54 167.145C69.11 169.955 67.17 172.245 67.17 172.245L64.37 204.515H58.67H56.7H52.29C52.29 204.515 53.67 201.265 57.63 197.705C55.23 197.705 49.31 197.705 45.6 197.705C46.46 193.755 52.29 189.275 52.29 189.275L49.7 158.925C49.7 158.925 47.05 157.875 46.67 153.775C46.29 149.685 48.07 147.365 48.07 147.365L43.59 119.645C43.59 119.645 43.63 119.655 43.71 119.675C43.12 118.865 42.52 118.015 41.92 117.135C37.33 110.365 36.37 101.425 36.9 92.825C37.33 85.805 38.75 79.015 40 73.815C40.6 71.315 41.16 69.185 41.55 67.575C41.18 65.885 41 64.265 41.11 62.535C41.12 62.295 41.15 62.035 41.18 61.775C34.46 65.905 27.17 61.655 25.63 55.875C25.44 55.165 25.33 54.435 25.33 53.695C34.22 51.975 39.51 55.535 41.9 58.465L41.81 58.865C42.17 57.625 42.64 56.345 43.16 55.105C41.5 52.525 36.69 50.305 33.01 49.795C29.32 49.295 20.01 49.475 14.8 46.855C9.59002 44.225 2.65002 37.435 2.12002 33.515C1.59002 29.595 2.54002 30.105 3.33002 32.005C5.78002 37.685 14.01 42.645 18.32 42.935C22.64 43.215 21.81 43.045 19.44 40.635C17.06 38.225 11.96 31.535 7.61002 24.715C3.26002 17.905 0.67002 7.63501 0.42002 4.18501C0.17002 0.735014 1.57003 -0.524981 1.82003 2.20502C2.29003 7.66502 6.75002 13.315 7.50002 13.345C8.26002 13.385 8.69002 11.115 9.23002 7.815C9.77002 4.505 10.27 1.30502 11.09 1.37502C11.91 1.44502 11.42 4.64501 11.13 9.68501C10.85 14.715 12.1 20.145 13.04 20.175C13.97 20.215 15.12 17.485 16.1 14.965C17.07 12.445 18.21 9.68501 18.68 9.89501C19.15 10.115 19.4 11.725 17.53 17.155C15.66 22.585 15.91 26.905 16.63 30.315C17.35 33.725 23.68 40.455 26.7 42.715C29.72 44.985 30.51 44.945 27.7 41.895C24.9 38.835 22.85 33.725 22.78 30.425C22.71 27.115 23.46 27.545 23.89 29.275C25.98 36.825 31.37 40.735 34.86 42.425C38.35 44.115 37.77 42.965 36.44 39.485C35.11 35.995 35.33 31.785 35.94 29.995C36.55 28.195 38.06 27.115 37.7 28.985C37.34 30.855 37.23 33.245 39.06 38.585C40.7 43.355 45.67 47.685 46.72 48.565C49.22 48.925 51.74 50.245 54.22 50.245C56.7 50.245 59.21 48.935 61.71 48.565C62.75 47.695 67.73 43.355 69.36 38.585C71.2 33.245 71.09 30.855 70.73 28.985C70.37 27.115 71.88 28.195 72.49 29.995C73.1 31.785 73.32 35.995 71.99 39.485C70.66 42.965 70.08 44.115 73.57 42.425C77.06 40.735 82.45 36.825 84.53 29.275C84.97 27.545 85.72 27.115 85.65 30.425C85.58 33.725 83.53 38.835 80.72 41.895C77.92 44.945 78.71 44.985 81.73 42.715C84.75 40.455 91.08 33.725 91.8 30.315C92.51 26.905 92.77 22.585 90.9 17.155C89.03 11.725 89.28 10.115 89.75 9.89501C90.21 9.68501 91.36 12.445 92.33 14.965C93.3 17.485 94.46 20.215 95.39 20.175C96.32 20.145 97.58 14.715 97.3 9.68501C97.01 4.64501 96.52 1.44502 97.34 1.37502C98.16 1.30502 98.66 4.505 99.2 7.815C99.74 11.115 100.17 13.385 100.93 13.345C101.68 13.315 106.14 7.66502 106.61 2.20502Z" fill="#2B2A29"/>
</svg>
