<svg width="172" height="205" viewBox="0 0 172 205" fill="none" xmlns="http://www.w3.org/2000/svg">
<path d="M68.9698 37.8655C70.8098 32.5255 70.6998 30.1355 70.3398 28.2655C69.9798 26.3955 71.4898 27.4755 72.0998 29.2755C72.7098 31.0655 72.9298 35.2755 71.5998 38.7655C70.2698 42.2455 69.6897 43.3955 73.1797 41.7055C76.6697 40.0155 82.0597 36.0955 84.1497 28.5555C84.5797 26.8255 85.3298 26.3955 85.2598 29.7055C85.1898 33.0055 83.1397 38.1155 80.3297 41.1655C77.5297 44.2255 78.3198 44.2655 81.3398 41.9955C84.3598 39.7355 90.6897 33.0055 91.4097 29.5955C92.1197 26.1755 92.3798 21.8655 90.5098 16.4355C88.6398 11.0055 88.8898 9.39554 89.3598 9.17554C89.8198 8.95554 90.9697 11.7255 91.9397 14.2455C92.9197 16.7655 94.0698 19.4955 94.9998 19.4555C95.9398 19.4255 97.1897 13.9955 96.9097 8.95553C96.6197 3.92553 96.1298 0.725546 96.9498 0.655546C97.7698 0.585546 98.2698 3.78553 98.8098 7.09553C99.3498 10.3955 99.7797 12.6655 100.54 12.6255C101.29 12.5955 105.75 6.94553 106.22 1.48553C106.47 -1.24447 107.87 0.00554323 107.62 3.46554C107.37 6.91554 104.78 17.1855 100.43 23.9955C96.0797 30.8155 90.9797 37.5055 88.5997 39.9155C86.2297 42.3155 85.3998 42.4955 89.7198 42.2155C94.0298 41.9255 102.26 36.9655 104.71 31.2855C105.5 29.3755 106.45 28.8755 105.92 32.7955C105.39 36.7155 98.4497 43.5055 93.2397 46.1255C88.0297 48.7555 78.7198 48.5755 75.0298 49.0755C71.3498 49.5855 66.5298 51.8055 64.8798 54.3955L61.1298 47.9955C61.1298 47.9955 67.1398 43.2055 68.9698 37.8655Z" fill="#561F33"/>
<path d="M19.0498 39.9155C16.6798 37.5055 11.5698 30.8155 7.21976 23.9955C2.86976 17.1855 0.279762 6.91554 0.0297618 3.46554C-0.220238 0.00554323 1.17976 -1.24447 1.42976 1.48553C1.89976 6.94553 6.35975 12.5955 7.10975 12.6255C7.86975 12.6655 8.29976 10.3955 8.83976 7.09553C9.37976 3.78553 9.87975 0.585546 10.6997 0.655546C11.5197 0.725546 11.0298 3.92553 10.7398 8.95553C10.4598 13.9955 11.7098 19.4255 12.6498 19.4555C13.5798 19.4955 14.7298 16.7655 15.7098 14.2455C16.6798 11.7255 17.8298 8.95554 18.2898 9.17554C18.7598 9.39554 19.0097 11.0055 17.1397 16.4355C15.2697 21.8655 15.5298 26.1755 16.2398 29.5955C16.9598 33.0055 23.2898 39.7355 26.3098 41.9955C29.3298 44.2655 30.1198 44.2255 27.3198 41.1655C24.5098 38.1155 22.4597 33.0055 22.3897 29.7055C22.3197 26.3955 23.0698 26.8255 23.4998 28.5555C25.5898 36.0955 30.9798 40.0155 34.4698 41.7055C37.9598 43.3955 37.3798 42.2455 36.0498 38.7655C34.7198 35.2755 34.9398 31.0655 35.5498 29.2755C36.1598 27.4755 37.6698 26.3955 37.3098 28.2655C36.9498 30.1355 36.8398 32.5255 38.6798 37.8655C40.5098 43.2055 46.5198 47.9955 46.5198 47.9955L42.7698 54.3955C41.1198 51.8055 36.2998 49.5855 32.6198 49.0755C28.9298 48.5755 19.6198 48.7555 14.4098 46.1255C9.19977 43.5055 2.25974 36.7155 1.72974 32.7955C1.19974 28.8755 2.14977 29.3755 2.93977 31.2855C5.38977 36.9655 13.6198 41.9255 17.9298 42.2155C22.2498 42.4955 21.4198 42.3155 19.0498 39.9155Z" fill="#561F33"/>
<path d="M58.3098 196.986C58.3098 196.986 49.9597 196.986 45.2097 196.986C46.0797 193.036 51.8997 188.556 51.8997 188.556L49.3098 158.206C49.3098 158.206 46.6598 157.156 46.2798 153.056C45.9098 148.966 47.6797 146.646 47.6797 146.646L43.1997 118.915C43.1997 118.915 56.2298 122.655 61.2198 129.945C66.1998 137.245 62.2997 177.355 62.2997 177.355C62.2997 177.355 62.0198 193.036 58.3098 196.986Z" fill="#9B5149"/>
<path d="M117.35 131.855C120.03 140.935 132.57 156.406 132.57 156.406C132.57 156.406 132.46 174.556 132.14 190.306C126.31 192.566 123.29 199.936 123.29 199.936H136.99C136.99 199.936 145.56 165.066 147.75 154.176C147.75 154.176 134.23 122.776 127.72 121.616C121.21 120.456 117.35 131.855 117.35 131.855Z" fill="#9B5149"/>
<path d="M41.1898 66.7655L57.0597 67.5055L57.1298 67.6355V67.5355H66.3397C66.3397 67.5355 68.6197 75.5255 70.3397 82.9655C72.6097 83.6155 91.0497 82.0955 103.67 80.9055C116.28 79.7255 131.49 79.7255 142.38 83.1755C153.28 86.6255 161.15 92.7755 162.88 103.446C164.6 114.126 161.59 111.646 159.22 108.846C158.58 108.086 157.94 106.956 157.35 105.706C155 141.036 171.82 153.456 171.82 153.456L157.37 204.976H143.78C143.78 204.976 145.08 199.556 153.38 194.926C154.89 187.806 155.65 157.906 155.65 157.906C155.65 157.906 138.61 152.736 129.34 130.856C116.61 130.986 109.72 133.976 85.7797 135.706C61.8297 137.436 51.7097 131.406 41.5297 116.416C31.3597 101.426 39.0098 75.7855 41.1898 66.7655Z" fill="#E21A1A"/>
<path d="M39.6198 73.0955C40.2298 70.5555 40.7998 68.3855 41.1898 66.7655L57.0598 67.5055L57.1298 67.6355V67.5355H66.3398C66.3398 67.5355 68.6098 75.5255 70.3398 82.9655C68.2898 90.0755 56.3198 89.9655 48.6598 86.9855C41.0098 83.9955 42.9498 74.9755 39.6198 73.0955Z" fill="#9B5149"/>
<path d="M53.8298 49.5255C56.3298 49.5255 58.8598 48.1955 61.3698 47.8355C63.3098 50.4955 66.6598 57.2555 66.9398 61.8155C67.2298 66.3855 65.5098 70.1555 63.4898 76.6255C61.4798 83.0955 57.5898 85.5755 53.8298 85.5755C50.0798 85.5755 46.1797 83.0955 44.1697 76.6255C42.1597 70.1555 40.4298 66.3855 40.7198 61.8155C41.0098 57.2555 44.3498 50.4955 46.2898 47.8355C48.8098 48.1955 51.3298 49.5255 53.8298 49.5255Z" fill="#E21A1A"/>
<path d="M43.6697 63.9255C43.6697 64.9355 44.4898 65.7555 45.4998 65.7555C46.5098 65.7555 47.3398 64.9355 47.3398 63.9255C47.3398 62.9055 46.5098 62.0855 45.4998 62.0855C44.4898 62.0855 43.6697 62.9055 43.6697 63.9255Z" fill="#3D0F1E"/>
<path d="M53.8298 81.6655C55.8798 81.6655 57.5198 81.1755 57.6898 77.7255C58.2798 68.6655 57.6398 59.2655 53.8298 59.1955C50.0198 59.2655 49.3798 68.6655 49.9798 77.7255C50.1398 81.1755 51.7798 81.6655 53.8298 81.6655Z" fill="#9B5149"/>
<path d="M63.9998 63.9255C63.9998 64.9355 63.1798 65.7555 62.1598 65.7555C61.1498 65.7555 60.3297 64.9355 60.3297 63.9255C60.3297 62.9055 61.1498 62.0855 62.1598 62.0855C63.1798 62.0855 63.9998 62.9055 63.9998 63.9255Z" fill="#3D0F1E"/>
<path d="M50.0598 78.6055C50.0598 76.8555 51.8797 76.3755 53.8297 76.3755C55.7797 76.3755 57.6198 76.9955 57.6198 78.4555C57.2698 81.2455 55.7297 81.6655 53.8297 81.6655C51.9697 81.6655 50.4498 81.2655 50.0598 78.6055Z" fill="#3D0F1E"/>
<path d="M41.5097 57.7455C39.1197 54.8055 33.8298 51.2455 24.9398 52.9755C24.9898 59.7655 33.2498 65.6855 40.7898 61.0555L41.5097 57.7455Z" fill="#E21A1A"/>
<path d="M25.2397 55.1555C33.6797 56.3055 40.7898 61.0555 40.7898 61.0555C34.0698 65.1855 26.7797 60.9355 25.2397 55.1555Z" fill="#9B5149"/>
<path d="M66.1598 57.7455C68.5398 54.8055 73.8298 51.2455 82.7298 52.9755C82.6698 59.7655 74.4198 65.6855 66.8698 61.0555L66.1598 57.7455Z" fill="#E21A1A"/>
<path d="M82.4297 55.1555C73.9897 56.3055 66.8698 61.0555 66.8698 61.0555C73.5998 65.1855 80.8797 60.9355 82.4297 55.1555Z" fill="#9B5149"/>
<path d="M58.2597 196.105C57.7197 179.285 57.9398 169.776 57.9398 169.776C57.9398 169.776 56.2097 167.185 56.4297 164.385C56.6397 161.585 58.7997 159.206 58.7997 159.206L55.6997 130.855L72.7097 135.786L68.2898 160.816C68.2898 160.816 69.5897 163.626 69.1497 166.426C68.7197 169.236 66.7798 171.526 66.7798 171.526L63.9797 203.796H51.8997C51.8997 203.796 53.5197 199.995 58.2597 196.105Z" fill="#E21A1A"/>
<path d="M55.6397 122.756C65.8497 130.376 77.6398 128.006 96.0398 126.606C114.45 125.196 125.39 125.026 129.34 130.856C116.61 130.986 109.72 133.976 85.7798 135.706C61.8298 137.436 51.7098 131.406 41.5298 116.416C36.9398 109.646 35.9797 100.706 36.5097 92.1055C41.9797 100.036 45.4297 115.126 55.6397 122.756Z" fill="#9B5149"/>
<path d="M157.35 105.726L157.16 109.976C156.37 142.036 171.82 153.456 171.82 153.456L157.37 204.976C148.31 204.976 157.83 204.976 143.78 204.976C143.78 204.976 145.07 199.586 153.32 194.956H153.38C157.37 191.236 163.62 167.506 166.64 155.316C155.43 146.586 150.79 131.916 150.25 116.066C149.71 100.216 155.1 91.6955 151.16 86.9855C157.39 90.6555 161.66 95.9255 162.88 103.446C164.6 114.126 161.59 111.646 159.22 108.846C158.58 108.086 157.94 106.956 157.35 105.706C157.35 105.716 157.35 105.716 157.35 105.726Z" fill="#9B5149"/>
</svg>
