<svg width="185" height="111" viewBox="0 0 185 111" fill="none" xmlns="http://www.w3.org/2000/svg">
<path fill-rule="evenodd" clip-rule="evenodd" d="M139.63 1.14499C141.54 1.04499 146.53 5.96499 148.43 9.79499C152.03 7.29499 155.82 6.69498 158.93 6.69498C162.06 6.69498 165.85 7.29499 169.44 9.79499C171.34 5.96499 176.33 1.04499 178.24 1.14499C180.24 1.23499 179.86 10.725 176.44 18.315C180.71 19.935 183.75 19.745 183.75 19.745C183.75 19.745 184.17 26.005 178.97 31.055C174.61 41.765 166.77 49.605 158.17 59.985C153.94 65.075 150.97 69.555 149.25 74.085C147.46 78.785 147.01 83.545 147.91 89.085C149.69 99.975 152.82 103.925 151.87 105.535C150.81 107.335 144.09 105.235 140.67 96.065C136.66 85.315 134.52 76.305 132.51 73.585C132.53 73.615 132.54 73.635 132.55 73.655C130.42 81.055 130.61 94.905 131.46 97.945C132.32 100.985 134.89 103.925 131.71 103.925C128.52 103.925 123.78 98.325 121.69 90.825C119.6 83.335 117.06 73.555 117.05 73.525C114.31 73.715 111.59 73.765 109.26 73.455C101.28 72.415 97.68 70.895 94.17 73.175C93.06 73.895 92.16 74.915 91.45 76.085C89.9 78.645 89.27 81.905 89.52 84.185C89.89 87.505 91.98 98.795 93.31 102.315C94.64 105.825 98.53 107.625 98.15 109.335C97.77 111.045 93.5 111.705 87.52 105.725C81.54 99.745 76.7 88.455 74.62 80.675C73.88 77.925 73.06 75.115 72.29 72.425C72.29 72.445 72.29 72.445 72.29 72.445C69.96 81.875 67.81 97.185 69.58 101.865C71.36 106.545 67.31 106.175 63.38 101.865C60.57 98.785 58.99 89.975 58.32 85.235C58.07 83.485 57.95 82.295 57.93 82.135C48.84 92.925 30.21 100.495 15.96 95.105C0.400007 89.225 0.970002 72.705 0.970002 72.705C0.970002 72.705 15.31 76.245 25.83 70.795C50.78 57.865 57.06 39.525 76.13 34.585C95.21 29.655 117.7 29.345 134.31 22.385H134.32C134.05 20.795 134.12 19.745 134.12 19.745C134.12 19.745 137.16 19.935 141.43 18.315C138.01 10.725 137.63 1.23499 139.63 1.14499Z" fill="#2B2A29" stroke="#2B2A29" stroke-width="0.77" stroke-miterlimit="22.9256"/>
</svg>
