<svg width="45" height="62" viewBox="0 0 45 62" fill="none" xmlns="http://www.w3.org/2000/svg">
<path d="M4.06332 57.1033C4.06332 57.1033 5.27332 53.5733 6.02332 49.3933C6.60332 46.1133 7.42332 41.2433 7.27332 38.0433L12.5533 48.1833C9.75331 55.9533 6.02332 59.8433 6.02332 59.8433C6.02332 59.8433 4.1733 59.8433 0.823303 59.8433C0.823303 57.2133 4.06332 57.1033 4.06332 57.1033Z" fill="#36697B"/>
<path d="M13.5833 21.1232C12.8633 19.6332 13.8233 17.5333 15.7333 13.3333C17.6433 9.12325 17.0233 0.423218 14.9633 0.233218C12.9133 0.0432179 11.3833 5.96323 11.0533 10.9332C10.7133 15.9032 11.6133 19.2532 9.90332 19.4332L11.8633 21.1232H13.5833Z" fill="#CB0000"/>
<path d="M11.7233 20.8333C12.0433 20.8333 12.3334 20.6333 12.4334 20.3133C13.8034 15.9833 14.9633 6.51324 15.0133 6.11324C15.0533 5.71324 14.7633 5.33328 14.3533 5.28328C13.9533 5.23328 13.5733 5.53325 13.5233 5.93325C13.5133 6.03325 12.3333 15.6632 11.0133 19.8632C10.8833 20.2532 11.1033 20.6732 11.5033 20.8032C11.5733 20.8232 11.6533 20.8333 11.7233 20.8333Z" fill="#36697B"/>
<path d="M7.23328 19.4233C8.08328 18.9333 7.74328 11.3833 7.23328 6.02334C6.71328 0.673342 6.49329 0.0333517 6.49329 0.0333517C6.49329 0.0333517 8.70329 -0.56667 10.0933 3.32333C11.4833 7.20333 11.1133 12.8433 10.0933 17.1833C9.77329 18.4233 10.0633 18.9634 10.5133 19.0334L9.32327 20.0833L7.23328 19.4233Z" fill="#36697B"/>
<path d="M5.94332 19.9232C10.0533 18.0532 13.7833 18.9633 15.4533 23.0733C17.1233 27.1833 17.1733 29.1033 20.0833 30.3433C23.0033 31.5833 29.2633 33.7433 33.0333 39.5733C36.8133 45.4033 38.6733 53.8633 38.9633 57.3533C42.4033 57.3033 44.1233 59.1233 44.2633 61.1033C36.0933 61.1033 9.90334 61.1033 9.90334 61.1033C9.90334 61.1033 10.7133 56.3532 20.0333 57.3032C18.0433 55.2132 16.1133 52.7033 15.2133 50.1933L14.3333 49.4333C11.5233 57.2133 7.80334 61.1033 7.80334 61.1033C7.80334 61.1033 5.95332 61.1033 2.60332 61.1033C2.60332 58.4633 5.84335 58.3632 5.84335 58.3632C5.84335 58.3632 6.94334 54.8033 7.80334 50.6533C8.66334 46.4933 8.37332 44.4833 7.60332 40.5633C6.84332 36.6533 7.22332 30.3933 7.22332 30.3833C7.22332 30.3833 0.393348 29.7133 0.0333479 27.3233C-0.296652 25.1033 1.83332 21.7832 5.94332 19.9232Z" fill="#CB0000"/>
<path d="M5.96332 23.9533C5.96332 24.5633 6.45332 25.0533 7.06332 25.0533C7.66332 25.0533 8.15332 24.5633 8.15332 23.9533C8.15332 23.3533 7.66332 22.8633 7.06332 22.8633C6.45332 22.8633 5.96332 23.3533 5.96332 23.9533Z" fill="#261918"/>
<path d="M12.0233 29.7333C17.0833 28.5033 15.8333 24.9933 15.3233 22.7733C15.3633 22.8733 15.4133 22.9733 15.4533 23.0733C17.0133 26.9033 17.1533 28.8233 19.5233 30.0733C17.4133 32.1533 12.7133 31.6733 12.0233 29.7333Z" fill="#36697B"/>
<path d="M20.0333 57.3033C18.0433 55.2233 16.1133 52.7033 15.2133 50.2033C14.4833 48.1633 14.4233 46.1233 15.5733 44.3233C15.8633 43.7433 16.2233 43.2533 16.5933 42.8333C18.0033 41.2633 20.0133 40.6633 22.2533 41.1333C25.7133 41.8733 29.1433 45.0034 30.2433 48.4134C30.3633 48.8034 30.1533 49.2234 29.7533 49.3534C29.3633 49.4734 28.9433 49.2533 28.8133 48.8633C27.8933 45.9733 24.8733 43.2233 21.9433 42.5933C20.7433 42.3433 19.0333 42.3433 17.7033 43.8333C16.8233 44.8133 16.3833 45.9633 16.3733 47.2633C17.0833 49.0333 18.5033 51.1433 20.7033 53.8233C24.5233 58.4733 33.0033 56.9433 38.9633 57.3433V57.3534C42.4033 57.3034 44.1233 59.1234 44.2633 61.1034C36.0933 61.1034 9.90332 61.1034 9.90332 61.1034C9.90332 61.1034 10.7133 56.3533 20.0333 57.3033Z" fill="#36697B"/>
<path d="M2.99333 27.0133C3.30333 26.1533 0.753322 25.3633 0.393322 26.3433C0.0333215 27.3233 2.47333 28.0233 2.99333 27.0133Z" fill="#261918"/>
</svg>
