<svg width="75" height="45" viewBox="0 0 75 45" fill="none" xmlns="http://www.w3.org/2000/svg">
<path fill-rule="evenodd" clip-rule="evenodd" d="M42.79 2.17498C52.22 5.91498 59.7 9.38497 64.06 9.91497C63.71 10.925 63.4 11.905 63.14 12.815C63.92 11.625 64.53 11.015 64.58 10.965C64.81 10.735 65.18 10.735 65.41 10.965C65.64 11.195 65.64 11.565 65.41 11.795C65.39 11.815 63.43 13.815 62.02 17.635C62 17.695 61.98 17.745 61.94 17.785C61.87 18.165 61.84 18.375 61.84 18.375C61.84 18.375 64.06 24.155 67.09 25.845C68.65 26.715 70.34 27.075 71.71 27.325C73 27.575 74 27.735 74.3 28.165C74.59 28.575 74.01 29.655 72.8 30.935C71.38 32.445 69.08 34.215 66.29 35.465C63.81 36.575 59 38.015 51.98 39.165L51.47 42.315C51.39 42.765 51 43.095 50.55 43.095C50.5 43.095 50.45 43.095 50.4 43.085C49.89 43.005 49.54 42.525 49.62 42.015L50.04 39.465C48.98 39.615 47.88 39.765 46.73 39.905V42.455C46.73 42.965 46.43 43.385 45.91 43.385C45.39 43.385 45.09 42.965 45.09 42.455V40.095C41.83 40.455 38.25 40.735 34.33 40.915C30.39 41.095 26.12 41.155 21.51 41.075C19.12 41.075 16.93 40.985 14.96 40.855L15.47 42.985C15.59 43.485 15.28 43.995 14.78 44.115C14.7 44.125 14.63 44.135 14.56 44.135C14.14 44.135 13.75 43.845 13.65 43.415L13 40.705C12.67 40.685 12.35 40.655 12.04 40.625L12.8 43.785C12.92 44.285 12.61 44.795 12.11 44.915C12.03 44.925 11.96 44.935 11.89 44.935C11.47 44.935 11.08 44.645 10.98 44.225L10.07 40.405C6.17998 39.935 3.97998 39.385 3.97998 39.385C3.97998 39.385 2.44998 36.725 1.52998 32.635C1.31998 32.485 1.23998 32.205 1.33998 31.945C1.34998 31.925 1.35998 31.905 1.36998 31.885C0.339982 26.705 0.399981 19.495 5.39998 12.495C14.75 -0.585043 33.35 -1.56502 42.79 2.17498Z" fill="#2B2A29"/>
</svg>
