<svg width="74" height="45" viewBox="0 0 74 45" fill="none" xmlns="http://www.w3.org/2000/svg">
<path d="M13.3717 37.4308C13.2517 36.9308 12.7417 36.6208 12.2417 36.7408C11.7417 36.8608 11.4317 37.3708 11.5517 37.8708L12.8117 43.1408C12.9117 43.5708 13.2917 43.8608 13.7217 43.8608C13.7917 43.8608 13.8617 43.8508 13.9317 43.8308C14.4417 43.7108 14.7517 43.2108 14.6317 42.7108L13.3717 37.4308Z" fill="#EA8532"/>
<path d="M10.6917 38.2408C10.5717 37.7308 10.0717 37.4208 9.57168 37.5408C9.07168 37.6608 8.76167 38.1708 8.88167 38.6708L10.1417 43.9408C10.2417 44.3708 10.6217 44.6608 11.0517 44.6608C11.1217 44.6608 11.1917 44.6508 11.2617 44.6308C11.7717 44.5108 12.0817 44.0108 11.9617 43.5108L10.6917 38.2408Z" fill="#EA8532"/>
<path d="M49.7817 24.3708C54.1417 19.2108 57.3517 18.1908 61.0017 18.1008C61.0017 18.1008 61.6217 14.1808 63.2217 9.64078C58.8617 9.10078 51.3817 5.63079 41.9517 1.90079C32.5117 -1.83921 13.9117 -0.869201 4.56169 12.2208C-4.78831 25.3108 3.1317 39.1008 3.1317 39.1008C3.1317 39.1008 9.90171 40.8008 20.6717 40.8008C25.2717 40.8808 29.5517 40.8108 33.4917 40.6408C43.6417 39.1508 45.7917 29.0908 49.7817 24.3708Z" fill="#634949"/>
<path d="M73.4617 27.8908C72.8317 27.0008 69.2717 27.2608 66.2517 25.5708C63.2217 23.8808 61.0017 18.1008 61.0017 18.1008C58.1017 18.1708 55.4917 18.8308 52.3617 21.6608L52.3717 21.6508C51.7117 20.6708 49.5117 18.6308 47.7317 20.4108C45.9517 22.2008 47.2417 24.7708 48.4317 26.2508V26.2408C45.1817 31.3408 42.4417 39.3208 33.4917 40.6408C37.4117 40.4608 40.9917 40.1808 44.2517 39.8208V42.1808C44.2517 42.6908 44.5517 43.1108 45.0717 43.1108C45.5917 43.1108 45.8917 42.6908 45.8917 42.1808V39.6308C47.0417 39.4908 48.1417 39.3408 49.1917 39.1908L48.7817 41.7408C48.7017 42.2408 49.0417 42.7208 49.5517 42.8108C49.6117 42.8108 49.6517 42.8208 49.7017 42.8208C50.1617 42.8208 50.5517 42.4908 50.6317 42.0308L51.1317 38.8908C58.1617 37.7408 62.9617 36.3008 65.4517 35.1908C70.6117 32.8708 74.0817 28.7808 73.4617 27.8908Z" fill="#EA8532"/>
<path d="M59.8417 27.1308C59.8417 28.0908 59.0617 28.8708 58.1017 28.8708C57.1417 28.8708 56.3717 28.0908 56.3717 27.1308C56.3717 26.1708 57.1417 25.4008 58.1017 25.4008C59.0617 25.4008 59.8417 26.1708 59.8417 27.1308Z" fill="#261918"/>
<path d="M73.4617 27.8908C73.1617 27.4608 72.1617 27.3008 70.8717 27.0508C70.8717 27.0508 69.6117 29.6108 71.9617 30.6608C73.1617 29.3808 73.7417 28.3008 73.4617 27.8908Z" fill="#261918"/>
</svg>
