<svg width="68" height="37" viewBox="0 0 68 37" fill="none" xmlns="http://www.w3.org/2000/svg">
<path fill-rule="evenodd" clip-rule="evenodd" d="M66.29 16.775C66.43 16.665 66.64 16.685 66.76 16.835C66.87 16.975 66.85 17.185 66.71 17.305C66.5 17.465 66.35 17.655 66.25 17.805C66.28 17.825 66.3 17.845 66.33 17.865C67.25 18.565 67.58 19.485 66.83 20.545C66.72 20.705 66.54 20.785 66.31 20.805C65.6 22.015 63.96 22.685 63.41 22.265C62.85 21.835 62.43 21.105 62.9 19.795C62.83 19.775 62.75 19.765 62.67 19.755C62.34 19.735 62.01 19.825 61.8 20.075C61.51 20.425 60.87 21.365 60.03 22.285C59.53 22.845 58.98 23.375 58.32 23.795C58.28 23.815 58.24 23.845 58.2 23.875C57.71 24.175 57.19 24.385 56.65 24.525C56.46 24.575 56.26 24.625 56.04 24.655C55.8 24.695 55.55 24.725 55.31 24.735C54.95 24.755 54.6 24.755 54.27 24.725H54.26C54.07 24.705 53.89 24.675 53.72 24.645C53.75 24.805 53.77 24.965 53.78 25.135C54.01 28.225 52.47 32.815 47.72 34.535C47.69 34.545 47.66 34.555 47.62 34.565C51.11 34.505 53.08 34.885 54.19 35.365C47.83 36.435 40.56 36.915 34.12 36.425L33.52 36.505C32.97 36.425 32.39 36.325 31.82 36.205C31.73 36.195 31.64 36.185 31.55 36.175C29.59 35.745 27.63 35.125 26.16 34.315C22.89 32.525 19.88 28.545 19.1 20.645C18.97 22.955 18.25 24.775 17.17 26.115C14.79 29.055 10.62 29.675 6.9 28.045C1.93 25.865 -1.52999 18.845 2.79001 11.505C3.18001 10.825 3.64002 10.155 4.17002 9.48502C10.49 1.45502 20.31 3.16502 25.3 6.70502C30.29 10.235 30.57 15.915 30.35 21.795C30.47 20.575 30.78 19.415 31.32 18.355C31.56 17.895 31.81 17.465 32.08 17.075C35.14 12.525 40.13 11.905 44.29 11.815C46.85 11.755 48.44 11.175 49.58 10.365C50.42 9.76502 51.03 9.03501 51.65 8.26501C51.66 8.24501 51.68 8.22502 51.7 8.20502C52.25 7.49502 52.78 6.785 53.48 6.155C53.83 5.835 54.21 5.545 54.66 5.285C54.65 5.295 54.64 5.305 54.63 5.315C54.99 5.115 55.38 4.92502 55.83 4.77502C56.04 3.09502 56.43 0.934998 57.08 0.934998C57.72 0.934998 58.39 2.91502 58.81 4.48502C60.95 4.86502 63.07 6.52501 63.98 9.44501C64.77 11.965 65.03 13.595 64.53 14.525C64.4 14.775 64.22 14.965 63.98 15.115C63.71 15.295 63.36 15.405 62.93 15.465C60.69 15.775 57.81 13.935 57.81 13.935C57.77 14.035 56.84 16.795 58.72 17.545C60.75 18.345 62.15 16.905 63.64 17.635C64.28 17.215 65.02 17.235 65.66 17.485C65.78 17.285 65.99 17.015 66.29 16.775Z" fill="#2B2A29"/>
</svg>
