<svg width="126" height="83" viewBox="0 0 126 83" fill="none" xmlns="http://www.w3.org/2000/svg">
<path d="M37.6183 73.9938L40.4683 62.0338L25.1983 61.4637C25.1983 61.4637 24.2583 70.9138 25.1983 74.8638C26.1383 78.8138 30.3783 78.8038 41.9283 78.2338C41.1983 76.4638 37.6183 73.9938 37.6183 73.9938Z" fill="#543C3C"/>
<path d="M88.0383 40.6638C85.6783 48.9138 82.3083 62.3038 84.5683 72.9838C86.7683 74.9538 88.0183 77.7438 88.0183 77.7438H79.5483C79.5483 77.7438 74.2683 69.0737 76.6783 56.0137C79.0783 42.9537 88.0383 40.6638 88.0383 40.6638Z" fill="#543C3C"/>
<path d="M95.6783 0.133753C96.1183 2.11375 97.0983 2.94375 97.0983 2.94375L105.918 2.38375C105.918 2.38375 100.428 -0.666247 95.6783 0.133753Z" fill="#543C3C"/>
<path d="M110.238 17.5738C107.378 19.2538 104.498 21.3238 102.108 23.8338C95.0183 31.2838 89.0983 38.4538 85.2883 44.8838C81.4883 51.3238 79.1483 62.0938 79.5183 77.5938C81.4183 79.3438 82.8783 82.4437 82.8783 82.4437H67.5983C67.5983 82.4437 64.4183 67.7538 62.5383 61.3238C53.5583 61.9838 35.9383 63.2738 23.0683 61.4438C20.7283 68.6038 20.7983 77.2537 20.7983 77.2537C20.7983 77.2537 23.7283 79.5538 24.4583 81.5138C18.7483 81.5838 14.1483 81.1838 11.2183 80.7438C8.29833 80.3138 6.68833 78.4638 6.46833 73.4938C6.24833 68.5238 5.51833 57.9138 6.02833 52.0938C6.02833 52.0938 3.46829 57.4538 0.358286 56.6038C-1.13171 56.0638 2.36831 44.7238 4.56831 40.1438C6.75831 35.5638 13.7783 23.1238 35.2283 20.4938C56.6783 17.8638 70.3283 17.9538 85.5383 8.79379C87.2283 7.78379 88.7783 6.88379 90.1983 6.10379C90.1983 6.10379 99.3483 2.80378 105.368 3.97378C111.388 5.14378 118.558 8.94376 110.238 17.5738Z" fill="#A11E1E"/>
<path d="M124.338 7.59377C120.098 7.59377 118.298 7.33378 112.538 4.60378C103.328 0.643784 98.9083 1.24378 89.5483 6.47378L93.6683 6.09377C93.6683 6.09377 98.3583 3.91375 105.428 4.94375C111.368 5.86375 112.198 8.04375 111.958 9.44375C111.718 10.8337 109.758 12.2538 105.668 12.3938C101.578 12.5438 91.5283 11.5238 83.7283 15.6138C75.9283 19.7138 69.1583 29.5037 69.1583 29.5037C69.1583 29.5037 83.5883 23.4138 92.6583 21.4138C101.718 19.4138 107.438 19.1738 109.788 17.8438C115.598 14.3538 121.448 12.4638 123.098 11.7638C125.508 10.7438 125.438 9.27377 124.338 7.59377Z" fill="white"/>
<path d="M14.8483 78.5037C7.73828 77.1437 8.60832 64.7538 8.70832 54.4138C8.80832 44.0838 5.5883 41.5437 7.3083 35.4537C5.9883 37.3237 5.11831 38.9837 4.56831 40.1437C2.36831 44.7237 -1.13171 56.0538 0.358286 56.6038C3.46829 57.4438 6.02833 52.0938 6.02833 52.0938C5.51833 57.9037 6.24833 68.5038 6.46833 73.4738C6.68833 78.4538 8.29833 80.2837 11.2183 80.7137C14.1483 81.1537 18.7483 81.5237 24.4583 81.4537C24.2083 80.7937 23.7183 80.0837 23.1683 79.4437C23.0783 79.4437 20.3183 79.2637 14.8483 78.5037Z" fill="#543C3C"/>
<path d="M81.7283 80.3738C74.1683 79.7638 70.6383 82.3637 69.7583 74.6537C68.8783 66.9237 66.9183 61.0537 62.5383 61.3237L67.6183 82.4437H82.8983C82.8983 82.4437 82.5583 81.5038 81.7283 80.3738Z" fill="#543C3C"/>
<path d="M84.1183 5.84375C84.9983 11.0337 92.4583 10.6638 92.4583 10.6638L94.2083 6.28375C94.2083 6.28375 89.6783 4.45375 84.1183 5.84375Z" fill="#543C3C"/>
<path d="M125.058 9.37378C125.008 8.81378 124.748 8.22375 124.338 7.59375C123.558 7.59375 122.858 7.58377 122.198 7.55377C121.168 8.45377 121.548 9.75378 125.058 9.37378Z" fill="#261918"/>
<path d="M108.758 8.92377C108.758 9.60377 108.208 10.1537 107.528 10.1537C106.848 10.1537 106.298 9.60377 106.298 8.92377C106.298 8.25377 106.848 7.70374 107.528 7.70374C108.208 7.70374 108.758 8.25377 108.758 8.92377Z" fill="#261918"/>
</svg>
