<?xml version="1.0" encoding="UTF-8"?>
<!DOCTYPE svg PUBLIC "-//W3C//DTD SVG 1.1//EN" "http://www.w3.org/Graphics/SVG/1.1/DTD/svg11.dtd">
<!-- Creator: CorelDRAW -->
<svg xmlns="http://www.w3.org/2000/svg" xml:space="preserve" width="749px" height="545px" version="1.1" style="shape-rendering:geometricPrecision; text-rendering:geometricPrecision; image-rendering:optimizeQuality; fill-rule:evenodd; clip-rule:evenodd"
viewBox="0 0 749 544.73"
 xmlns:xlink="http://www.w3.org/1999/xlink"
 xmlns:xodm="http://www.corel.com/coreldraw/odm/2003">
 <defs>
  <style type="text/css">
   <![CDATA[
    .str0 {stroke:#2B2A29;stroke-width:0.77;stroke-miterlimit:22.9256}
    .fil27 {fill:#2B2A29}
    .fil16 {fill:#2B2A29;fill-rule:nonzero}
    .fil26 {fill:#EF7F1A;fill-rule:nonzero}
    .fil19 {fill:#E31E24;fill-rule:nonzero}
    .fil14 {fill:#261918;fill-rule:nonzero}
    .fil10 {fill:#36697B;fill-rule:nonzero}
    .fil15 {fill:#3D0F1E;fill-rule:nonzero}
    .fil9 {fill:#4B775E;fill-rule:nonzero}
    .fil11 {fill:#5389A5;fill-rule:nonzero}
    .fil24 {fill:#543C3C;fill-rule:nonzero}
    .fil17 {fill:#561F33;fill-rule:nonzero}
    .fil21 {fill:#563B3B;fill-rule:nonzero}
    .fil20 {fill:#634949;fill-rule:nonzero}
    .fil8 {fill:#77937C;fill-rule:nonzero}
    .fil7 {fill:#8FA380;fill-rule:nonzero}
    .fil18 {fill:#9B5149;fill-rule:nonzero}
    .fil4 {fill:#A6BA90;fill-rule:nonzero}
    .fil0 {fill:#B1C69B;fill-rule:nonzero}
    .fil23 {fill:#B76B5C;fill-rule:nonzero}
    .fil3 {fill:#BFD1AA;fill-rule:nonzero}
    .fil2 {fill:#C8D6B4;fill-rule:nonzero}
    .fil6 {fill:#D19C89;fill-rule:nonzero}
    .fil1 {fill:#D8E0C6;fill-rule:nonzero}
    .fil22 {fill:#E26A1A;fill-rule:nonzero}
    .fil12 {fill:#E57828;fill-rule:nonzero}
    .fil13 {fill:#EA8532;fill-rule:nonzero}
    .fil5 {fill:#EBEFDA;fill-rule:nonzero}
    .fil25 {fill:white;fill-rule:nonzero}
   ]]>
  </style>
 </defs>
 <g id="Layer_x0020_1">
  <metadata id="CorelCorpID_0Corel-Layer"/>
  <path class="fil0" d="M667.58 260.81l-606.17 49.81c-2.25,26.82 -4.5,53.65 -6.76,80.47 -2.15,25.67 -3.84,53.43 9.67,75.21 20.54,33.11 65.42,37.49 103.89,38.37 96.88,2.21 193.76,4.42 290.64,6.63 62.13,1.43 194.9,-3.92 218.11,-40.74 19.32,-30.66 19.5,-70.3 19.52,-106.6 0.01,-36.31 -8.65,-73.26 -28.9,-103.15z"/>
  <path class="fil1" d="M659.42 203.55l-584.05 -4.75c-2.25,26.83 -18.46,165.47 -20.72,192.29 -2.15,25.67 -3.84,53.43 9.67,75.21 20.54,33.11 65.42,37.49 103.89,38.37 96.88,2.21 193.76,4.42 290.64,6.63 62.13,1.43 194.9,-3.92 218.11,-40.74 19.32,-30.66 19.5,-70.3 19.52,-106.6 0.01,-36.31 -16.81,-130.52 -37.06,-160.41z"/>
  <path class="fil2" d="M676.96 470.56c19.32,-30.66 19.5,-70.3 19.52,-106.6 0.01,-18.95 -4.57,-53.65 -11.82,-86.76 -74.8,9.96 -150.96,9.74 -225.69,-0.72 -14.34,-2 -28.64,-4.38 -43.06,-5.67 -18.34,-1.64 -36.8,-1.49 -55.21,-1.35 -77.97,0.61 -214.35,-4.04 -295.72,25.75 -4.6,41.28 -9.2,82.5 -10.33,95.88 -2.15,25.67 -3.84,53.43 9.67,75.21 20.54,33.11 65.42,37.49 103.89,38.37 96.88,2.21 193.76,4.42 290.64,6.63 62.13,1.43 194.9,-3.92 218.11,-40.74z"/>
  <path class="fil3" d="M696.28 354.51c-57.37,-2.46 -114.12,-19.12 -171.76,-19.37 -58.88,-0.26 -116.32,16.55 -174.54,25.28 -75.55,11.32 -152.76,7.09 -227.85,-6.99 -16.37,-3.08 -42.58,-6.68 -63.53,-9.38 -1.31,15.68 -2.63,31.36 -3.95,47.04 -2.15,25.67 -3.84,53.43 9.67,75.21 20.54,33.11 65.42,37.49 103.89,38.37 96.88,2.21 193.76,4.42 290.64,6.63 62.13,1.43 194.9,-3.92 218.11,-40.74 19.32,-30.66 19.5,-70.3 19.52,-106.6 0,-3.15 -0.07,-6.3 -0.2,-9.45z"/>
  <path class="fil0" d="M597.75 407.47c-38.69,4.79 -75.33,20.72 -114,25.72 -10.1,1.3 -20.27,1.85 -30.43,2.4 -22.48,1.22 -27.15,1.47 -49.63,2.68l0 71.78c18.39,0.42 36.77,0.84 55.16,1.25 62.13,1.43 194.9,-3.92 218.11,-40.74 10.67,-16.94 15.51,-36.63 17.7,-56.98 -32.13,-6.24 -64.59,-10.12 -96.91,-6.11z"/>
  <path class="fil0" d="M108.62 375.44c-16.36,0.49 -33.01,2.1 -48.09,8.5 -1.96,0.83 -3.78,1.61 -5.47,2.34 -0.14,1.61 -0.27,3.21 -0.41,4.81 -2.15,25.67 -3.84,53.43 9.67,75.21 20.54,33.11 65.42,37.49 103.89,38.37 84.3,1.92 168.6,3.85 252.9,5.77l3.99 -111.4c-105.28,12.86 -210.46,-26.8 -316.48,-23.6z"/>
  <path class="fil4" d="M678.87 467.38c-0.53,0.02 -0.82,0.03 -0.82,0.03 -61.2,-3.45 -120.88,-19.36 -180.96,-31.5 -60.08,-12.14 -122.28,-20.53 -182.45,-8.87 -39.67,7.69 -77.1,23.85 -115.42,36.66 -38.33,12.81 -79.01,22.4 -118.96,16.3l-4.89 -0.41c23.1,21.08 60.27,24.33 92.84,25.08 96.88,2.21 193.76,4.42 290.64,6.63 62.13,1.43 194.9,-3.92 218.11,-40.74 0.66,-1.05 1.29,-2.11 1.91,-3.18z"/>
  <path class="fil5" d="M316.28 91.72c-3.27,-23 -25.45,-48.99 -56.73,-51.17 -31.27,-2.19 -69.45,14.9 -70.17,47.99 -0.72,35.33 20.63,52.45 40.68,54.45 0.24,0.23 0.48,0.46 0.73,0.7 2.55,17.09 0,106.9 0,106.9 26.54,15.64 62.54,0 62.54,0 0,0 -4.73,-76.9 -6.91,-105.44 0.09,-0.03 0.44,-0.28 0.96,-0.7 17.22,-3.04 32.14,-29.97 28.9,-52.73z"/>
  <path class="fil5" d="M455.24 87.55c-3.28,-23 -25.46,-49 -56.73,-51.18 -31.27,-2.18 -69.45,14.91 -70.18,48 -0.71,35.33 20.64,52.44 40.68,54.44 0.25,0.24 0.49,0.47 0.74,0.71 2.54,17.08 0,106.9 0,106.9 26.54,15.63 62.54,0 62.54,0 0,0 -4.73,-76.91 -6.91,-105.45 0.09,-0.03 0.44,-0.28 0.96,-0.7 17.22,-3.03 32.14,-29.97 28.9,-52.72z"/>
  <path class="fil5" d="M159.35 154.47c-0.36,-46.78 -17.16,-103.35 -42.54,-104.07 -25.38,-0.71 -50.76,40.39 -60.77,99.73 -10.01,59.35 22.87,73.91 40.03,73.64 1.08,24.24 2.99,63.16 2.99,63.16 8.7,5.6 15.25,-2.39 15.25,-2.39l-3.26 -61.89c34.96,-5.02 48.62,-26.86 48.3,-68.18z"/>
  <path class="fil5" d="M683.43 138.69c-0.36,-46.78 -17.16,-103.36 -42.54,-104.07 -25.38,-0.72 -50.76,40.39 -60.77,99.73 -10.01,59.34 22.86,73.91 40.02,73.64 1.09,24.24 2.99,63.16 2.99,63.16 8.7,5.6 15.26,-2.39 15.26,-2.39l-3.26 -61.89c34.96,-5.02 48.61,-26.86 48.3,-68.18z"/>
  <path class="fil5" d="M479.57 158.96c0,0 0,0.06 0.01,0.18 0,0 0,0 -0.01,0 0,-0.12 0,-0.18 0,-0.18zm50.8 -36.7c0.42,-0.08 0.84,-0.2 1.27,-0.36 9.4,-3.62 -7.06,-32.56 -11.3,-39.97 1.98,-1.05 2.32,-5.06 -0.36,-11.65 -7.05,-17.36 -23.6,-39.15 -23.6,-39.15 0,0 -15.73,8.86 -30.65,32.1 -10.52,18.23 -8.99,21.74 -3.53,17.91 -9.75,20.15 -19.88,43.11 -13.55,47.45 1.44,0.98 3.42,0.29 5.62,-1.36 -6.89,19.26 -14.84,46.02 -6.53,51.26 8.32,5.24 18.63,-25.63 18.63,-25.63 0,0 -5.97,30.87 4.16,31.42 1.76,0.09 3.18,-0.61 4.33,-1.84l-1.71 55.75c0,0 32.43,5.66 49.16,1.86 -2.39,-29.83 -6.53,-68.16 -6.53,-68.16 0,0 -0.04,-0.19 -0.12,-0.53 0.59,-7.83 -1.56,-17.46 -1.56,-17.46 0,0 9.22,26.04 22.42,22.6 13.2,-3.44 -6.14,-54.24 -6.15,-54.24z"/>
  <path class="fil1" d="M344.11 159.82c-7.72,2.35 -9.59,3.15 -9.39,-11.82 5.73,2.22 12.71,3.77 20.59,3.32 -0.05,0.07 -3.53,6.15 -11.2,8.5zm-15.67 13.72c-0.17,6.22 -5.32,2.19 -11.54,-3.59 -6.21,-5.79 -14.5,-12.69 -14.54,-22.66 6.01,-1.84 11.55,-5.2 15.25,-9.87 0,0 3.29,3.31 9.1,6.71 0.01,0.06 1.89,23.2 1.73,29.41zm40.99 -94c18.33,-16.4 0.81,-27.66 -12.14,-20.9 2.17,-21.87 -38.02,-45.02 -53.78,-5.15 -35.05,-9 -47.27,16.08 -50.49,26.69 -3.21,10.61 1.93,27.66 19.62,33.44 -11.58,15.44 -3.86,27.34 7.4,32.81 4.38,2.12 9.77,2.84 15.22,2.29 2.79,23.54 19.93,28.04 24.86,37.04 4.93,9.01 4.43,84.25 4.43,84.25 0,0 7.79,3.01 15.51,0 -0.43,-28.72 -4.29,-91.32 -2.14,-96.89 2.14,-5.58 23.59,-7.43 23.69,-22.58 4.13,-0.79 8.47,-2.16 12.97,-4.28 32.8,-15.43 28.29,-67.04 -5.15,-66.72z"/>
  <path class="fil1" d="M612.72 136.5c0,0 -0.01,-0.01 -0.03,-0.03 -0.37,-27.98 -23.52,-79.9 -66.02,-86.05 -34.64,-5.02 -57.4,21.13 -62.37,48.32 -13.65,66 7.41,142.04 53.97,147.26 1.43,1.18 6.29,4.3 13.35,-0.4 0.01,0 0.02,0 0.03,0 56.24,-9.22 65.76,-66.31 61.07,-109.1z"/>
  <path class="fil1" d="M161.22 153.41l-3.19 92.96c0,0 10.15,5.86 38.34,-2.13 -3.01,-52.85 -5.09,-102.9 -5.09,-102.9 0,0 -15.98,-6.41 -30.06,12.07z"/>
  <path class="fil1" d="M142.49 138.96c-13.81,15.42 -46.49,70.51 -37.57,81.85 8.91,11.33 35.21,-21.55 35.21,-21.55 0,0 -10.88,36.51 1.91,40.05 12.79,3.54 24.82,-35.69 24.82,-35.69 0,0 -3.8,40.55 11.39,40.04 15.18,-0.52 12.73,-39.56 12.73,-39.56 0,0 7.16,32.31 18.56,31.67 11.4,-0.65 3.24,-34.02 3.24,-34.02 0,0 16.35,35.72 31.46,27.28 15.12,-8.45 -29.11,-85.8 -29.11,-85.8 0,0 -16.08,-13.65 -32.92,-15.26 -16.83,-1.61 -32.69,-7.76 -39.72,10.99z"/>
  <path class="fil1" d="M146.51 95.3c-13.82,15.42 -49.12,59.71 -40.2,71.05 8.92,11.33 35.21,-21.55 35.21,-21.55 0,0 -10.87,36.52 1.92,40.06 12.79,3.54 24.82,-35.69 24.82,-35.69 0,0 -3.8,40.54 11.38,40.03 15.19,-0.51 12.73,-39.55 12.73,-39.55 0,0 7.17,32.3 18.57,31.66 11.4,-0.64 3.23,-34.02 3.23,-34.02 0,0 16.36,35.72 31.47,27.28 15.11,-8.45 -29.12,-85.8 -29.12,-85.8 0,0 -16.08,-13.65 -32.91,-15.26 -16.84,-1.61 -30.07,3.05 -37.1,21.79z"/>
  <path class="fil1" d="M175.27 45.3c0,0 -47.37,34.23 -57.05,55.27 -9.69,21.04 12.39,10.42 43.38,-18.51 -11.15,33.4 7.16,62.64 20.62,1.74 6.56,39.87 38.76,45.94 17.25,-0.54 26.29,27.54 65.9,38.55 33.85,-1.84 -26.61,-28.15 -58.05,-36.12 -58.05,-36.12z"/>
  <path class="fil6" d="M304.5 188.83l-21.57 -21.06c-0.72,47.1 0.25,101.24 0.25,101.24 0,0 12.39,4.71 22.82,2.09 -1.1,-11.41 -1.45,-47.09 -1.5,-82.27z"/>
  <path class="fil7" d="M225.74 167.98c0,0 0.01,-0.01 0.03,-0.03 0.35,-27.64 22.76,-78.94 63.88,-85.02 33.52,-4.96 55.54,20.88 60.35,47.75 13.21,65.21 -7.17,140.33 -52.22,145.49 -3.27,0.14 -7,1.11 -12.91,-0.39 -0.01,0 -0.03,0 -0.04,-0.01 -54.41,-9.1 -63.63,-65.51 -59.09,-107.79z"/>
  <path class="fil6" d="M536.72 256.64c0,0 13.87,-15.5 10.83,-17.26 -3.04,-1.75 -11.27,6.14 -11.27,6.14l0 0c-0.28,-7.02 -0.54,-13.91 -0.79,-20.46l0 0c0,0 13.36,-21.72 10.09,-23.15 -3.27,-1.42 -10.6,9.43 -10.6,9.43 -0.58,-15.74 -1.02,-28.09 -1.2,-33.23 0,0 13.27,-15.35 10.92,-18.05 -2.35,-2.7 -8.81,2.62 -8.81,2.62 0,0 3.15,-26.84 0.05,-27.44 -3.1,-0.61 -5.77,16.94 -5.77,16.94 0,0 -6.5,-16.08 -10.1,-14.58 -3.6,1.51 4.85,21.42 4.85,21.42 0,0 -8.65,-7.99 -10.9,-4.48 -2.25,3.51 10.36,20.63 10.36,20.63l0 0c-0.3,4.64 -0.38,12.19 -0.29,21.56l0 0c0,0 -6.24,-7.91 -9.26,-5.73 -3.02,2.17 9.41,16.66 9.41,16.66l0 0c0.11,5.85 0.25,12.13 0.43,18.66 0,0 -13.7,-9.98 -15.16,-5.62 -1.47,4.36 15.53,17.87 15.53,17.87l0 0c1.46,46.77 4.05,100.3 4.05,100.3 0,0 6.42,3.06 11.58,-0.89 -1,-11.17 -2.56,-46.48 -3.95,-81.34l0 0z"/>
  <path class="fil8" d="M528.69 266.11c-25.53,-0.74 -30.37,-21.55 -31.02,-79.34 -0.65,-57.8 15.02,-110.04 31.02,-110.37 16,-0.32 21.88,48.33 29.39,103.51 7.51,55.18 4.57,87.18 -29.39,86.2z"/>
  <path class="fil9" d="M386.08 317.19c-14.85,-0.01 -40.63,-0.3 -49.31,-11.3 -8.69,-11.01 -11.88,-71.24 -3.19,-118.44 8.69,-47.2 34.46,-63.12 101.06,-60.52 66.6,2.61 89.48,12.16 95.56,98.17 6.08,86 -24.28,94.38 -63.97,95.55 -39.7,1.16 -80.15,-3.46 -80.15,-3.46z"/>
  <path class="fil6" d="M466.41 303.57c11.21,-14.76 35.41,-38.51 28.75,-43.15 -6.66,-4.63 -19.4,14.77 -28.72,26.36 0,0 -0.01,0.03 -0.04,0.09 -0.24,-31.13 -1.95,-56.04 -7.29,-62.64 -10.55,-13.03 -45.61,-6.52 -54.73,0 -7.91,5.65 -12.23,26.35 -16.07,66.32l0 0c-11.58,-5.49 -22.3,-20.28 -26.35,-14.49 -4.05,5.79 12.45,22.88 25.15,27.8 0,0 -0.36,4.2 -0.54,6.37 -4.34,52.99 3.48,132.91 3.48,132.91 18.68,12.6 49.08,-5.64 76.01,0 -3,-24.49 0.04,-87.22 0.35,-139.57l0 0z"/>
  <path class="fil8" d="M474.44 261.89c-0.68,0 -1.35,-0.32 -1.77,-0.91 -0.7,-0.98 -0.47,-2.34 0.5,-3.03l14.19 -10.14c0.98,-0.7 2.33,-0.47 3.03,0.51 0.7,0.97 0.47,2.33 -0.5,3.02l-14.19 10.14c-0.38,0.27 -0.83,0.41 -1.26,0.41z"/>
  <path class="fil8" d="M499.63 243.93c-0.77,0 -1.52,-0.41 -1.91,-1.13 -0.57,-1.06 -0.18,-2.38 0.87,-2.95l10.14 -5.5c1.05,-0.57 2.37,-0.18 2.94,0.87 0.57,1.06 0.18,2.37 -0.87,2.95l-10.14 5.5c-0.33,0.18 -0.68,0.26 -1.03,0.26z"/>
  <path class="fil8" d="M503.39 256.67c-0.67,0 -1.34,-0.31 -1.76,-0.91 -0.7,-0.97 -0.48,-2.33 0.5,-3.03l10.14 -7.24c0.97,-0.69 2.33,-0.47 3.03,0.51 0.69,0.98 0.47,2.33 -0.51,3.03l-10.14 7.24c-0.38,0.27 -0.82,0.4 -1.26,0.4z"/>
  <path class="fil8" d="M490.65 289.97c-0.55,0 -1.11,-0.21 -1.53,-0.63 -0.85,-0.85 -0.85,-2.23 0,-3.07l21.13 -21.14c0.85,-0.85 2.23,-0.85 3.08,0 0.84,0.85 0.84,2.22 0,3.07l-21.14 21.14c-0.43,0.42 -0.98,0.63 -1.54,0.63z"/>
  <path class="fil8" d="M472.41 312.85c-0.86,0 -1.68,-0.52 -2.02,-1.37 -0.44,-1.12 0.1,-2.38 1.22,-2.82l15.35 -6.08c1.11,-0.45 2.37,0.1 2.82,1.22 0.44,1.11 -0.11,2.37 -1.22,2.82l-15.35 6.08c-0.26,0.1 -0.53,0.15 -0.8,0.15z"/>
  <path class="fil8" d="M498.47 300.4c-0.77,0 -1.51,-0.41 -1.91,-1.13 -0.57,-1.06 -0.18,-2.38 0.87,-2.95l12.74 -6.95c1.05,-0.58 2.37,-0.19 2.95,0.87 0.57,1.05 0.18,2.37 -0.87,2.94l-12.74 6.95c-0.33,0.18 -0.69,0.27 -1.04,0.27z"/>
  <path class="fil8" d="M477.04 240.17c-0.76,0 -1.51,-0.41 -1.9,-1.13 -0.58,-1.06 -0.19,-2.38 0.86,-2.95l21.72 -11.87c1.05,-0.58 2.37,-0.19 2.94,0.86 0.58,1.05 0.19,2.37 -0.86,2.95l-21.72 11.87c-0.33,0.18 -0.69,0.27 -1.04,0.27z"/>
  <path class="fil8" d="M509.48 221.63c-0.77,0 -1.51,-0.4 -1.9,-1.11 -0.59,-1.05 -0.21,-2.37 0.84,-2.96l7.82 -4.34c1.05,-0.58 2.37,-0.2 2.95,0.84 0.58,1.05 0.2,2.38 -0.84,2.96l-7.82 4.34c-0.34,0.19 -0.7,0.27 -1.05,0.27z"/>
  <path class="fil8" d="M470.96 222.5c-0.64,0 -1.27,-0.28 -1.7,-0.82 -0.75,-0.94 -0.59,-2.31 0.35,-3.05l15.35 -12.16c0.94,-0.75 2.31,-0.59 3.05,0.35 0.75,0.94 0.59,2.31 -0.35,3.05l-15.35 12.16c-0.4,0.32 -0.87,0.47 -1.35,0.47z"/>
  <path class="fil8" d="M495.29 200.78c-0.75,0 -1.47,-0.38 -1.88,-1.06 -0.6,-1.04 -0.26,-2.37 0.77,-2.98l11.3 -6.66c1.03,-0.61 2.36,-0.26 2.97,0.77 0.61,1.03 0.26,2.36 -0.77,2.97l-11.29 6.66c-0.35,0.21 -0.73,0.3 -1.1,0.3z"/>
  <path class="fil8" d="M476.46 198.47c-0.64,0 -1.28,-0.29 -1.71,-0.84 -0.74,-0.95 -0.57,-2.31 0.38,-3.05l15.64 -12.16c0.94,-0.73 2.31,-0.56 3.04,0.38 0.74,0.95 0.57,2.31 -0.38,3.05l-15.63 12.16c-0.4,0.31 -0.87,0.46 -1.34,0.46z"/>
  <path class="fil8" d="M453 207.73c-0.35,0 -0.72,-0.08 -1.06,-0.27 -1.04,-0.59 -1.41,-1.91 -0.83,-2.96l6.66 -11.87c0.59,-1.05 1.91,-1.42 2.96,-0.83 1.05,0.58 1.42,1.91 0.83,2.95l-6.66 11.88c-0.4,0.71 -1.14,1.1 -1.9,1.1z"/>
  <path class="fil8" d="M467.77 173.28c-0.46,0 -0.93,-0.15 -1.32,-0.46 -0.95,-0.73 -1.13,-2.09 -0.39,-3.04l9.84 -12.74c0.74,-0.95 2.1,-1.13 3.05,-0.4 0.95,0.74 1.12,2.1 0.39,3.05l-9.85 12.74c-0.42,0.56 -1.07,0.85 -1.72,0.85z"/>
  <path class="fil8" d="M493.26 167.2c-0.48,0 -0.96,-0.16 -1.36,-0.49 -0.94,-0.75 -1.09,-2.11 -0.33,-3.05l8.39 -10.42c0.76,-0.94 2.12,-1.09 3.06,-0.33 0.93,0.75 1.08,2.12 0.33,3.05l-8.4 10.43c-0.43,0.53 -1.06,0.81 -1.69,0.81z"/>
  <path class="fil8" d="M437.95 213.24c-0.22,0 -0.45,-0.04 -0.68,-0.11 -1.14,-0.37 -1.76,-1.6 -1.38,-2.74l5.21 -15.93c0.37,-1.14 1.6,-1.76 2.74,-1.39 1.14,0.38 1.76,1.6 1.39,2.74l-5.22 15.93c-0.3,0.92 -1.15,1.5 -2.06,1.5z"/>
  <path class="fil8" d="M448.09 182.83c-0.2,0 -0.4,-0.02 -0.6,-0.08 -1.15,-0.33 -1.82,-1.53 -1.49,-2.68l4.34 -15.35c0.33,-1.15 1.52,-1.82 2.68,-1.5 1.15,0.33 1.82,1.53 1.5,2.68l-4.35 15.35c-0.27,0.96 -1.14,1.58 -2.08,1.58z"/>
  <path class="fil8" d="M456.48 154.16c-0.37,0 -0.75,-0.09 -1.09,-0.29 -1.04,-0.61 -1.39,-1.94 -0.78,-2.97l6.95 -11.88c0.6,-1.03 1.93,-1.38 2.97,-0.77 1.03,0.6 1.38,1.93 0.78,2.97l-6.95 11.87c-0.41,0.69 -1.13,1.07 -1.88,1.07z"/>
  <path class="fil8" d="M428.98 200.21c-0.12,0 -0.25,-0.01 -0.37,-0.03 -1.18,-0.2 -1.98,-1.32 -1.78,-2.51l3.19 -18.82c0.2,-1.18 1.33,-1.98 2.5,-1.78 1.18,0.2 1.98,1.32 1.78,2.5l-3.19 18.83c-0.17,1.06 -1.09,1.81 -2.13,1.81z"/>
  <path class="fil8" d="M435.63 159.67c-0.18,0 -0.37,-0.03 -0.56,-0.08 -1.15,-0.31 -1.84,-1.49 -1.54,-2.65l4.93 -18.53c0.31,-1.16 1.5,-1.86 2.65,-1.55 1.16,0.31 1.85,1.5 1.55,2.66l-4.93 18.53c-0.26,0.97 -1.14,1.62 -2.1,1.62z"/>
  <path class="fil8" d="M417.1 213.53c-1.13,0 -2.08,-0.87 -2.16,-2.01l-1.45 -19.4c-0.09,-1.2 0.81,-2.24 2,-2.33 1.19,-0.1 2.24,0.81 2.33,2l1.45 19.4c0.09,1.2 -0.81,2.24 -2.01,2.33 -0.05,0 -0.11,0.01 -0.16,0.01z"/>
  <path class="fil8" d="M413.63 174.72c-1.18,0 -2.15,-0.94 -2.17,-2.12l-0.58 -26.93c-0.03,-1.2 0.92,-2.19 2.12,-2.22 0.02,0 0.03,0 0.05,0 1.18,0 2.14,0.94 2.17,2.13l0.58 26.93c0.02,1.19 -0.93,2.19 -2.13,2.21 -0.01,0 -0.03,0 -0.04,0z"/>
  <path class="fil8" d="M404.36 189.49c-1.02,0 -1.93,-0.72 -2.13,-1.76l-2.9 -15.06c-0.22,-1.18 0.55,-2.31 1.72,-2.54 1.18,-0.22 2.32,0.54 2.55,1.72l2.89 15.06c0.23,1.18 -0.54,2.32 -1.72,2.54 -0.14,0.03 -0.28,0.04 -0.41,0.04z"/>
  <path class="fil8" d="M397.41 157.93c-1.06,0 -1.99,-0.78 -2.15,-1.85l-2.03 -13.61c-0.17,-1.19 0.65,-2.29 1.83,-2.47 1.19,-0.18 2.29,0.64 2.47,1.83l2.03 13.61c0.17,1.18 -0.64,2.29 -1.83,2.47 -0.11,0.01 -0.22,0.02 -0.32,0.02z"/>
  <path class="fil8" d="M400.59 217.29c-0.95,0 -1.82,-0.63 -2.09,-1.59l-6.66 -24.03c-0.32,-1.16 0.36,-2.36 1.51,-2.68 1.16,-0.32 2.36,0.36 2.68,1.51l6.66 24.04c0.32,1.16 -0.36,2.35 -1.51,2.67 -0.2,0.06 -0.39,0.08 -0.59,0.08z"/>
  <path class="fil8" d="M385.25 170.09c-0.92,0 -1.78,-0.59 -2.07,-1.51l-5.79 -18.25c-0.37,-1.14 0.27,-2.36 1.41,-2.72 1.14,-0.37 2.36,0.26 2.73,1.41l5.79 18.24c0.36,1.14 -0.27,2.37 -1.41,2.73 -0.22,0.07 -0.44,0.1 -0.66,0.1z"/>
  <path class="fil8" d="M383.22 205.42c-0.87,0 -1.69,-0.53 -2.02,-1.39l-12.16 -31.27c-0.44,-1.12 0.11,-2.37 1.23,-2.81 1.12,-0.43 2.38,0.12 2.81,1.24l12.16 31.27c0.44,1.12 -0.11,2.38 -1.23,2.81 -0.26,0.1 -0.53,0.15 -0.79,0.15z"/>
  <path class="fil8" d="M375.98 218.16c-0.5,0 -1,-0.17 -1.41,-0.52l-18.24 -15.64c-0.91,-0.78 -1.02,-2.15 -0.24,-3.06 0.78,-0.91 2.15,-1.02 3.06,-0.24l18.25 15.64c0.91,0.78 1.01,2.15 0.23,3.06 -0.43,0.5 -1.04,0.76 -1.65,0.76z"/>
  <path class="fil8" d="M359.48 184.57c-0.6,0 -1.2,-0.25 -1.63,-0.73l-11.87 -13.32c-0.8,-0.89 -0.72,-2.27 0.18,-3.06 0.9,-0.8 2.27,-0.72 3.06,0.17l11.88 13.32c0.8,0.9 0.72,2.27 -0.18,3.07 -0.41,0.37 -0.93,0.55 -1.44,0.55z"/>
  <path class="fil8" d="M383.8 238.14c-0.3,0 -0.6,-0.06 -0.89,-0.19l-14.77 -6.66c-1.09,-0.49 -1.58,-1.78 -1.09,-2.87 0.5,-1.1 1.78,-1.59 2.87,-1.09l14.77 6.66c1.1,0.49 1.58,1.78 1.09,2.87 -0.36,0.8 -1.15,1.28 -1.98,1.28z"/>
  <path class="fil8" d="M352.52 227.72c-0.31,0 -0.64,-0.07 -0.94,-0.22l-11.3 -5.51c-1.08,-0.52 -1.52,-1.82 -1,-2.9 0.53,-1.08 1.83,-1.52 2.9,-1l11.3 5.5c1.08,0.53 1.52,1.83 1,2.9 -0.38,0.78 -1.15,1.23 -1.96,1.23z"/>
  <path class="fil8" d="M381.19 258.7c-0.24,0 -0.49,-0.04 -0.73,-0.13l-11.29 -4.05c-1.13,-0.41 -1.72,-1.65 -1.31,-2.78 0.4,-1.13 1.65,-1.71 2.78,-1.31l11.29 4.05c1.13,0.41 1.71,1.65 1.31,2.78 -0.32,0.89 -1.15,1.44 -2.05,1.44z"/>
  <path class="fil8" d="M359.76 247.7c-0.26,0 -0.54,-0.05 -0.8,-0.16l-17.37 -6.95c-1.12,-0.44 -1.66,-1.71 -1.21,-2.82 0.44,-1.11 1.7,-1.66 2.82,-1.21l17.37 6.95c1.12,0.44 1.66,1.71 1.21,2.82 -0.34,0.85 -1.15,1.37 -2.02,1.37z"/>
  <path class="fil8" d="M369.9 269.13c-0.16,0 -0.33,-0.02 -0.5,-0.06l-24.33 -5.8c-1.16,-0.27 -1.88,-1.45 -1.61,-2.61 0.28,-1.17 1.46,-1.89 2.62,-1.61l24.32 5.79c1.17,0.28 1.89,1.45 1.61,2.62 -0.23,0.99 -1.12,1.67 -2.11,1.67z"/>
  <path class="fil8" d="M347.61 295.76c-0.71,0 -1.41,-0.34 -1.82,-0.98 -0.66,-1 -0.38,-2.35 0.63,-3l7.52 -4.93c1.01,-0.65 2.35,-0.37 3.01,0.63 0.66,1.01 0.37,2.35 -0.63,3.01l-7.53 4.92c-0.36,0.24 -0.78,0.35 -1.18,0.35z"/>
  <path class="fil8" d="M359.48 307.35c-0.74,0 -1.47,-0.38 -1.87,-1.07 -0.61,-1.03 -0.27,-2.36 0.76,-2.97l6.37 -3.77c1.03,-0.61 2.37,-0.27 2.98,0.77 0.61,1.03 0.27,2.36 -0.77,2.97l-6.37 3.77c-0.35,0.2 -0.73,0.3 -1.1,0.3z"/>
  <path class="fil9" d="M641.02 457.93c-0.14,-0.12 -0.34,-0.13 -0.5,-0.04 -2.63,1.57 -5.08,3.41 -7.21,5.21 0.99,-1.61 1.84,-3.37 2.36,-5.19 0.05,-0.17 -0.01,-0.36 -0.15,-0.47 -0.15,-0.11 -0.34,-0.12 -0.5,-0.03 -2.27,1.36 -4.15,3.48 -5.64,5.65 1.36,-6.85 -0.42,-11.39 -0.53,-11.64 -0.18,-0.45 -0.69,-0.67 -1.14,-0.48 -0.45,0.18 -0.66,0.69 -0.48,1.14 0.03,0.09 2.72,7.04 -1.47,16.58 -0.68,-2.77 -2.47,-7.14 -7.13,-9.76 -0.14,-0.07 -0.31,-0.07 -0.44,0.01 -0.14,0.08 -0.22,0.22 -0.22,0.38 0.08,7.19 7.2,12.07 7.52,12.3l0 0 0.01 0c0,0 0,0 0.01,0 0.02,0.02 0.05,0.03 0.08,0.04 0.01,0 0.02,0.01 0.02,0.01 0.01,0 0.01,0 0.01,0 0.04,0.01 0.08,0.02 0.12,0.02 0.02,0 0.03,0 0.05,0 0.12,-0.01 11.65,-1.42 15.38,-13.26 0.05,-0.17 -0.01,-0.36 -0.15,-0.47z"/>
  <path class="fil10" d="M627.79 437.73c-1.06,-0.31 -1.12,-3.13 -3.92,-2.97 -2.81,0.16 -2.65,2.69 -4.05,3.93 -1.4,1.24 -4.36,-0.12 -5.76,2.2 -1.41,2.32 -0.41,4.45 1.92,5.49 2.32,1.04 3.12,1.96 2.56,5.08 -0.56,3.13 5.57,5.33 7.85,1.85 2.28,-3.49 3.57,-0.24 6.97,-1.45 3.41,-1.2 4.17,-6.4 1.6,-8.65 -2.56,-2.24 -0.12,-4.24 -2.32,-5.64 -2.2,-1.41 -3.32,0.6 -4.85,0.16z"/>
  <path class="fil11" d="M626.15 442.13c-1.31,-1.6 -4.04,0.6 -2.76,2.44 1.28,1.85 4.2,-0.68 2.76,-2.44z"/>
  <path class="fil9" d="M580.71 451.24c0.07,-0.36 -0.17,-0.7 -0.52,-0.77 -0.36,-0.07 -0.7,0.16 -0.77,0.52 -0.78,3.94 -5.06,5.61 -7.43,6.23 1.72,-2.64 2.86,-6.12 2.34,-10.6 -0.05,-0.36 -0.38,-0.62 -0.74,-0.58 -0.36,0.05 -0.62,0.37 -0.57,0.73 0.3,2.62 0.01,4.85 -0.64,6.75 -0.68,-0.73 -1.82,-1.32 -2.68,-1.32 -0.48,0 -0.76,0.19 -0.91,0.35 -0.27,0.28 -0.32,0.67 -0.15,1.08 0.36,0.83 1.71,1.82 2.75,2.11 -0.39,0.7 -0.83,1.35 -1.29,1.94 -0.1,0.07 -0.17,0.16 -0.22,0.27 -2.18,2.63 -4.88,4.1 -6.27,4.73 0.01,-1.47 0.04,-2.91 0.1,-4.31 1.09,-0.03 2.45,-1.56 2.91,-2.61 0.38,-0.86 0.18,-1.35 -0.06,-1.6 -0.27,-0.3 -0.61,-0.45 -0.99,-0.45 -0.65,0 -1.24,0.45 -1.66,0.88 0.22,-3.24 0.55,-6.18 0.88,-8.68 1.07,-0.07 2.92,-1.08 3.4,-2.08 0.22,-0.45 0.18,-0.89 -0.1,-1.24 -0.14,-0.17 -0.39,-0.37 -0.84,-0.37 -0.58,0 -1.37,0.36 -2.04,0.86 0.58,-3.65 1.1,-5.84 1.11,-5.91 0.09,-0.35 -0.13,-0.71 -0.48,-0.79 -0.36,-0.09 -0.71,0.13 -0.8,0.48 -0.02,0.12 -1.61,6.83 -2.36,16.49 -0.71,-0.7 -1.28,-1.57 -1.75,-2.51 -0.01,-0.01 -0.01,-0.01 -0.01,-0.02 -0.25,-0.49 -0.47,-1.01 -0.66,-1.53 0.64,-0.38 1.2,-1.37 1.46,-2 0.28,-0.68 0.66,-1.91 0.02,-2.54 -0.18,-0.19 -0.42,-0.28 -0.67,-0.28 -0.67,0 -1.21,0.64 -1.48,1.02 -0.09,0.12 -0.17,0.26 -0.25,0.4 -0.44,-2.31 -0.49,-4.14 -0.49,-4.18 0,-0.36 -0.3,-0.65 -0.65,-0.65 -0.01,0 -0.01,0 -0.02,0 -0.36,0.01 -0.65,0.3 -0.64,0.67 0,0.28 0.11,4.87 1.81,8.85 -4.43,0.18 -7.62,-6.76 -7.66,-6.84 -0.15,-0.33 -0.54,-0.48 -0.87,-0.33 -0.33,0.15 -0.48,0.54 -0.33,0.87 0.08,0.17 0.94,2.06 2.43,3.91 -0.62,0.07 -1.32,0.3 -1.72,0.83 -0.28,0.37 -0.36,0.83 -0.22,1.31 0.18,0.63 0.68,0.99 1.37,0.99 0.85,0 1.91,-0.55 2.44,-1.19 1.24,1.03 2.71,1.78 4.37,1.78 0.26,0 0.53,-0.02 0.81,-0.06 0.11,0.2 0.22,0.4 0.34,0.59 -0.97,0.36 -2.12,1.31 -2.49,2.17 -0.24,0.54 -0.17,1.04 0.17,1.41 0.27,0.29 0.62,0.44 1,0.44 1.07,0 2.2,-1.21 2.7,-2.24 0.27,0.28 0.56,0.54 0.87,0.77 -0.17,2.69 -0.27,5.57 -0.26,8.59 -0.01,0.06 -0.01,0.13 0,0.19 0.02,2.66 0.12,5.41 0.35,8.21 -2.8,-1.16 -4.91,-3.06 -6.48,-5.1 0.76,-0.79 1.28,-2.63 1.36,-3.74 0.15,-1.82 -0.6,-2.21 -1.05,-2.28 -0.9,-0.15 -1.65,0.67 -2.04,2.17 -0.07,0.28 -0.13,0.59 -0.17,0.92 -1.78,-3.31 -2.34,-6.25 -2.35,-6.31 -0.07,-0.36 -0.41,-0.6 -0.77,-0.53 -0.35,0.06 -0.59,0.4 -0.53,0.76 0.04,0.2 0.41,2.17 1.49,4.69 -0.1,0 -0.2,-0.01 -0.3,-0.01 -1.08,0 -2.52,0.35 -3.15,1.12 -0.27,0.33 -0.37,0.71 -0.29,1.1 0.06,0.29 0.32,0.98 1.52,0.98 1.03,0 2.42,-0.51 3.21,-1.12 0.97,1.8 2.28,3.69 4.05,5.34 -0.74,0.3 -1.45,0.91 -1.77,1.58 -0.3,0.6 -0.26,1.2 0.12,1.68 0.25,0.32 0.59,0.49 0.98,0.49 1.06,0 2.2,-1.26 2.59,-2.2 1.1,0.76 2.33,1.42 3.71,1.93 0.1,0.98 0.21,1.98 0.34,2.98 0.04,0.33 0.33,0.57 0.65,0.57 0.03,0 0.06,0 0.09,-0.01 0.36,-0.04 0.61,-0.37 0.57,-0.73 -0.2,-1.56 -0.36,-3.12 -0.49,-4.65 1.41,-0.05 4.24,-1.77 4.65,-3.08 0.15,-0.47 0.02,-0.89 -0.37,-1.16 -0.3,-0.22 -0.68,-0.33 -1.1,-0.33 -1.14,0 -2.5,0.82 -3.36,1.7 -0.08,-1.57 -0.13,-3.12 -0.14,-4.64 0.65,-0.27 1.94,-0.89 3.41,-1.9 0.44,1.04 1.79,2.47 2.95,2.47l0 0c0.3,0 0.57,-0.1 0.79,-0.29 0.18,-0.17 0.45,-0.55 0.19,-1.25 -0.31,-0.81 -1.25,-1.82 -2.15,-2.3 0.67,-0.58 1.34,-1.25 1.98,-2 0.62,-0.09 2.43,-0.44 4.35,-1.31 0.4,0.92 1.71,1.87 2.67,1.87 0.25,0 0.48,-0.06 0.66,-0.18 0.43,-0.27 0.58,-0.77 0.41,-1.33 -0.18,-0.63 -0.75,-1.31 -1.44,-1.7 1.53,-1.13 2.83,-2.72 3.27,-4.94z"/>
  <path class="fil12" d="M556.49 439.29c0,0 -1.04,-1.12 -0.86,-2.51 0.19,-1.39 2.62,-1.52 2.86,1.89 1.28,-1.41 5.02,1.02 1.15,1.77 2.91,1.38 1.01,4.24 -1.44,1.28 -0.57,2.8 -2.89,2.8 -2.03,0.18 -2.62,0.4 -3.88,-3.68 0.32,-2.61z"/>
  <path class="fil12" d="M548.66 443.35c0,0 -1.65,0.53 -2.43,-0.35 -0.77,-0.88 -0.05,-2.76 2.59,-1.76 -0.5,-2.54 3.77,-3.34 3.05,0.61 2.08,-0.11 2.77,3.85 -0.78,2.16 0.27,2.43 -2.93,3.4 -2.43,-0.66z"/>
  <path class="fil12" d="M565.83 433.71c0,0 0.19,-1.55 0.94,-2.51 0.74,-0.96 2.53,-1.18 2.4,0.75 -0.13,1.92 -1.66,3.04 -1.66,3.04 0,0 2.22,-0.99 3.18,-0.32 0.96,0.67 0.83,1.92 -0.51,2.08 -1.33,0.16 -2.61,0 -2.61,0 0,0 1.33,0.78 1.73,2.24 0.4,1.47 -1.6,1.77 -2.61,0.22 -1.02,-1.55 -0.86,-2.46 -0.86,-2.46 0,0 -0.83,1.76 -2.51,1.84 -1.68,0.08 -2.21,-1.98 1.5,-3.36 -3.69,-0.56 -2.99,-3.28 -1.5,-3.45 1.5,-0.16 2.51,1.93 2.51,1.93z"/>
  <path class="fil12" d="M549.71 455.24c0,0 -0.64,-1.21 -0.59,-2.27 0.06,-1.08 1.24,-2.13 2.11,-0.67 0.87,1.45 0.33,3.03 0.33,3.03 0,0 1.11,-1.84 2.14,-1.84 1.03,0 1.56,0.97 0.68,1.76 -0.88,0.79 -1.89,1.32 -1.89,1.32 0,0 1.36,-0.12 2.38,0.74 1.03,0.86 -0.27,2.08 -1.78,1.47 -1.51,-0.61 -1.85,-1.34 -1.85,-1.34 0,0 0.29,1.69 -0.88,2.59 -1.17,0.9 -2.59,-0.32 -0.61,-3.18 -2.94,1.45 -3.81,-0.86 -2.82,-1.73 1,-0.87 2.78,0.12 2.78,0.12z"/>
  <path class="fil12" d="M580.9 448.57c0,0 0.58,-1.24 1.47,-1.84 0.89,-0.59 2.44,-0.28 1.8,1.29 -0.64,1.57 -2.23,2.08 -2.23,2.08 0,0 2.13,-0.21 2.75,0.61 0.62,0.83 0.16,1.84 -1,1.6 -1.15,-0.23 -2.18,-0.72 -2.18,-0.72 0,0 0.9,1.02 0.83,2.35 -0.07,1.34 -1.82,1.03 -2.24,-0.54 -0.42,-1.57 -0.04,-2.29 -0.04,-2.29 0,0 -1.18,1.24 -2.6,0.85 -1.43,-0.4 -1.3,-2.27 2.17,-2.4 -2.92,-1.48 -1.59,-3.56 -0.29,-3.29 1.29,0.28 1.56,2.3 1.56,2.3z"/>
  <path class="fil12" d="M571.96 444.27c0,0 -1.04,-1.12 -0.85,-2.51 0.18,-1.39 2.61,-1.52 2.85,1.89 2.01,-1.39 4.29,0.53 1.15,1.77 2.91,1.38 1.02,4.24 -1.44,1.28 -0.56,2.8 -2.88,2.8 -2.03,0.18 -2.62,0.4 -3.87,-3.68 0.32,-2.61z"/>
  <path class="fil11" d="M567.11 435.35c0,0.33 -0.26,0.6 -0.6,0.6 -0.33,0 -0.6,-0.27 -0.6,-0.6 0,-0.33 0.27,-0.6 0.6,-0.6 0.34,0 0.6,0.27 0.6,0.6z"/>
  <path class="fil11" d="M573.93 445.48c0,0.33 -0.27,0.6 -0.6,0.6 -0.33,0 -0.6,-0.27 -0.6,-0.6 0,-0.33 0.27,-0.6 0.6,-0.6 0.33,0 0.6,0.27 0.6,0.6z"/>
  <path class="fil11" d="M581.39 450.09c0,0.33 -0.27,0.6 -0.6,0.6 -0.34,0 -0.61,-0.27 -0.61,-0.6 0,-0.34 0.27,-0.6 0.61,-0.6 0.33,0 0.6,0.26 0.6,0.6z"/>
  <path class="fil11" d="M558.15 440.24c0,0.33 -0.26,0.6 -0.6,0.6 -0.33,0 -0.6,-0.27 -0.6,-0.6 0,-0.33 0.27,-0.6 0.6,-0.6 0.34,0 0.6,0.27 0.6,0.6z"/>
  <path class="fil11" d="M550.89 442.19c0,0.33 -0.27,0.6 -0.6,0.6 -0.33,0 -0.6,-0.27 -0.6,-0.6 0,-0.33 0.27,-0.6 0.6,-0.6 0.33,0 0.6,0.27 0.6,0.6z"/>
  <path class="fil11" d="M551.49 456.3c0,0.33 -0.27,0.6 -0.6,0.6 -0.33,0 -0.6,-0.27 -0.6,-0.6 0,-0.33 0.27,-0.6 0.6,-0.6 0.33,0 0.6,0.27 0.6,0.6z"/>
  <path class="fil8" d="M289.46 389.49c0.07,-0.36 -0.17,-0.71 -0.52,-0.78 -0.36,-0.07 -0.7,0.17 -0.77,0.52 -0.77,3.95 -5.05,5.61 -7.43,6.24 1.72,-2.64 2.86,-6.12 2.34,-10.6 -0.05,-0.36 -0.37,-0.62 -0.74,-0.58 -0.36,0.04 -0.62,0.37 -0.57,0.73 0.3,2.61 0.01,4.85 -0.64,6.75 -0.68,-0.73 -1.82,-1.32 -2.68,-1.32 -0.48,0 -0.76,0.19 -0.91,0.35 -0.27,0.27 -0.32,0.67 -0.14,1.08 0.35,0.83 1.7,1.82 2.74,2.11 -0.39,0.7 -0.82,1.35 -1.29,1.94 -0.1,0.07 -0.17,0.16 -0.22,0.27 -2.18,2.62 -4.88,4.09 -6.27,4.72 0.01,-1.47 0.04,-2.91 0.1,-4.3 1.09,-0.04 2.45,-1.56 2.91,-2.61 0.38,-0.87 0.18,-1.35 -0.06,-1.61 -0.27,-0.29 -0.61,-0.45 -0.99,-0.45 -0.65,0 -1.24,0.45 -1.66,0.89 0.22,-3.24 0.55,-6.18 0.89,-8.68 1.07,-0.07 2.91,-1.08 3.39,-2.08 0.22,-0.45 0.18,-0.89 -0.1,-1.25 -0.14,-0.16 -0.39,-0.36 -0.84,-0.36 -0.58,0 -1.36,0.35 -2.04,0.86 0.58,-3.65 1.1,-5.85 1.11,-5.91 0.09,-0.36 -0.13,-0.71 -0.48,-0.79 -0.36,-0.09 -0.71,0.13 -0.8,0.48 -0.02,0.11 -1.61,6.83 -2.36,16.49 -0.7,-0.71 -1.28,-1.57 -1.75,-2.51 0,-0.01 -0.01,-0.01 -0.01,-0.02 -0.25,-0.5 -0.46,-1.01 -0.66,-1.54 0.65,-0.37 1.2,-1.36 1.46,-2 0.28,-0.67 0.66,-1.9 0.03,-2.53 -0.19,-0.19 -0.43,-0.29 -0.68,-0.29 -0.67,0 -1.21,0.64 -1.48,1.03 -0.09,0.12 -0.17,0.25 -0.25,0.39 -0.44,-2.3 -0.48,-4.14 -0.48,-4.18 -0.01,-0.36 -0.3,-0.64 -0.66,-0.64 -0.01,0 -0.01,0 -0.01,0 -0.37,0 -0.66,0.3 -0.65,0.67 0,0.27 0.11,4.87 1.82,8.85 -4.44,0.18 -7.63,-6.77 -7.67,-6.84 -0.14,-0.33 -0.53,-0.48 -0.87,-0.33 -0.33,0.15 -0.47,0.54 -0.33,0.87 0.08,0.17 0.95,2.06 2.43,3.91 -0.62,0.06 -1.32,0.3 -1.72,0.83 -0.28,0.37 -0.36,0.82 -0.22,1.31 0.18,0.63 0.68,0.99 1.37,0.99 0.85,0 1.91,-0.55 2.44,-1.2 1.24,1.03 2.71,1.79 4.37,1.79 0.26,0 0.53,-0.02 0.81,-0.06 0.11,0.2 0.22,0.39 0.34,0.59 -0.97,0.36 -2.12,1.31 -2.49,2.17 -0.24,0.54 -0.17,1.04 0.17,1.4 0.27,0.29 0.62,0.45 1,0.45 1.07,0 2.2,-1.21 2.7,-2.25 0.27,0.28 0.56,0.54 0.87,0.78 -0.17,2.69 -0.27,5.57 -0.26,8.58 -0.01,0.07 -0.01,0.13 0,0.2 0.02,2.65 0.12,5.41 0.35,8.21 -2.8,-1.17 -4.91,-3.06 -6.48,-5.1 0.77,-0.79 1.28,-2.63 1.36,-3.74 0.15,-1.82 -0.6,-2.22 -1.05,-2.29 -0.9,-0.14 -1.65,0.68 -2.04,2.18 -0.07,0.28 -0.12,0.59 -0.17,0.91 -1.78,-3.3 -2.34,-6.25 -2.35,-6.3 -0.06,-0.36 -0.4,-0.6 -0.77,-0.54 -0.35,0.07 -0.59,0.41 -0.53,0.77 0.04,0.2 0.41,2.17 1.49,4.69 -0.1,-0.01 -0.2,-0.01 -0.3,-0.01 -1.08,0 -2.52,0.35 -3.15,1.12 -0.27,0.32 -0.37,0.7 -0.29,1.09 0.06,0.3 0.32,0.99 1.52,0.99 1.03,0 2.42,-0.52 3.22,-1.12 0.96,1.79 2.28,3.69 4.04,5.33 -0.74,0.31 -1.45,0.92 -1.77,1.58 -0.3,0.61 -0.26,1.2 0.12,1.69 0.25,0.32 0.59,0.49 0.98,0.49 1.06,0 2.2,-1.26 2.6,-2.2 1.09,0.76 2.32,1.42 3.71,1.92 0.09,0.99 0.2,1.98 0.33,2.98 0.05,0.33 0.33,0.58 0.65,0.58 0.03,0 0.06,-0.01 0.09,-0.01 0.36,-0.05 0.62,-0.38 0.57,-0.74 -0.2,-1.56 -0.36,-3.11 -0.49,-4.65 1.41,-0.04 4.24,-1.76 4.66,-3.08 0.14,-0.46 0.01,-0.89 -0.38,-1.16 -0.3,-0.21 -0.67,-0.32 -1.1,-0.32 -1.14,0 -2.5,0.82 -3.36,1.7 -0.08,-1.57 -0.13,-3.12 -0.14,-4.64 0.65,-0.28 1.94,-0.89 3.41,-1.9 0.44,1.04 1.79,2.47 2.95,2.47l0 0c0.3,0 0.58,-0.1 0.79,-0.3 0.19,-0.16 0.45,-0.54 0.19,-1.24 -0.31,-0.81 -1.25,-1.82 -2.15,-2.31 0.67,-0.58 1.34,-1.24 1.98,-1.99 0.62,-0.1 2.43,-0.44 4.35,-1.32 0.4,0.93 1.71,1.88 2.67,1.88 0.25,0 0.48,-0.06 0.67,-0.19 0.42,-0.27 0.57,-0.77 0.41,-1.32 -0.19,-0.64 -0.76,-1.32 -1.45,-1.7 1.53,-1.14 2.84,-2.73 3.27,-4.94z"/>
  <path class="fil11" d="M265.24 377.53c0,0 -1.04,-1.12 -0.86,-2.51 0.19,-1.38 2.62,-1.52 2.86,1.9 1.28,-1.42 5.02,1.01 1.15,1.76 2.91,1.39 1.01,4.25 -1.44,1.28 -0.56,2.81 -2.89,2.81 -2.03,0.19 -2.62,0.4 -3.87,-3.68 0.32,-2.62z"/>
  <path class="fil11" d="M257.41 381.59c0,0 -1.65,0.54 -2.42,-0.34 -0.78,-0.89 -0.06,-2.76 2.58,-1.77 -0.5,-2.53 3.77,-3.33 3.05,0.62 2.08,-0.11 2.78,3.84 -0.78,2.16 0.27,2.43 -2.93,3.39 -2.43,-0.67z"/>
  <path class="fil11" d="M274.58 371.95c0,0 0.19,-1.55 0.94,-2.51 0.75,-0.96 2.53,-1.17 2.4,0.75 -0.13,1.92 -1.66,3.05 -1.66,3.05 0,0 2.22,-0.99 3.18,-0.33 0.97,0.67 0.83,1.93 -0.5,2.09 -1.34,0.16 -2.62,0 -2.62,0 0,0 1.33,0.77 1.73,2.24 0.4,1.47 -1.6,1.76 -2.61,0.21 -1.02,-1.54 -0.86,-2.45 -0.86,-2.45 0,0 -0.82,1.76 -2.51,1.84 -1.68,0.08 -2.21,-1.99 1.5,-3.36 -3.69,-0.57 -2.99,-3.29 -1.5,-3.45 1.5,-0.16 2.51,1.92 2.51,1.92z"/>
  <path class="fil11" d="M258.46 393.49c0,0 -0.64,-1.21 -0.59,-2.28 0.06,-1.07 1.24,-2.12 2.11,-0.67 0.87,1.46 0.33,3.03 0.33,3.03 0,0 1.11,-1.83 2.14,-1.83 1.03,0 1.56,0.97 0.68,1.76 -0.88,0.78 -1.88,1.31 -1.88,1.31 0,0 1.35,-0.11 2.37,0.75 1.03,0.85 -0.26,2.07 -1.78,1.47 -1.51,-0.61 -1.85,-1.34 -1.85,-1.34 0,0 0.29,1.68 -0.88,2.59 -1.17,0.9 -2.59,-0.32 -0.61,-3.18 -2.94,1.45 -3.81,-0.86 -2.81,-1.73 0.99,-0.87 2.77,0.12 2.77,0.12z"/>
  <path class="fil11" d="M289.65 386.82c0,0 0.58,-1.24 1.47,-1.84 0.89,-0.6 2.45,-0.28 1.8,1.29 -0.64,1.56 -2.22,2.08 -2.22,2.08 0,0 2.12,-0.21 2.74,0.61 0.62,0.82 0.17,1.83 -0.99,1.6 -1.16,-0.23 -2.19,-0.72 -2.19,-0.72 0,0 0.9,1.01 0.83,2.35 -0.07,1.34 -1.82,1.03 -2.24,-0.54 -0.42,-1.58 -0.04,-2.29 -0.04,-2.29 0,0 -1.17,1.24 -2.6,0.85 -1.43,-0.4 -1.3,-2.27 2.18,-2.4 -2.93,-1.49 -1.6,-3.57 -0.3,-3.29 1.29,0.28 1.56,2.3 1.56,2.3z"/>
  <path class="fil11" d="M280.71 382.51c0,0 -1.04,-1.12 -0.85,-2.51 0.19,-1.38 2.61,-1.52 2.85,1.9 2.01,-1.39 4.29,0.53 1.15,1.76 2.91,1.39 1.02,4.25 -1.44,1.28 -0.56,2.81 -2.88,2.81 -2.03,0.19 -2.61,0.4 -3.87,-3.68 0.32,-2.62z"/>
  <path class="fil12" d="M275.86 373.6c0,0.33 -0.26,0.6 -0.6,0.6 -0.33,0 -0.6,-0.27 -0.6,-0.6 0,-0.34 0.27,-0.61 0.6,-0.61 0.34,0 0.6,0.27 0.6,0.61z"/>
  <path class="fil12" d="M282.68 383.72c0,0.34 -0.27,0.61 -0.6,0.61 -0.33,0 -0.6,-0.27 -0.6,-0.61 0,-0.33 0.27,-0.6 0.6,-0.6 0.33,0 0.6,0.27 0.6,0.6z"/>
  <path class="fil12" d="M290.14 388.33c0,0.34 -0.27,0.61 -0.6,0.61 -0.33,0 -0.6,-0.27 -0.6,-0.61 0,-0.33 0.27,-0.6 0.6,-0.6 0.33,0 0.6,0.27 0.6,0.6z"/>
  <path class="fil12" d="M266.91 378.49c0,0.33 -0.27,0.6 -0.61,0.6 -0.33,0 -0.6,-0.27 -0.6,-0.6 0,-0.34 0.27,-0.6 0.6,-0.6 0.34,0 0.61,0.26 0.61,0.6z"/>
  <path class="fil12" d="M259.64 380.44c0,0.33 -0.27,0.6 -0.6,0.6 -0.33,0 -0.6,-0.27 -0.6,-0.6 0,-0.34 0.27,-0.6 0.6,-0.6 0.33,0 0.6,0.26 0.6,0.6z"/>
  <path class="fil12" d="M260.24 394.55c0,0.33 -0.27,0.6 -0.6,0.6 -0.33,0 -0.6,-0.27 -0.6,-0.6 0,-0.33 0.27,-0.6 0.6,-0.6 0.33,0 0.6,0.27 0.6,0.6z"/>
  <path class="fil7" d="M496.9 382.16c-1.36,0 -4.69,2.32 -6.5,4.29 0.02,-0.98 0.02,-1.97 0.01,-2.98 0,0 0.01,0 0.01,0 2.56,0 6.77,-6.97 7.37,-9.48 0.06,-0.26 0.25,-1.05 -0.3,-1.33 -0.1,-0.05 -0.22,-0.08 -0.34,-0.08 -1.28,0 -4.97,4.11 -6.84,7.06 -0.04,-1.15 -0.1,-2.31 -0.16,-3.45 2.33,-0.24 6.68,-6.36 7.44,-8.89 0.24,-0.79 0.16,-1.32 -0.24,-1.58 -0.14,-0.1 -0.3,-0.14 -0.48,-0.14 -1.6,0 -5.25,4.32 -6.96,7.12 -0.13,-1.71 -0.27,-3.37 -0.42,-4.94 2.16,-0.43 5.33,-6.03 6.06,-8.84 0.12,-0.46 0.49,-1.88 -0.35,-2.35 -0.14,-0.08 -0.3,-0.12 -0.47,-0.12 -1.63,0 -4.32,4.08 -5.68,7.04 -0.52,-4.6 -0.98,-7.73 -0.99,-7.81 -0.05,-0.36 -0.39,-0.61 -0.75,-0.55 -0.36,0.05 -0.6,0.39 -0.55,0.75 0.01,0.07 0.41,2.8 0.88,6.88 -1.84,-2.77 -4.93,-6.21 -6.26,-6.21 -0.25,0 -0.47,0.11 -0.61,0.3 -0.3,0.43 -0.17,1.15 0.44,2.35 1.27,2.45 5.14,7.63 6.94,8.44 0.1,1 0.2,2.05 0.29,3.12 -1.82,-3.04 -5.57,-7.8 -7.29,-7.8 -0.29,0 -0.54,0.11 -0.71,0.33 -0.37,0.46 -0.27,1.24 0.3,2.43 1.42,2.94 6.12,8.7 8.04,9.73 0.07,0.98 0.12,1.97 0.17,2.96 -2.14,-3.66 -6.92,-9.65 -8.37,-9.65 -0.23,0 -0.42,0.1 -0.54,0.28 -0.21,0.32 -0.26,0.86 0.72,2.66 1.52,2.8 6.42,9.68 8.32,10.69 0.02,0.83 0.02,1.67 0.02,2.49 -1.78,-3 -5.57,-7.42 -7.09,-7.42 -0.27,0 -0.49,0.11 -0.64,0.31 -0.32,0.44 -0.19,1.18 0.43,2.39 1.29,2.54 5.35,7.86 7.21,8.65 -0.02,0.54 -0.05,1.07 -0.09,1.59 -0.02,0.36 0.25,0.68 0.61,0.7 0.02,0.01 0.03,0.01 0.05,0.01 0.34,0 0.63,-0.27 0.66,-0.62 0.02,-0.31 0.04,-0.62 0.05,-0.94 0.05,0 0.1,0.01 0.14,0.01 2.09,0 6.22,-3.73 7.16,-5.72 0.29,-0.59 0.3,-1.05 0.04,-1.37 -0.12,-0.14 -0.33,-0.31 -0.73,-0.31z"/>
  <path class="fil13" d="M492.62 347.67c-0.99,-0.39 -3.05,2.73 -4.35,5.75 -0.11,-4.45 -1.49,-12.06 -2.91,-11.68 -1.45,0.4 -0.2,8.35 1.09,12.42 -1.93,-2.9 -4.98,-5.93 -5.58,-5.1 -0.83,1.16 4.54,8.38 6.46,9.35 0.03,0.04 0.07,0.08 0.11,0.11 1.85,1.33 6.94,-10.15 5.18,-10.85z"/>
  <path class="fil14" d="M462.35 99.65c-0.61,0.49 -1.08,1.14 -1.39,1.9l0 0c0,0 -3.3,0.96 -4.4,1.94 1.92,1.39 4.07,1.47 4.07,1.47 0.1,2.02 -1.7,3.8 -2.65,6.21 -0.99,2.5 -2.25,8.75 3.2,11.74 2.01,1.1 3.87,1.71 5.64,2l-2.73 4.19c-0.29,0.44 -0.16,1.02 0.27,1.31 0.16,0.11 0.34,0.16 0.52,0.16 0.31,0 0.61,-0.16 0.8,-0.43l3.27 -5.02c0.59,0.02 1.18,0.02 1.76,-0.01l-3.04 4.04c-0.31,0.42 -0.23,1.02 0.19,1.33 0.17,0.13 0.37,0.19 0.57,0.19 0.29,0 0.57,-0.13 0.76,-0.38l4.07 -5.43c0.74,-0.1 1.48,-0.22 2.22,-0.34 4.49,-0.73 12.22,0.14 16.47,2.95 4.64,5.63 5.77,5.91 7.07,5.94 -1.59,-2.08 -3.86,-5.31 -6.23,-8.52l-0.11 -0.16 -0.04 -0.05 -0.07 -0.1 -0.11 -0.15 -0.04 -0.04 -0.08 -0.11 -0.44 -0.6 -0.12 -0.15 0 -0.01 -0.11 -0.14 -0.11 -0.14 0 -0.01 -0.21 -0.28 -0.01 -0.02 -0.12 -0.14 -0.09 -0.12 -0.02 -0.03 -0.11 -0.15 -0.08 -0.11 -0.03 -0.04 -0.11 -0.14 -0.08 -0.1 -0.04 -0.05 -0.11 -0.15 -0.06 -0.08 -0.05 -0.06 -0.11 -0.15 -0.11 -0.14 -0.11 -0.14 -0.05 -0.06 -0.07 -0.09 -0.11 -0.14 -0.03 -0.05 -0.08 -0.09 -0.11 -0.14 -0.03 -0.04 -0.08 -0.1 -0.11 -0.14 -0.02 -0.02 -0.09 -0.12 -0.11 -0.14 -0.01 -0.01 -0.1 -0.12 -0.11 -0.14 0 0 -0.11 -0.13 -0.32 -0.4 -0.11 -0.13 -0.08 -0.11 -0.02 -0.02 -0.11 -0.13 -0.11 -0.13 -0.1 -0.13 -0.07 -0.08 -0.04 -0.04 -0.11 -0.13 -0.1 -0.12 -0.1 -0.12 -0.05 -0.06 -0.06 -0.06 -0.1 -0.12 -0.04 -0.05 -0.06 -0.07 -0.11 -0.12 -0.03 -0.03 -0.07 -0.08 -0.1 -0.12 -0.02 -0.02 -0.08 -0.09 -0.1 -0.11 -0.02 -0.02 -0.08 -0.09 -0.1 -0.11 -0.01 -0.01 -0.09 -0.1 -0.1 -0.1c-4,-4.29 -7.59,-7.8 -10.82,-10.44l-0.15 -0.12 -0.15 -0.12 -0.1 -0.08 0 0 -0.04 -0.03 -0.01 -0.01 -0.05 -0.04 -0.03 -0.03 -0.02 -0.01 -0.03 -0.03 -0.01 -0.01 -0.05 -0.04 -0.03 -0.02 -0.02 -0.01 -0.02 -0.03 -0.02 -0.01 -0.05 -0.04 -0.01 -0.01 -0.03 -0.03 -0.03 -0.02 -0.02 -0.01 -0.04 -0.04 -0.01 0 -0.06 -0.05 -0.02 -0.02 -0.04 -0.03 0 0 -0.05 -0.04 -0.01 -0.01 -0.03 -0.02 -0.03 -0.03 -0.01 -0.01 -0.04 -0.03 -0.05 -0.04 -0.02 -0.01 -0.02 -0.02 -0.04 -0.03 -0.01 -0.01 -0.03 -0.02 -0.01 -0.02 -0.03 -0.02 -0.04 -0.03 -0.01 0 -0.03 -0.03 0 -0.01 -0.04 -0.02 -0.04 -0.03 -0.03 -0.03 -0.01 0 -0.03 -0.04 -0.04 -0.03 -0.03 -0.02 -0.01 -0.01 -0.04 -0.03 -0.03 -0.02 0 0 -0.02 -0.02 -0.02 -0.01 -0.04 -0.03 -0.03 -0.03 0 0 -0.01 -0.01 -0.03 -0.02 -0.03 -0.03 -0.03 -0.02 -0.01 -0.01 0 0 -0.03 -0.02 -0.04 -0.03 -0.02 -0.02 -0.01 -0.01 0 0 -0.04 -0.03 -0.03 -0.02 -0.02 -0.02 0 0 -0.01 -0.01 -0.04 -0.03 -0.03 -0.02 -0.01 -0.02 0 0 -0.02 -0.01 -0.03 -0.02 -0.03 -0.03 -0.01 -0.01 -0.01 0 -0.01 -0.01 -0.04 -0.03 -0.03 -0.02 0 -0.01 -0.01 0 -0.02 -0.02 -0.03 -0.02 -0.02 -0.02 -0.01 -0.01 -0.01 0 -0.04 -0.04 -0.04 -0.03 -0.02 -0.02 -0.05 -0.04 -0.01 -0.01 -0.05 -0.03 -0.04 -0.03c-0.96,-0.78 -1.44,-1.19 -1.83,-1.66l-0.02 -0.03 0 0 -0.02 -0.03 -0.01 -0.01 -0.01 -0.01 -0.02 -0.03c-1.25,-1.6 -2.88,-3.79 -5.9,-3.69l-0.14 0.01 -0.01 0 -0.12 0.01 -0.01 0 -0.01 0 -0.11 0.01 -0.02 0 -0.03 0.01 -0.08 0.01 -0.03 0 0 0 -0.11 0.02 -0.02 0 -0.01 0.01 -0.08 0.01 -0.04 0.01 -0.01 0 -0.12 0.03 0 0 -0.12 0.03 -0.01 0 -0.11 0.03 -0.01 0.01 -0.01 0 -0.1 0.03 -0.01 0.01 -0.03 0 -0.07 0.03 -0.02 0.01 -0.01 0c-0.11,0.04 -0.23,0.09 -0.34,0.14l0 0 -0.07 0.04 -0.04 0.02 -0.04 0.01 -0.07 0.04 0 0.01 -0.1 0.05 -0.01 0.01 -0.02 0.01 -0.07 0.04 -0.02 0.01 -0.04 0.03 -0.06 0.04 -0.01 0.01 -0.06 0.04 -0.07 0.04 0 0.01 -0.06 0.04 0 0 -0.06 0.05z"/>
  <path class="fil9" d="M412.69 468.54c0.03,0.02 0.07,0.03 0.1,0.05 0.02,0 0.04,0.02 0.06,0.02 0.06,0.02 0.12,0.03 0.18,0.03 0,0 0.01,0 0.01,0 0.05,0 0.1,-0.01 0.15,-0.02 0,0 0.01,0 0.01,0 0.07,-0.02 0.14,-0.06 0.2,-0.1 0.74,-0.47 7.8,-5.14 9.31,-12.36 0.05,-0.23 -0.04,-0.47 -0.23,-0.61 -0.19,-0.14 -0.45,-0.16 -0.66,-0.04 -5,2.8 -7.69,8.07 -8.78,10.74 -1.16,-3 -4.11,-9.34 -9.09,-11.92 -0.2,-0.1 -0.44,-0.09 -0.62,0.04 -0.19,0.12 -0.29,0.34 -0.27,0.56 0.76,7.49 9.27,13.36 9.63,13.61z"/>
  <path class="fil9" d="M423.71 465.84c0.02,-0.21 -0.07,-0.41 -0.23,-0.53 -0.17,-0.13 -0.38,-0.17 -0.58,-0.1 -4.97,1.75 -8.28,7.36 -9.46,9.67 -1.54,-2.27 -5.88,-7.96 -11.65,-9.39 -0.23,-0.05 -0.46,0.02 -0.61,0.2 -0.15,0.17 -0.19,0.41 -0.1,0.63 3.21,7.55 11.89,10.27 12.26,10.38 0.06,0.02 0.12,0.03 0.17,0.03 0.01,0 0.01,0 0.01,0 0.13,0 0.24,-0.04 0.33,-0.1 0.89,-0.46 9.31,-5.01 9.86,-10.79z"/>
  <path class="fil10" d="M412.79 457.84c0,0 -6.57,-5.52 -9.27,-11.33 -2.71,-5.82 1.18,-7.52 6.4,-0.55 -0.4,-5.62 1.72,-8.18 3.54,-8.08 1.82,0.1 2.75,2.73 2.36,8.08 1.87,-5.62 3.83,-6.11 5.27,-5.32 1.62,0.88 1.09,9.35 -8.3,17.2z"/>
  <path class="fil8" d="M416.71 453.98c-0.81,-1.01 -2.05,-2.16 -3.45,-2.07 -2.46,0.14 -3.91,2.63 -3.91,2.63 1.18,1.24 2.22,2.22 2.84,2.77 0.04,3.33 0.21,15.92 1.06,21.9 0.04,0.31 0.3,0.52 0.6,0.52 0.03,0 0.06,0 0.09,0 0.33,-0.05 0.56,-0.36 0.51,-0.69 -0.84,-5.91 -1.01,-18.43 -1.04,-21.74 1.26,-1.1 2.36,-2.22 3.3,-3.32z"/>
  <path class="fil8" d="M528.43 485.49c-0.11,-0.11 -0.26,-0.15 -0.41,-0.11 -7.8,1.78 -12.09,7.19 -14.22,11.01 0.73,-4.24 1.86,-9.07 3.61,-13.59 2.79,-1.27 9.7,-7.19 8.36,-17.33 -0.03,-0.15 -0.12,-0.28 -0.25,-0.35 -0.14,-0.07 -0.3,-0.07 -0.44,0 -9.48,5.19 -9.15,14.41 -8.87,16.9 -0.84,2.1 -1.53,4.26 -2.12,6.4 -0.05,-5.23 -0.87,-12.08 -4.45,-15.58 -0.12,-0.12 -0.28,-0.16 -0.44,-0.12 -0.16,0.04 -0.28,0.16 -0.33,0.31 -3.76,12.17 1.55,19.7 3.46,21.91 0.07,0.14 0.14,0.28 0.21,0.42 -0.28,1.58 -0.51,3.08 -0.69,4.47 -0.92,-3.94 -3.23,-8.66 -8.97,-10.45 -0.14,-0.05 -0.3,-0.02 -0.42,0.08 -0.12,0.1 -0.19,0.24 -0.18,0.4 0.7,9.47 4.89,14.92 8.94,16.32 -0.08,1.28 -0.11,2.09 -0.11,2.25 -0.01,0.38 0.29,0.7 0.68,0.71 0,0 0.01,0 0.01,0 0.38,0 0.69,-0.3 0.7,-0.68 0,-0.08 0.08,-3.08 0.62,-7.43 6.38,-0.08 14.07,-5.85 15.46,-15.14 0.02,-0.14 -0.03,-0.3 -0.15,-0.4z"/>
  <path class="fil9" d="M497.13 488.73c0.02,-0.16 -0.06,-0.32 -0.2,-0.42 -0.14,-0.09 -0.32,-0.1 -0.47,-0.03 -6.21,3.14 -9.33,8.26 -10.9,12.4 0.04,-2.95 -0.04,-5.96 -0.18,-8.65 1.75,-0.63 4.48,-2.92 6.52,-6.12 1.89,-2.96 3.77,-7.6 2,-12.89 -0.05,-0.15 -0.17,-0.26 -0.32,-0.3 -0.16,-0.04 -0.32,0 -0.43,0.11 -4.76,4.45 -7.03,10.39 -8.09,14.4 -0.2,-2.56 -0.39,-4.28 -0.41,-4.49l-0.02 -0.08c0,-0.03 -0.04,-0.19 -0.1,-0.43 0.39,-2.62 1.13,-11.92 -7.2,-15.4 -0.15,-0.06 -0.31,-0.04 -0.44,0.04 -0.12,0.09 -0.2,0.23 -0.21,0.38 -0.14,9.94 5,14.49 6.59,15.65 0,0.01 0,0.03 0,0.03 0.04,0.34 0.3,2.81 0.54,6.23 -1.72,-3.56 -5.11,-7.93 -10.72,-8.57 -0.14,-0.02 -0.28,0.03 -0.38,0.13 -0.1,0.11 -0.15,0.25 -0.13,0.39 1.56,10.63 9.17,12.5 11.48,12.82 0.12,2.89 0.16,6.02 0.04,8.96 -0.43,-1.17 -1.04,-2.37 -1.87,-3.51 -1.45,-1.96 -4.08,-4.44 -8.45,-5.04 -0.16,-0.03 -0.31,0.03 -0.41,0.15 -0.1,0.11 -0.14,0.27 -0.1,0.42 2.7,10.74 8.34,13.01 10.34,13.48 -0.03,0.36 0.22,0.69 0.58,0.74 0.04,0.01 0.07,0.01 0.11,0.01 0.34,0 0.63,-0.25 0.68,-0.59 0.02,-0.12 0.04,-0.25 0.06,-0.38 0,-0.02 0,-0.04 0.01,-0.06 0.01,-0.13 0.03,-0.27 0.05,-0.4 3.53,-0.76 11.18,-8.13 12.03,-18.98z"/>
  <path class="fil9" d="M171.4 502.83c0,0 -10.12,-8.96 -9.66,-25.95 0.46,-16.99 16.3,-33.06 16.3,-33.06 0,0 8.26,16.53 4.71,33.4 -3.56,16.88 -11.35,25.61 -11.35,25.61z"/>
  <path class="fil9" d="M171.95 510.31c-0.45,0 -0.85,-0.32 -0.93,-0.78 -0.03,-0.2 -3.26,-20.09 5.42,-50.93 0.14,-0.5 0.67,-0.79 1.17,-0.65 0.5,0.14 0.79,0.66 0.65,1.16 -8.56,30.4 -5.41,49.91 -5.38,50.1 0.09,0.51 -0.25,1 -0.77,1.09 -0.05,0.01 -0.1,0.01 -0.16,0.01z"/>
  <path class="fil9" d="M189.98 463.91c0,0 -8.39,12.05 -4.94,35.7 9.19,-5.05 20.24,-22.77 20.24,-22.77l-3.71 -9.97 -11.59 -2.96z"/>
  <path class="fil9" d="M183.64 511.34c-0.03,0 -0.06,0 -0.08,0 -0.52,-0.04 -0.91,-0.5 -0.87,-1.02 2.38,-27.96 12.62,-41.86 13.06,-42.44 0.31,-0.42 0.9,-0.5 1.32,-0.19 0.41,0.31 0.5,0.9 0.19,1.32 -0.11,0.14 -10.36,14.1 -12.68,41.47 -0.05,0.49 -0.46,0.86 -0.94,0.86z"/>
  <path class="fil8" d="M215.92 485.72c0,0 -13.93,-10.98 -19.93,-17.85 -3.49,-3.54 -6.01,-3.96 -6.01,-3.96 0,0 15.5,-3.79 30.19,-0.69 2.07,9.87 -4.25,22.5 -4.25,22.5z"/>
  <path class="fil8" d="M214.95 484.94c0.62,0.5 0.97,0.78 0.97,0.78 0,0 0.34,-0.69 0.84,-1.86 -0.71,-7.28 -4.9,-16.44 -8.43,-21.85 -0.78,-0.01 -1.54,-0.01 -2.28,0.01 3.5,5.01 8.49,15.23 8.9,22.92z"/>
  <path class="fil9" d="M121.87 471.46c3.53,1.75 14.39,17.91 12.82,29.78 -8.07,-7.85 -14.59,-19.98 -19.97,-23.08 0,0 -0.95,-4.66 0,-6.16 0.95,-1.49 7.15,-0.54 7.15,-0.54z"/>
  <path class="fil8" d="M155.96 466.49c0,0 5.36,-6.73 13,0 7.64,6.72 5.35,18.8 3.29,20.94 -2.06,2.14 -7.57,1.84 -9.55,-4.43 -1.99,-6.27 -4.36,-9.17 -8.06,-6.84l1.32 -9.67z"/>
  <path class="fil9" d="M148 504.67c0,0 6.75,-22.59 8.12,-40.02 1.38,-17.42 -1.24,-20.86 -4.39,-21.44 -3.16,-0.57 -7.91,3.44 -9.63,21.44 -1.72,18 5.9,40.02 5.9,40.02z"/>
  <path class="fil8" d="M141.29 506.01c0,0 2.4,-15.34 0,-27.95 -2.4,-12.6 -9.86,-28.31 -16.85,-27.05 -6.99,1.26 2.14,21.06 5.24,28.62 3.09,7.57 8.62,17.99 11.61,26.38z"/>
  <path class="fil9" d="M135.95 510.16c0.01,0 0.02,0 0.04,0 0.52,-0.02 0.92,-0.46 0.9,-0.98 -0.68,-18.34 -17.3,-35.95 -18,-36.69 -0.36,-0.37 -0.96,-0.39 -1.33,-0.03 -0.38,0.36 -0.39,0.96 -0.04,1.33 0.17,0.18 16.83,17.84 17.49,35.46 0.02,0.51 0.44,0.91 0.94,0.91z"/>
  <path class="fil9" d="M148.17 509.39c0.01,0 0.02,0 0.03,0 0.52,-0.02 0.93,-0.45 0.91,-0.97 -0.01,-0.38 -1.17,-38.31 2.74,-59.04 0.1,-0.52 -0.24,-1.01 -0.75,-1.1 -0.51,-0.11 -1.01,0.24 -1.1,0.75 -3.95,20.94 -2.78,59.07 -2.77,59.45 0.02,0.51 0.44,0.91 0.94,0.91z"/>
  <path class="fil8" d="M141.84 511.91c0.03,0 0.06,0 0.09,0 0.52,-0.05 0.9,-0.51 0.85,-1.02 -0.12,-1.33 -3.07,-32.6 -11.89,-49.2 -0.24,-0.46 -0.81,-0.63 -1.27,-0.39 -0.46,0.24 -0.64,0.81 -0.39,1.27 8.63,16.27 11.65,48.17 11.67,48.49 0.05,0.49 0.46,0.85 0.94,0.85z"/>
  <path class="fil8" d="M121.87 471.46c0,0 -3.35,0.38 -5.49,3.74 -2.14,3.36 -4.05,8.79 -6.35,8.79 -2.29,0 -4.51,-5.43 -2.6,-11.08 1.91,-5.66 9.53,-4.36 14.44,-1.45z"/>
  <path class="fil8" d="M109.09 483.68c0.02,-1.88 0.35,-10.99 5.26,-14.68 1.02,0.07 2.06,0.26 3.09,0.56 -6,1.68 -6.43,12.23 -6.46,14.12 -0.31,0.2 -0.62,0.31 -0.95,0.31 -0.32,0 -0.63,-0.11 -0.94,-0.31z"/>
  <path class="fil15" d="M404.2 249.58c5.54,-11.23 39.81,-14.91 46.06,-4.06 6.25,10.86 11.85,37.18 0,43.01 -11.85,5.83 -49.39,8.9 -50.51,-4.7 -1.11,-13.6 1.31,-27.87 4.45,-34.25z"/>
  <path class="fil6" d="M90.02 308.14l-3.18 103.99c0,0 44.41,7.74 67.32,2.55 -3.28,-40.86 -8.94,-93.35 -8.94,-93.35 0,0 -8.14,-34.66 -16.27,-36.02 -8.14,-1.36 -38.93,22.83 -38.93,22.83z"/>
  <path class="fil8" d="M60.99 260.17c-9.43,26.38 -20.33,63.02 -8.94,70.2 11.39,7.18 25.51,-35.1 25.51,-35.1 0,0 -8.17,42.28 5.69,43.02 13.87,0.75 12.38,-34.66 12.38,-34.66 0,0 3.41,37.14 17.3,36.15 13.9,-0.99 5.23,-35.66 5.23,-35.66 0,0 5.2,31.95 18.94,29.96 13.74,-1.98 5.82,-37.38 5.82,-37.38 0,0 12.63,35.65 30.7,30.95 18.07,-4.71 -8.42,-74.28 -8.42,-74.28 0,0 -21.04,-38.13 -46.79,-37.39 -25.75,0.74 -38.38,9.41 -51.25,23.03 -12.88,13.62 -6.17,21.16 -6.17,21.16z"/>
  <path class="fil7" d="M71.85 197.06c-13.36,27.59 -27.22,59.03 -18.56,64.98 8.67,5.94 31.69,-32.49 31.69,-32.49 0,0 -8.41,40.16 1.74,40.9 10.15,0.75 16.83,-31.94 16.83,-31.94 0,0 -0.49,31.94 11.64,30.95 12.13,-0.99 11.14,-35.7 11.14,-35.7 0,0 5.94,28.52 16.34,24.81 10.4,-3.72 3.72,-24.81 3.72,-24.81 0,0 7.67,24.07 20.55,19.11 12.87,-4.95 -9.66,-44.57 -15.48,-54.72 -11.26,-28.22 -23.15,-51 -36.77,-50.75 -13.61,0.25 -42.84,49.66 -42.84,49.66z"/>
  <path class="fil8" d="M118.66 128.58c0,0 22.65,29.84 32.31,53.61 9.65,23.77 -9.29,23.02 -22.66,-11.52 5.2,32.69 -12.63,60.91 -16.71,-3.71 -4.83,43.82 -27.11,68.33 -13.74,-2.6 -15.23,29.34 -49.02,56.45 -21.17,8.17 20.43,-31.81 41.97,-43.95 41.97,-43.95z"/>
  <path class="fil7" d="M77.55 183.18c-0.37,0 -0.74,-0.12 -1.07,-0.35 -0.84,-0.59 -1.03,-1.75 -0.44,-2.59 0.04,-0.06 4.28,-6.01 9.19,-12.53 0.62,-0.82 1.78,-0.98 2.6,-0.36 0.82,0.62 0.99,1.78 0.37,2.6 -4.88,6.48 -9.09,12.39 -9.13,12.45 -0.36,0.51 -0.94,0.78 -1.52,0.78z"/>
  <path class="fil7" d="M98.47 158.82c-0.32,0 -0.64,-0.08 -0.94,-0.26 -0.88,-0.52 -1.17,-1.66 -0.65,-2.54 0.27,-0.45 6.58,-11.12 10.39,-15.18 0.7,-0.75 1.88,-0.79 2.63,-0.09 0.75,0.7 0.78,1.88 0.08,2.63 -3.53,3.76 -9.84,14.42 -9.9,14.53 -0.35,0.58 -0.97,0.91 -1.61,0.91z"/>
  <path class="fil7" d="M120.39 172.28c-1,0 -1.83,-0.79 -1.86,-1.8 -0.24,-8.12 0,-22.96 0,-23.11 0.02,-1.03 0.89,-1.83 1.89,-1.83 1.02,0.02 1.84,0.86 1.83,1.89 -0.01,0.15 -0.25,14.91 -0.01,22.94 0.04,1.03 -0.77,1.88 -1.8,1.91 -0.01,0 -0.03,0 -0.05,0z"/>
  <path class="fil7" d="M101.08 193.33c-1.03,0 -1.86,-0.83 -1.86,-1.86 0,-6.85 4.81,-24.73 5.02,-25.49 0.26,-0.99 1.28,-1.58 2.27,-1.31 0.99,0.27 1.58,1.29 1.31,2.28 -0.05,0.18 -4.89,18.16 -4.89,24.52 0,1.03 -0.83,1.86 -1.85,1.86z"/>
  <path class="fil7" d="M142.67 185.16c-0.72,0 -1.4,-0.42 -1.71,-1.13 -2.87,-6.7 -10.9,-18.9 -10.98,-19.02 -0.56,-0.85 -0.33,-2.01 0.53,-2.57 0.85,-0.57 2.01,-0.33 2.57,0.53 0.34,0.51 8.3,12.59 11.3,19.6 0.4,0.94 -0.03,2.03 -0.98,2.44 -0.23,0.1 -0.48,0.15 -0.73,0.15z"/>
  <path class="fil8" d="M73.84 231.71c-0.25,0 -0.51,-0.06 -0.76,-0.17 -0.93,-0.42 -1.35,-1.52 -0.93,-2.45l9.41 -20.92c0.42,-0.94 1.52,-1.35 2.45,-0.93 0.94,0.42 1.35,1.52 0.93,2.45l-9.4 20.92c-0.31,0.69 -0.99,1.1 -1.7,1.1z"/>
  <path class="fil8" d="M90.68 251.76c-0.96,0 -1.78,-0.74 -1.85,-1.71 -1.01,-12.61 4.79,-30.48 5.04,-31.24 0.31,-0.97 1.36,-1.5 2.34,-1.18 0.97,0.31 1.5,1.36 1.19,2.34 -0.06,0.17 -5.82,17.93 -4.87,29.78 0.08,1.03 -0.68,1.92 -1.7,2 -0.05,0.01 -0.1,0.01 -0.15,0.01z"/>
  <path class="fil8" d="M113.21 247.55c-0.93,0 -1.73,-0.69 -1.84,-1.63 -1.25,-9.95 -0.07,-31.36 -0.02,-32.27 0.06,-1.02 0.93,-1.81 1.96,-1.75 1.03,0.06 1.81,0.94 1.75,1.96 -0.01,0.22 -1.21,21.98 -0.01,31.6 0.13,1.02 -0.59,1.95 -1.61,2.08 -0.08,0.01 -0.16,0.01 -0.23,0.01z"/>
  <path class="fil8" d="M137.1 240.87c-0.66,0 -1.3,-0.36 -1.63,-0.98 -3.47,-6.43 -5.69,-25.13 -5.78,-25.92 -0.12,-1.02 0.61,-1.94 1.62,-2.06 1.03,-0.11 1.95,0.61 2.06,1.63 0.03,0.19 2.23,18.78 5.37,24.59 0.48,0.9 0.15,2.03 -0.76,2.51 -0.28,0.15 -0.58,0.23 -0.88,0.23z"/>
  <path class="fil8" d="M160 233.69c-0.83,0 -1.58,-0.56 -1.79,-1.4 -2.15,-8.35 -9.67,-22.34 -9.74,-22.48 -0.49,-0.9 -0.15,-2.03 0.75,-2.51 0.9,-0.49 2.03,-0.15 2.51,0.75 0.32,0.59 7.81,14.53 10.07,23.32 0.26,0.99 -0.34,2 -1.33,2.26 -0.16,0.04 -0.31,0.06 -0.47,0.06z"/>
  <path class="fil7" d="M61.46 301.53c-0.11,0 -0.22,-0.01 -0.33,-0.03 -1.01,-0.19 -1.68,-1.15 -1.49,-2.16 0.14,-0.78 3.5,-19.24 5.72,-27.63 0.26,-0.99 1.28,-1.58 2.27,-1.32 0.99,0.26 1.58,1.28 1.32,2.27 -2.18,8.25 -5.63,27.15 -5.66,27.34 -0.16,0.9 -0.95,1.53 -1.83,1.53z"/>
  <path class="fil7" d="M83.25 323.07c-0.91,0 -1.7,-0.67 -1.84,-1.59 -1.26,-8.56 1.61,-32.88 1.73,-33.91 0.12,-1.02 1.04,-1.75 2.06,-1.63 1.02,0.12 1.75,1.05 1.63,2.06 -0.03,0.25 -2.93,24.86 -1.74,32.94 0.15,1.01 -0.56,1.96 -1.57,2.11 -0.09,0.01 -0.18,0.02 -0.27,0.02z"/>
  <path class="fil7" d="M106.77 313.41c-0.8,0 -1.54,-0.52 -1.78,-1.32 -2.28,-7.61 -2.3,-28.85 -2.3,-29.75 0,-1.03 0.83,-1.86 1.85,-1.86 1.03,0 1.86,0.83 1.86,1.86 0,0.21 0.03,21.6 2.15,28.68 0.29,0.98 -0.26,2.02 -1.25,2.31 -0.17,0.06 -0.35,0.08 -0.53,0.08z"/>
  <path class="fil7" d="M131.53 309.94c-0.92,0 -1.72,-0.68 -1.84,-1.62 -0.96,-7.63 -6.78,-23.96 -6.84,-24.12 -0.35,-0.96 0.16,-2.03 1.12,-2.37 0.97,-0.35 2.03,0.15 2.38,1.12 0.24,0.68 6.02,16.87 7.02,24.91 0.13,1.01 -0.59,1.94 -1.61,2.07 -0.08,0.01 -0.16,0.01 -0.23,0.01z"/>
  <path class="fil7" d="M166.69 303.51c-0.84,0 -1.6,-0.57 -1.81,-1.42 -2.6,-10.67 -12.69,-25.23 -12.79,-25.38 -0.59,-0.84 -0.38,-1.99 0.46,-2.58 0.84,-0.59 1.99,-0.38 2.58,0.46 0.43,0.62 10.59,15.27 13.36,26.62 0.25,0.99 -0.36,2 -1.36,2.24 -0.15,0.04 -0.3,0.06 -0.44,0.06z"/>
  <path class="fil9" d="M93.22 407.13c0.02,-0.18 -0.07,-0.36 -0.23,-0.44 -0.16,-0.08 -0.36,-0.06 -0.5,0.06 -3.14,2.81 -5.7,7.01 -7.45,10.45 1.64,-10.51 -0.77,-16.5 -0.89,-16.8 -0.19,-0.45 -0.7,-0.66 -1.15,-0.48 -0.45,0.19 -0.66,0.7 -0.47,1.15 0.03,0.08 2.63,6.56 0.41,17.89 -0.52,-3.37 -1.76,-7.58 -4.24,-9.6 -0.12,-0.1 -0.28,-0.13 -0.43,-0.08 -0.14,0.06 -0.25,0.18 -0.28,0.33 -1.06,5.23 2.66,11.45 3.98,13.46 -0.13,0.51 -0.28,1.02 -0.44,1.54 -0.14,0.46 0.12,0.95 0.59,1.09 0.08,0.03 0.17,0.04 0.25,0.04 0.38,0 0.73,-0.24 0.84,-0.62 0.21,-0.69 0.4,-1.36 0.58,-2.02 2.14,-1.73 8.49,-7.49 9.43,-15.97z"/>
  <path class="fil11" d="M82 387c1.26,1.36 4.32,-3.04 6.46,-1.76 2.14,1.28 0.21,4.38 0.91,6.35 0.69,1.98 4.43,2.35 3.84,5.98 -0.58,3.64 -5.12,3.16 -7.95,2.94 -2.83,-0.21 -4.22,1.6 -5.24,4.38 -1.01,2.78 -5.5,3.53 -7.15,0.37 -1.66,-3.15 0.48,-7.42 -3.15,-6.62 -3.64,0.8 -5.45,-3.9 -1.34,-6.14 4.11,-2.24 4.81,-1.28 5.45,-5.39 0.64,-4.12 3.84,-4.06 5.55,-3.21 1.71,0.86 1.92,2.35 2.62,3.1z"/>
  <path class="fil10" d="M75 395.6c-0.55,-2.56 6.68,-5.77 8.97,-1.82 2.3,3.95 -8.01,6.3 -8.97,1.82z"/>
  <path class="fil7" d="M176.37 393.46c-1.36,0 -4.69,2.32 -6.5,4.28 0.02,-0.97 0.02,-1.96 0.01,-2.97 0,0 0,0 0.01,0 2.56,0 6.76,-6.97 7.37,-9.48 0.06,-0.26 0.25,-1.05 -0.31,-1.33 -0.1,-0.05 -0.21,-0.08 -0.33,-0.08 -1.28,0 -4.97,4.11 -6.84,7.06 -0.04,-1.15 -0.1,-2.31 -0.17,-3.45 2.33,-0.24 6.69,-6.36 7.45,-8.9 0.23,-0.79 0.15,-1.32 -0.24,-1.58 -0.14,-0.09 -0.3,-0.13 -0.49,-0.13 -1.59,0 -5.25,4.32 -6.95,7.12 -0.13,-1.71 -0.28,-3.37 -0.42,-4.94 2.16,-0.43 5.33,-6.03 6.06,-8.84 0.12,-0.47 0.49,-1.88 -0.35,-2.36 -0.15,-0.07 -0.31,-0.12 -0.48,-0.12 -1.62,0 -4.32,4.09 -5.68,7.05 -0.51,-4.6 -0.97,-7.73 -0.98,-7.81 -0.06,-0.36 -0.39,-0.61 -0.75,-0.55 -0.36,0.05 -0.61,0.38 -0.56,0.74 0.02,0.08 0.42,2.8 0.88,6.89 -1.84,-2.77 -4.92,-6.21 -6.25,-6.21 -0.25,0 -0.47,0.11 -0.61,0.3 -0.31,0.43 -0.17,1.15 0.44,2.34 1.26,2.46 5.14,7.64 6.94,8.44 0.1,1.01 0.19,2.05 0.28,3.12 -1.82,-3.04 -5.56,-7.8 -7.29,-7.8 -0.28,0 -0.53,0.12 -0.7,0.33 -0.37,0.47 -0.28,1.25 0.3,2.44 1.42,2.94 6.12,8.7 8.04,9.73 0.06,0.98 0.12,1.96 0.16,2.95 -2.13,-3.66 -6.91,-9.65 -8.36,-9.65 -0.23,0 -0.43,0.11 -0.55,0.29 -0.2,0.32 -0.25,0.86 0.72,2.66 1.53,2.8 6.42,9.68 8.32,10.69 0.02,0.83 0.03,1.66 0.03,2.48 -1.78,-3 -5.57,-7.41 -7.1,-7.41 -0.26,0 -0.48,0.11 -0.63,0.31 -0.32,0.44 -0.19,1.18 0.42,2.39 1.29,2.54 5.36,7.85 7.22,8.65 -0.03,0.54 -0.06,1.07 -0.09,1.59 -0.03,0.36 0.25,0.68 0.61,0.7 0.01,0 0.03,0 0.05,0 0.34,0 0.63,-0.26 0.65,-0.61 0.02,-0.31 0.04,-0.62 0.06,-0.94 0.05,0 0.09,0.01 0.14,0.01 2.09,0 6.21,-3.73 7.16,-5.72 0.28,-0.59 0.29,-1.05 0.03,-1.37 -0.11,-0.15 -0.33,-0.31 -0.72,-0.31z"/>
  <path class="fil13" d="M172.09 358.97c-1,-0.39 -3.06,2.73 -4.36,5.74 -0.11,-4.44 -1.48,-12.05 -2.9,-11.67 -1.45,0.39 -0.21,8.35 1.09,12.42 -1.94,-2.9 -4.98,-5.93 -5.58,-5.1 -0.84,1.16 4.54,8.38 6.46,9.35 0.03,0.04 0.07,0.08 0.11,0.11 1.84,1.33 6.94,-10.16 5.18,-10.85z"/>
  <path class="fil8" d="M618.78 335.01c40.91,8.33 87.72,-16.46 92.56,-57.65 2.43,-25.69 -10.03,-47.01 -27.55,-58.16 -17.52,-11.14 -10.73,-25.2 -12.67,-51.85 -1.94,-26.66 -23.26,-36.83 -47.49,-33.93 -24.23,2.91 -37.06,27.14 -34.28,61.07 2.78,33.92 -0.21,44.77 -18.24,64.45 -25.99,28.35 -9.51,64.42 47.67,76.07z"/>
  <path class="fil6" d="M644.5 287.55c10.82,-15.18 23.85,-42.38 20.21,-43.45 -3.64,-1.07 -13.27,11.56 -21.06,26.55l0 0c-2.05,-38.18 -4.68,-69.39 -7.83,-69.55 -4.04,0 -4.76,35.72 -4.21,77.8 -2.73,-3.22 -27.43,-32.05 -30.66,-29.02 -3.43,3.21 30.91,44.36 30.91,44.36 1.1,56.68 3.96,118.25 3.96,118.25 6.85,4.28 13.98,-0.55 13.98,-0.55 0,0 -2.6,-67.27 -5.3,-124.39l0 0z"/>
  <path class="fil9" d="M627.74 301.61c-0.4,0 -0.8,-0.13 -1.14,-0.4l-13.45 -10.91c-0.78,-0.63 -0.9,-1.77 -0.27,-2.55 0.63,-0.78 1.78,-0.91 2.56,-0.27l13.45 10.9c0.78,0.63 0.9,1.78 0.26,2.56 -0.35,0.44 -0.88,0.67 -1.41,0.67z"/>
  <path class="fil9" d="M628.11 318.33c-0.38,0 -0.77,-0.12 -1.09,-0.36l-7.27 -5.45c-0.81,-0.61 -0.97,-1.75 -0.37,-2.55 0.61,-0.8 1.74,-0.96 2.55,-0.36l7.27 5.45c0.8,0.6 0.96,1.74 0.36,2.54 -0.36,0.48 -0.9,0.73 -1.45,0.73z"/>
  <path class="fil9" d="M621.56 328.14c-0.33,0 -0.66,-0.09 -0.96,-0.27l-15.63 -9.82c-0.85,-0.53 -1.11,-1.65 -0.57,-2.5 0.53,-0.85 1.65,-1.11 2.5,-0.58l15.63 9.82c0.85,0.53 1.11,1.65 0.57,2.5 -0.34,0.55 -0.93,0.85 -1.54,0.85z"/>
  <path class="fil9" d="M615.39 308.15c-0.33,0 -0.66,-0.08 -0.96,-0.27l-18.9 -11.63c-0.85,-0.52 -1.12,-1.64 -0.59,-2.5 0.52,-0.85 1.64,-1.12 2.5,-0.59l18.9 11.63c0.85,0.53 1.12,1.64 0.59,2.5 -0.34,0.56 -0.94,0.86 -1.54,0.86z"/>
  <path class="fil9" d="M592.49 308.52c-0.4,0 -0.81,-0.14 -1.15,-0.41l-9.44 -7.63c-0.79,-0.63 -0.91,-1.77 -0.28,-2.56 0.63,-0.78 1.78,-0.9 2.56,-0.27l9.45 7.64c0.78,0.63 0.9,1.77 0.27,2.55 -0.36,0.45 -0.88,0.68 -1.41,0.68z"/>
  <path class="fil9" d="M604.48 283.8c-0.55,0 -1.09,-0.25 -1.45,-0.72l-9.08 -11.99c-0.61,-0.8 -0.45,-1.94 0.35,-2.55 0.8,-0.6 1.94,-0.45 2.54,0.35l9.09 12c0.61,0.8 0.45,1.94 -0.35,2.54 -0.33,0.25 -0.71,0.37 -1.1,0.37z"/>
  <path class="fil9" d="M589.22 281.62c-0.45,0 -0.9,-0.16 -1.25,-0.49l-12.72 -12c-0.73,-0.69 -0.77,-1.84 -0.08,-2.57 0.69,-0.73 1.84,-0.76 2.57,-0.07l12.72 11.99c0.73,0.69 0.77,1.84 0.08,2.57 -0.36,0.38 -0.84,0.57 -1.32,0.57z"/>
  <path class="fil9" d="M579.77 290.34c-0.28,0 -0.55,-0.06 -0.82,-0.19l-7.99 -4c-0.9,-0.44 -1.26,-1.54 -0.82,-2.43 0.45,-0.9 1.54,-1.27 2.44,-0.82l8 4c0.9,0.45 1.26,1.54 0.81,2.44 -0.32,0.64 -0.96,1 -1.62,1z"/>
  <path class="fil9" d="M657.18 327.05c-0.63,0 -1.25,-0.33 -1.58,-0.92 -0.49,-0.88 -0.18,-1.99 0.69,-2.48l11.63 -6.54c0.88,-0.49 1.99,-0.18 2.48,0.69 0.49,0.88 0.18,1.99 -0.69,2.48l-11.63 6.54c-0.29,0.16 -0.59,0.23 -0.9,0.23z"/>
  <path class="fil9" d="M661.18 312.52c-0.6,0 -1.2,-0.31 -1.54,-0.86 -0.53,-0.85 -0.27,-1.97 0.58,-2.51l16.36 -10.17c0.85,-0.53 1.97,-0.27 2.5,0.58 0.53,0.85 0.27,1.97 -0.58,2.5l-16.36 10.18c-0.3,0.19 -0.63,0.28 -0.96,0.28z"/>
  <path class="fil9" d="M681.17 310.7c-0.41,0 -0.83,-0.14 -1.17,-0.43 -0.77,-0.65 -0.86,-1.8 -0.21,-2.57l12.36 -14.53c0.65,-0.77 1.79,-0.86 2.56,-0.21 0.76,0.65 0.85,1.79 0.21,2.56l-12.36 14.54c-0.36,0.42 -0.87,0.64 -1.39,0.64z"/>
  <path class="fil9" d="M656.09 299.79c-0.48,0 -0.97,-0.19 -1.33,-0.58 -0.68,-0.73 -0.64,-1.88 0.1,-2.57l10.17 -9.45c0.74,-0.68 1.89,-0.64 2.57,0.1 0.68,0.74 0.64,1.88 -0.09,2.57l-10.18 9.45c-0.35,0.32 -0.79,0.48 -1.24,0.48z"/>
  <path class="fil9" d="M661.91 281.62c-0.27,0 -0.54,-0.06 -0.79,-0.18 -0.91,-0.44 -1.28,-1.53 -0.85,-2.43l6.18 -12.72c0.44,-0.9 1.53,-1.28 2.43,-0.84 0.9,0.44 1.28,1.52 0.84,2.43l-6.18 12.72c-0.31,0.64 -0.96,1.02 -1.63,1.02z"/>
  <path class="fil9" d="M675.36 290.71c-0.31,0 -0.61,-0.08 -0.9,-0.24 -0.87,-0.49 -1.18,-1.6 -0.69,-2.47l8 -14.18c0.49,-0.87 1.6,-1.18 2.48,-0.69 0.87,0.5 1.18,1.6 0.69,2.48l-8 14.17c-0.33,0.59 -0.95,0.93 -1.58,0.93z"/>
  <path class="fil9" d="M686.26 286.71c-0.23,0 -0.46,-0.04 -0.68,-0.13 -0.93,-0.38 -1.38,-1.44 -1,-2.37l9.08 -22.53c0.38,-0.93 1.44,-1.38 2.37,-1.01 0.93,0.38 1.38,1.44 1,2.37l-9.08 22.53c-0.29,0.71 -0.97,1.14 -1.69,1.14z"/>
  <path class="fil9" d="M697.17 285.62c-0.19,0 -0.38,-0.03 -0.56,-0.09 -0.96,-0.3 -1.48,-1.33 -1.18,-2.28l3.28 -10.18c0.3,-0.96 1.33,-1.48 2.28,-1.18 0.96,0.31 1.48,1.34 1.18,2.29l-3.28 10.18c-0.24,0.77 -0.96,1.26 -1.72,1.26z"/>
  <path class="fil9" d="M674.99 268.54c-0.22,0 -0.45,-0.04 -0.67,-0.13 -0.93,-0.37 -1.39,-1.43 -1.02,-2.36l7.64 -19.26c0.37,-0.94 1.42,-1.39 2.36,-1.02 0.93,0.37 1.39,1.42 1.02,2.35l-7.64 19.27c-0.28,0.71 -0.96,1.15 -1.69,1.15z"/>
  <path class="fil9" d="M688.08 255.82c-0.25,0 -0.49,-0.05 -0.73,-0.16 -0.92,-0.4 -1.34,-1.47 -0.94,-2.39l5.09 -11.63c0.4,-0.92 1.48,-1.34 2.4,-0.94 0.91,0.4 1.33,1.48 0.93,2.4l-5.09 11.63c-0.3,0.68 -0.96,1.09 -1.66,1.09z"/>
  <path class="fil9" d="M672.81 247.46c-0.08,0 -0.16,-0.01 -0.25,-0.02 -0.99,-0.14 -1.69,-1.06 -1.55,-2.05l2.18 -15.63c0.14,-1 1.06,-1.69 2.06,-1.55 0.99,0.14 1.68,1.06 1.54,2.05l-2.18 15.63c-0.12,0.91 -0.9,1.57 -1.8,1.57z"/>
  <path class="fil9" d="M652.46 245.64c-0.13,0 -0.27,-0.02 -0.41,-0.05 -0.98,-0.22 -1.59,-1.2 -1.36,-2.17l4 -17.45c0.22,-0.98 1.19,-1.59 2.17,-1.37 0.98,0.23 1.59,1.2 1.37,2.18l-4 17.45c-0.19,0.84 -0.94,1.41 -1.77,1.41z"/>
  <path class="fil9" d="M665.54 231.46c-1,0 -1.81,-0.81 -1.81,-1.81l0 -15.63c0,-1.01 0.81,-1.82 1.81,-1.82 1.01,0 1.82,0.81 1.82,1.82l0 15.63c0,1 -0.81,1.81 -1.82,1.81z"/>
  <path class="fil9" d="M660.82 201.66c-0.08,0 -0.17,-0.01 -0.25,-0.02 -0.99,-0.13 -1.69,-1.05 -1.55,-2.05l2.54 -18.53c0.14,-1 1.06,-1.69 2.05,-1.56 0.99,0.14 1.69,1.06 1.55,2.05l-2.54 18.54c-0.13,0.91 -0.91,1.57 -1.8,1.57z"/>
  <path class="fil9" d="M648.46 216.56c-1,0 -1.82,-0.81 -1.82,-1.82 0,-1.09 0.35,-17.86 0.37,-18.57 0.02,-0.99 0.83,-1.78 1.81,-1.78 0.02,0 0.03,0 0.04,0 1.01,0.02 1.8,0.85 1.78,1.85 -0.12,6.03 -0.36,17.66 -0.36,18.5 0,1.01 -0.82,1.82 -1.82,1.82z"/>
  <path class="fil9" d="M661.54 170.04c-0.79,0 -1.51,-0.52 -1.74,-1.32l-3.64 -12.72c-0.27,-0.97 0.29,-1.97 1.25,-2.25 0.97,-0.27 1.97,0.28 2.25,1.25l3.63 12.72c0.28,0.97 -0.28,1.97 -1.24,2.25 -0.17,0.05 -0.34,0.07 -0.51,0.07z"/>
  <path class="fil9" d="M647.01 148.59c-0.18,0 -0.37,-0.02 -0.55,-0.08l-12.72 -4c-0.96,-0.3 -1.49,-1.32 -1.19,-2.28 0.3,-0.96 1.32,-1.49 2.28,-1.19l12.72 4c0.96,0.3 1.49,1.32 1.19,2.28 -0.24,0.78 -0.96,1.27 -1.73,1.27z"/>
  <path class="fil9" d="M609.21 156.23c-0.46,0 -0.92,-0.17 -1.27,-0.52 -0.72,-0.7 -0.74,-1.85 -0.04,-2.57l12 -12.35c0.7,-0.72 1.85,-0.74 2.57,-0.04 0.72,0.7 0.73,1.85 0.03,2.57l-11.99 12.35c-0.36,0.37 -0.83,0.56 -1.3,0.56z"/>
  <path class="fil9" d="M601.94 184.21c-0.02,0 -0.03,0 -0.04,0 -1.01,-0.02 -1.8,-0.85 -1.78,-1.86l0.36 -15.63c0.03,-0.98 0.84,-1.77 1.82,-1.77 0.01,0 0.03,0 0.04,0 1.01,0.02 1.8,0.86 1.78,1.86l-0.37 15.63c-0.02,0.99 -0.83,1.77 -1.81,1.77z"/>
  <path class="fil9" d="M648.82 179.12c-0.86,0 -1.63,-0.62 -1.79,-1.5l-2.9 -16.72c-0.18,-0.99 0.49,-1.93 1.48,-2.1 0.99,-0.17 1.93,0.49 2.1,1.48l2.91 16.72c0.17,0.98 -0.5,1.93 -1.48,2.1 -0.11,0.02 -0.21,0.02 -0.32,0.02z"/>
  <path class="fil9" d="M621.2 160.22c-0.85,0 -1.61,-0.59 -1.78,-1.46 -0.2,-0.98 0.44,-1.94 1.42,-2.13l12.73 -2.55c0.97,-0.2 1.94,0.44 2.13,1.43 0.2,0.98 -0.44,1.94 -1.42,2.13l-12.72 2.55c-0.12,0.02 -0.24,0.03 -0.36,0.03z"/>
  <path class="fil9" d="M595.4 263.45c-0.47,0 -0.94,-0.18 -1.29,-0.54l-7.27 -7.26c-0.71,-0.71 -0.71,-1.86 0,-2.57 0.71,-0.71 1.86,-0.71 2.57,0l7.27 7.27c0.71,0.7 0.71,1.86 0,2.56 -0.35,0.36 -0.82,0.54 -1.28,0.54z"/>
  <path class="fil9" d="M604.12 210.02c-0.84,0 -1.59,-0.58 -1.78,-1.43l-2.91 -13.45c-0.21,-0.98 0.42,-1.95 1.4,-2.16 0.98,-0.22 1.94,0.41 2.16,1.39l2.9 13.45c0.22,0.98 -0.41,1.94 -1.39,2.16 -0.13,0.03 -0.26,0.04 -0.38,0.04z"/>
  <path class="fil9" d="M625.56 215.83c-0.65,0 -1.28,-0.35 -1.61,-0.97l-7.63 -14.54c-0.47,-0.89 -0.12,-1.98 0.76,-2.45 0.89,-0.47 1.99,-0.12 2.46,0.76l7.63 14.54c0.47,0.89 0.13,1.99 -0.76,2.46 -0.27,0.14 -0.56,0.2 -0.85,0.2z"/>
  <path class="fil9" d="M615.38 188.21c-0.89,0 -1.67,-0.66 -1.8,-1.57l-1.81 -13.45c-0.14,-1 0.56,-1.91 1.55,-2.05 1,-0.13 1.91,0.57 2.05,1.56l1.82 13.45c0.13,0.99 -0.57,1.91 -1.56,2.04 -0.08,0.02 -0.17,0.02 -0.25,0.02z"/>
  <path class="fil9" d="M641.56 187.49c-0.66,0 -1.29,-0.36 -1.61,-0.97l-6.91 -13.09c-0.47,-0.89 -0.13,-1.99 0.76,-2.46 0.89,-0.46 1.99,-0.12 2.46,0.76l6.9 13.09c0.47,0.89 0.13,1.99 -0.76,2.45 -0.27,0.15 -0.56,0.22 -0.84,0.22z"/>
  <path class="fil9" d="M628.83 191.12c-0.84,0 -1.6,-0.6 -1.78,-1.46l-4 -19.62c-0.2,-0.99 0.44,-1.95 1.42,-2.15 0.98,-0.2 1.95,0.44 2.15,1.42l3.99 19.63c0.21,0.98 -0.43,1.94 -1.41,2.14 -0.13,0.03 -0.25,0.04 -0.37,0.04z"/>
  <path class="fil9" d="M643.29 420.12c-1.59,0.29 -3.55,-21.73 0.8,-37.4 4.35,-15.67 15.21,-26.31 19.44,-24.13 4.23,2.17 -3.22,14.98 -9.16,27.56 -5.93,12.58 -8.57,33.51 -11.08,33.97z"/>
  <path class="fil8" d="M659.85 366.58c0.3,-0.42 0.21,-1.01 -0.21,-1.32 -0.41,-0.3 -1,-0.21 -1.31,0.21 -0.16,0.21 -15.2,21.1 -15.94,52.58 0.28,1.37 0.59,2.13 0.9,2.07 0.31,-0.06 0.63,-0.44 0.96,-1.08 0.45,-31.39 15.44,-52.25 15.6,-52.46z"/>
  <path class="fil9" d="M653.11 421.04c-2.35,0.53 -3.73,-18.46 0.71,-28.7 4.43,-10.25 10.83,-22.2 16.44,-19.91 5.6,2.28 1.79,10.86 -4.2,21.84 -10.67,18.42 -10.43,26.19 -12.95,26.77z"/>
  <path class="fil8" d="M653.11 421.04c0.34,-0.08 0.62,-0.29 0.89,-0.63 -1.03,-14.9 12.74,-39.72 12.88,-39.98 0.26,-0.45 0.1,-1.02 -0.36,-1.28 -0.45,-0.25 -1.02,-0.09 -1.28,0.37 -0.58,1.03 -13.86,24.97 -13.14,40.45 0.3,0.76 0.64,1.15 1.01,1.07z"/>
  <path class="fil9" d="M664.1 421.95c-2.66,-0.11 -2.76,-16.24 1.35,-23.22 4.12,-6.97 11.67,-10.52 17.16,-8.23 5.49,2.28 5.95,10.86 2.29,13.95 -3.66,3.09 -4.46,-5.26 -10.98,-0.57 -6.52,4.69 -7.06,18.19 -9.82,18.07z"/>
  <path class="fil8" d="M685.49 400.57c-0.04,-0.08 -4.2,-7.38 -12.92,-3.02 -7.59,3.79 -9.11,19.89 -9.36,23.61 0.25,0.49 0.55,0.78 0.89,0.79 0.36,0.02 0.68,-0.2 0.98,-0.59 0.23,-3.33 1.68,-18.8 8.33,-22.13 7.08,-3.53 10.3,2.01 10.44,2.24 0.25,0.46 0.82,0.62 1.27,0.37 0.46,-0.25 0.62,-0.82 0.37,-1.27z"/>
  <path class="fil16" d="M624.84 257.27c-0.51,0 -1.02,-0.21 -1.38,-0.63l-0.61 -0.71c-2.53,-0.1 -5.16,-0.31 -7.75,-0.65 0.13,2.04 -0.17,2.9 -0.56,2.94 -1.03,0.11 -1.46,-2.24 -1.46,-2.24 0,0 -1.2,3.21 -2.35,2.8 -0.85,-0.2 0,-2.92 0,-2.92 0,0 -1.45,2.55 -2.25,2.2 -0.63,-0.28 0.19,-2.78 0.57,-3.83 -1.19,-0.25 -2.35,-0.54 -3.47,-0.85 0.34,2.47 0,3.93 -0.46,3.98 -1.03,0.11 -1.45,-2.34 -1.45,-2.34 0,0 -1.2,3.15 -2.35,2.75 -0.85,-0.2 0,-2.95 0,-2.95 0,0 -1.45,2.74 -2.25,2.39 -0.67,-0.29 0.82,-4.36 1.33,-5.72 -4.7,-2.16 -8.46,-5.39 -11.22,-10.52 -3.91,-7.26 -5.58,-16.12 -4.78,-23.31 -0.3,-0.8 -0.46,-1.67 -0.46,-2.57 0,-2.57 1.3,-4.83 3.28,-6.17 0.19,-0.3 0.39,-0.58 0.6,-0.85 -2.07,-1.09 -4.03,-3.66 -4.42,-6.87 0.79,0.75 2.43,1.21 7.99,2.8 0.32,0.09 0.62,0.19 0.92,0.31 3.79,-1.93 8.4,-1.9 12.61,0.17 0.43,-0.18 0.88,-0.34 1.36,-0.48 5.57,-1.59 7.2,-2.05 8,-2.8 -0.4,3.25 -2.41,5.84 -4.5,6.91 4.52,4.42 7.14,6.15 9.52,7.94 0.17,0.09 10.77,6.13 16.02,18.17 5.3,12.13 4.18,21.24 4.18,21.24 0,0 -5.67,0.62 -12.94,0.56 -0.1,0.3 -0.28,0.59 -0.54,0.81 -0.34,0.29 -0.76,0.44 -1.18,0.44z"/>
  <path class="fil13" d="M569.02 405c0,0 5.26,4.82 5.12,10.37 -0.13,5.55 -4.81,0.55 -5.22,-3.81 -0.23,3.74 -2.12,4.59 -3.29,4.45 -1.18,-0.13 -1.8,-1.91 -1.4,-3.88 -1.99,2.5 -4.08,2.3 -4.88,0.64 -0.79,-1.65 2.25,-5.43 9.67,-7.77z"/>
  <path class="fil8" d="M561.73 396.1c-0.06,-0.14 -0.04,-0.29 0.04,-0.41 0.08,-0.13 0.23,-0.2 0.37,-0.19 5.06,0.19 8.31,3.36 9.32,4.5 0.12,-0.09 0.25,-0.17 0.38,-0.23 1.16,-0.63 2.44,-0.66 3.71,-0.1 0.19,0.08 0.38,0.18 0.56,0.29 -0.86,-2.16 -1.78,-5.51 -0.45,-8.01 0.08,-0.14 0.22,-0.23 0.38,-0.23 0.16,0 0.3,0.08 0.38,0.22 1.82,3.1 1.67,7.9 1.56,9.47 1.83,1.81 3.42,4.56 4.62,7.63 0.17,-2.94 1,-7.08 3.95,-10.22 0.12,-0.13 0.29,-0.17 0.46,-0.12 0.16,0.06 0.27,0.2 0.29,0.37 0.8,6.94 -2.52,12.05 -3.55,13.46 0.35,1.3 0.63,2.61 0.83,3.9 0.84,-2.43 2.54,-5.66 5.87,-7.42 0.14,-0.08 0.31,-0.07 0.45,0.02 0.13,0.09 0.21,0.24 0.19,0.4 -0.56,6.14 -4.81,9.39 -6.21,10.31 0.04,1.22 -0.03,2.38 -0.21,3.41 -0.04,0.27 -0.25,0.47 -0.49,0.53 -0.09,0.02 -0.18,0.02 -0.26,0.01 -0.36,-0.06 -0.6,-0.4 -0.54,-0.76 0.16,-0.91 0.22,-1.9 0.21,-2.95 -1.59,-0.25 -5.78,-1.26 -7.34,-5.07 -0.06,-0.14 -0.03,-0.31 0.06,-0.43 0.1,-0.13 0.25,-0.19 0.41,-0.17 3.33,0.5 5.52,2.25 6.73,3.57 -0.18,-1.61 -0.51,-3.29 -0.98,-4.94 -1.82,-0.41 -7.48,-1.98 -9.48,-6.07 -0.07,-0.13 -0.06,-0.29 0.02,-0.42 0.08,-0.13 0.22,-0.21 0.37,-0.21 3.63,-0.02 6.39,1.97 8.11,3.69 -1.64,-4.32 -4.05,-7.99 -6.47,-9.06 -0.91,-0.41 -1.75,-0.39 -2.56,0.05 -1.51,0.81 -2.59,2.9 -2.92,4.59 0.4,0.42 0.98,1.07 1.6,1.9 -1.8,2.26 -5.05,2 -5.36,-1.18 0.76,-0.34 1.59,-0.67 2.48,-0.98 0.27,-1.39 0.99,-3.06 2.09,-4.28 -2.21,-0.33 -7.22,-1.45 -8.62,-4.87z"/>
  <path class="fil17" d="M-263.68 175.03c1.84,-5.34 1.73,-7.73 1.37,-9.6 -0.36,-1.87 1.15,-0.79 1.76,1.01 0.61,1.79 0.83,6 -0.5,9.49 -1.33,3.48 -1.91,4.63 1.58,2.94 3.49,-1.69 8.88,-5.61 10.97,-13.15 0.43,-1.73 1.18,-2.16 1.11,1.15 -0.07,3.3 -2.12,8.41 -4.93,11.46 -2.8,3.06 -2.01,3.1 1.01,0.83 3.02,-2.26 9.35,-8.99 10.07,-12.4 0.71,-3.42 0.97,-7.73 -0.9,-13.16 -1.87,-5.43 -1.62,-7.04 -1.15,-7.26 0.46,-0.22 1.61,2.55 2.58,5.07 0.98,2.52 2.13,5.25 3.06,5.21 0.94,-0.03 2.19,-5.46 1.91,-10.5 -0.29,-5.03 -0.78,-8.23 0.04,-8.3 0.82,-0.07 1.32,3.13 1.86,6.44 0.54,3.3 0.97,5.57 1.73,5.53 0.75,-0.03 5.21,-5.68 5.68,-11.14 0.25,-2.73 1.65,-1.48 1.4,1.98 -0.25,3.45 -2.84,13.72 -7.19,20.53 -4.35,6.82 -9.45,13.51 -11.83,15.92 -2.37,2.4 -3.2,2.58 1.12,2.3 4.31,-0.29 12.54,-5.25 14.99,-10.93 0.79,-1.91 1.74,-2.41 1.21,1.51 -0.53,3.92 -7.47,10.71 -12.68,13.33 -5.21,2.63 -14.52,2.45 -18.21,2.95 -3.68,0.51 -8.5,2.73 -10.15,5.32l-3.75 -6.4c0,0 6.01,-4.79 7.84,-10.13z"/>
  <path class="fil17" d="M-313.6 177.08c-2.37,-2.41 -7.48,-9.1 -11.83,-15.92 -4.35,-6.81 -6.94,-17.08 -7.19,-20.53 -0.25,-3.46 1.15,-4.71 1.4,-1.98 0.47,5.46 4.93,11.11 5.68,11.14 0.76,0.04 1.19,-2.23 1.73,-5.53 0.54,-3.31 1.04,-6.51 1.86,-6.44 0.82,0.07 0.33,3.27 0.04,8.3 -0.28,5.04 0.97,10.47 1.91,10.5 0.93,0.04 2.08,-2.69 3.06,-5.21 0.97,-2.52 2.12,-5.29 2.58,-5.07 0.47,0.22 0.72,1.83 -1.15,7.26 -1.87,5.43 -1.61,9.74 -0.9,13.16 0.72,3.41 7.05,10.14 10.07,12.4 3.02,2.27 3.81,2.23 1.01,-0.83 -2.81,-3.05 -4.86,-8.16 -4.93,-11.46 -0.07,-3.31 0.68,-2.88 1.11,-1.15 2.09,7.54 7.48,11.46 10.97,13.15 3.49,1.69 2.91,0.54 1.58,-2.94 -1.33,-3.49 -1.11,-7.7 -0.5,-9.49 0.61,-1.8 2.12,-2.88 1.76,-1.01 -0.36,1.87 -0.47,4.26 1.37,9.6 1.83,5.34 7.84,10.13 7.84,10.13l-3.75 6.4c-1.65,-2.59 -6.47,-4.81 -10.15,-5.32 -3.69,-0.5 -13,-0.32 -18.21,-2.95 -5.21,-2.62 -12.15,-9.41 -12.68,-13.33 -0.53,-3.92 0.42,-3.42 1.21,-1.51 2.45,5.68 10.68,10.64 14.99,10.93 4.32,0.28 3.49,0.1 1.12,-2.3z"/>
  <path class="fil18" d="M-274.34 334.15c0,0 -8.35,0 -13.1,0 0.87,-3.95 6.69,-8.43 6.69,-8.43l-2.59 -30.35c0,0 -2.65,-1.05 -3.03,-5.15 -0.37,-4.09 1.4,-6.41 1.4,-6.41l-4.48 -27.73c0,0 13.03,3.74 18.02,11.03 4.98,7.3 1.08,47.41 1.08,47.41 0,0 -0.28,15.68 -3.99,19.63z"/>
  <path class="fil18" d="M-215.3 269.02c2.68,9.08 15.22,24.55 15.22,24.55 0,0 -0.11,18.15 -0.43,33.9 -5.83,2.26 -8.85,9.63 -8.85,9.63l13.7 0c0,0 8.57,-34.87 10.76,-45.76 0,0 -13.52,-31.4 -20.03,-32.56 -6.51,-1.16 -10.37,10.24 -10.37,10.24z"/>
  <path class="fil19" d="M-291.46 203.93l15.87 0.74 0.07 0.13 0 -0.1 9.21 0c0,0 2.28,7.99 4,15.43 2.27,0.65 20.71,-0.87 33.33,-2.06 12.61,-1.18 27.82,-1.18 38.71,2.27 10.9,3.45 18.77,9.6 20.5,20.27 1.72,10.68 -1.29,8.2 -3.66,5.4 -0.64,-0.76 -1.28,-1.89 -1.87,-3.14 -2.35,35.33 14.47,47.75 14.47,47.75l-14.45 51.52 -13.59 0c0,0 1.3,-5.42 9.6,-10.05 1.51,-7.12 2.27,-37.02 2.27,-37.02 0,0 -17.04,-5.17 -26.31,-27.05 -12.73,0.13 -19.62,3.12 -43.56,4.85 -23.95,1.73 -34.07,-4.3 -44.25,-19.29 -10.17,-14.99 -2.52,-40.63 -0.34,-49.65z"/>
  <path class="fil18" d="M-293.03 210.26c0.61,-2.54 1.18,-4.71 1.57,-6.33l15.87 0.74 0.07 0.13 0 -0.1 9.21 0c0,0 2.27,7.99 4,15.43 -2.05,7.11 -14.02,7 -21.68,4.02 -7.65,-2.99 -5.71,-12.01 -9.04,-13.89z"/>
  <path class="fil19" d="M-278.82 186.69c2.5,0 5.03,-1.33 7.54,-1.69 1.94,2.66 5.29,9.42 5.57,13.98 0.29,4.57 -1.43,8.34 -3.45,14.81 -2.01,6.47 -5.9,8.95 -9.66,8.95 -3.75,0 -7.65,-2.48 -9.66,-8.95 -2.01,-6.47 -3.74,-10.24 -3.45,-14.81 0.29,-4.56 3.63,-11.32 5.57,-13.98 2.52,0.36 5.04,1.69 7.54,1.69z"/>
  <path class="fil15" d="M-288.98 201.09c0,1.01 0.82,1.83 1.83,1.83 1.01,0 1.84,-0.82 1.84,-1.83 0,-1.02 -0.83,-1.84 -1.84,-1.84 -1.01,0 -1.83,0.82 -1.83,1.84z"/>
  <path class="fil18" d="M-278.82 218.83c2.05,0 3.69,-0.49 3.86,-3.94 0.59,-9.06 -0.05,-18.46 -3.86,-18.53 -3.81,0.07 -4.45,9.47 -3.85,18.53 0.16,3.45 1.8,3.94 3.85,3.94z"/>
  <path class="fil15" d="M-268.65 201.09c0,1.01 -0.82,1.83 -1.84,1.83 -1.01,0 -1.83,-0.82 -1.83,-1.83 0,-1.02 0.82,-1.84 1.83,-1.84 1.02,0 1.84,0.82 1.84,1.84z"/>
  <path class="fil15" d="M-282.59 215.77c0,-1.75 1.82,-2.23 3.77,-2.23 1.95,0 3.79,0.62 3.79,2.08 -0.35,2.79 -1.89,3.21 -3.79,3.21 -1.86,0 -3.38,-0.4 -3.77,-3.06z"/>
  <path class="fil19" d="M-291.14 194.91c-2.39,-2.94 -7.68,-6.5 -16.57,-4.77 0.05,6.79 8.31,12.71 15.85,8.08l0.72 -3.31z"/>
  <path class="fil18" d="M-307.41 192.32c8.44,1.15 15.55,5.9 15.55,5.9 -6.72,4.13 -14.01,-0.12 -15.55,-5.9z"/>
  <path class="fil19" d="M-266.49 194.91c2.38,-2.94 7.67,-6.5 16.57,-4.77 -0.06,6.79 -8.31,12.71 -15.86,8.08l-0.71 -3.31z"/>
  <path class="fil18" d="M-250.22 192.32c-8.44,1.15 -15.56,5.9 -15.56,5.9 6.73,4.13 14.01,-0.12 15.56,-5.9z"/>
  <path class="fil19" d="M-274.39 333.27c-0.54,-16.82 -0.32,-26.33 -0.32,-26.33 0,0 -1.73,-2.59 -1.51,-5.39 0.21,-2.8 2.37,-5.18 2.37,-5.18l-3.1 -28.35 17.01 4.93 -4.42 25.03c0,0 1.3,2.81 0.86,5.61 -0.43,2.81 -2.37,5.1 -2.37,5.1l-2.8 32.27 -12.08 0c0,0 1.62,-3.8 6.36,-7.69z"/>
  <path class="fil18" d="M-277.01 259.92c10.21,7.62 22,5.25 40.4,3.85 18.41,-1.41 29.35,-1.58 33.3,4.25l0 0c-12.73,0.13 -19.62,3.12 -43.56,4.85 -23.95,1.73 -34.07,-4.3 -44.25,-19.29 -4.59,-6.77 -5.55,-15.71 -5.02,-24.31 5.47,7.93 8.92,23.02 19.13,30.65z"/>
  <path class="fil18" d="M-175.3 242.89l-0.19 4.25c-0.79,32.06 14.66,43.48 14.66,43.48l-14.45 51.52c-9.06,0 0.46,0 -13.59,0 0,0 1.29,-5.39 9.54,-10.02l0.06 0c3.99,-3.72 10.24,-27.45 13.26,-39.64 -11.21,-8.73 -15.85,-23.4 -16.39,-39.25 -0.54,-15.85 4.85,-24.37 0.91,-29.08 6.23,3.67 10.5,8.94 11.72,16.46 1.72,10.68 -1.29,8.2 -3.66,5.4 -0.64,-0.76 -1.28,-1.89 -1.87,-3.14 0,0.01 0,0.01 0,0.02z"/>
  <g id="_2414547338736">
   <path class="fil13" d="M-356.67 467.12c-0.12,-0.5 -0.63,-0.81 -1.13,-0.69 -0.5,0.12 -0.81,0.63 -0.69,1.13l1.26 5.27c0.1,0.43 0.48,0.72 0.91,0.72 0.07,0 0.14,-0.01 0.21,-0.03 0.51,-0.12 0.82,-0.62 0.7,-1.12l-1.26 -5.28z"/>
   <path class="fil13" d="M-359.35 467.93c-0.12,-0.51 -0.62,-0.82 -1.12,-0.7 -0.5,0.12 -0.81,0.63 -0.69,1.13l1.26 5.27c0.1,0.43 0.48,0.72 0.91,0.72 0.07,0 0.14,-0.01 0.21,-0.03 0.51,-0.12 0.82,-0.62 0.7,-1.12l-1.27 -5.27z"/>
   <path class="fil20" d="M-320.26 454.06c4.36,-5.16 7.57,-6.18 11.22,-6.27 0,0 0.62,-3.92 2.22,-8.46 -4.36,-0.54 -11.84,-4.01 -21.27,-7.74 -9.44,-3.74 -28.04,-2.77 -37.39,10.32 -9.35,13.09 -1.43,26.88 -1.43,26.88 0,0 6.77,1.7 17.54,1.7 4.6,0.08 8.88,0.01 12.82,-0.16 10.15,-1.49 12.3,-11.55 16.29,-16.27z"/>
   <path class="fil13" d="M-296.58 457.58c-0.63,-0.89 -4.19,-0.63 -7.21,-2.32 -3.03,-1.69 -5.25,-7.47 -5.25,-7.47 -2.9,0.07 -5.51,0.73 -8.64,3.56l0.01 -0.01c-0.66,-0.98 -2.86,-3.02 -4.64,-1.24 -1.78,1.79 -0.49,4.36 0.7,5.84l0 -0.01c-3.25,5.1 -5.99,13.08 -14.94,14.4 3.92,-0.18 7.5,-0.46 10.76,-0.82l0 2.36c0,0.51 0.3,0.93 0.82,0.93 0.52,0 0.82,-0.42 0.82,-0.93l0 -2.55c1.15,-0.14 2.25,-0.29 3.3,-0.44l-0.41 2.55c-0.08,0.5 0.26,0.98 0.77,1.07 0.06,0 0.1,0.01 0.15,0.01 0.46,0 0.85,-0.33 0.93,-0.79l0.5 -3.14c7.03,-1.15 11.83,-2.59 14.32,-3.7 5.16,-2.32 8.63,-6.41 8.01,-7.3z"/>
   <path class="fil14" d="M-310.2 456.82c0,0.96 -0.78,1.74 -1.74,1.74 -0.96,0 -1.73,-0.78 -1.73,-1.74 0,-0.96 0.77,-1.73 1.73,-1.73 0.96,0 1.74,0.77 1.74,1.73z"/>
   <path class="fil14" d="M-296.58 457.58c-0.3,-0.43 -1.3,-0.59 -2.59,-0.84l0 0c0,0 -1.26,2.56 1.09,3.61 1.2,-1.28 1.78,-2.36 1.5,-2.77z"/>
  </g>
  <g id="_2414547400272">
   <path class="fil21" d="M-418.28 363.52c-0.2,0 -0.4,-0.06 -0.57,-0.19 -0.42,-0.32 -0.51,-0.91 -0.19,-1.33l4.37 -5.82c0.31,-0.42 0.91,-0.51 1.33,-0.19 0.41,0.31 0.5,0.91 0.19,1.32l-4.38 5.83c-0.18,0.25 -0.47,0.38 -0.75,0.38z"/>
   <path class="fil21" d="M-421.83 363.41c-0.18,0 -0.36,-0.05 -0.52,-0.15 -0.44,-0.29 -0.56,-0.88 -0.28,-1.31l3.53 -5.41c0.29,-0.44 0.88,-0.56 1.31,-0.27 0.44,0.28 0.57,0.87 0.28,1.31l-3.53 5.4c-0.18,0.28 -0.48,0.43 -0.79,0.43z"/>
   <path class="fil22" d="M-415.88 335.27c-1.24,-1.6 -2.88,-3.79 -5.9,-3.69 -3.02,0.11 -4.74,2.81 -4.32,6.01 0.25,2.11 -1.65,3.93 -2.64,6.43 -0.98,2.49 -2.24,8.75 3.2,11.73 5.45,2.99 9.8,2.36 14.3,1.62 4.5,-0.74 12.23,0.14 16.48,2.95 4.64,5.62 5.76,5.9 7.06,5.94 -3.05,-4.01 -8.61,-12.23 -12.61,-16.51 -4.01,-4.29 -7.59,-7.8 -10.82,-10.44 -3.24,-2.64 -4.08,-3.18 -4.75,-4.04z"/>
   <path class="fil10" d="M-415.88 335.27c-1.24,-1.6 -2.88,-3.79 -5.9,-3.69 -2.43,0.08 -4.01,1.85 -4.33,4.2 0.83,0.06 1.74,-0.25 1.74,-0.25 0.35,-1.54 1.96,-2.54 3.65,-1.89 1.68,0.66 1.87,2.2 1.15,3.34 0,0 4.71,3.51 6.9,3.27 0.76,-0.08 1.09,-0.57 1.14,-1.27 -2.91,-2.35 -3.71,-2.89 -4.35,-3.71z"/>
   <path class="fil21" d="M-393.37 358.49c-2.35,-3.22 -4.86,-6.51 -6.94,-8.74 -4.01,-4.29 -7.59,-7.8 -10.82,-10.44 -1.11,-0.9 -1.94,-1.56 -2.57,-2.07 -2.32,-0.99 -7.34,-0.67 -9.13,1.4 -1.79,2.08 -2.81,5.24 2.98,7.84 5.8,2.6 14.87,6.15 19.29,8.68 4.43,2.53 6.15,3.78 7.19,3.33z"/>
   <path class="fil11" d="M-423.68 336.09l-2.07 -1.69c0,0 -3.3,0.96 -4.41,1.93 1.93,1.4 4.08,1.48 4.08,1.48l2.4 -1.72z"/>
   <path class="fil10" d="M-423.68 336.09c0,0 -3.18,0.35 -6.48,0.24 1.93,1.4 4.08,1.48 4.08,1.48l2.4 -1.72z"/>
   <path class="fil14" d="M-422.75 334.98c0,0.4 0.33,0.72 0.73,0.72 0.4,0 0.72,-0.32 0.72,-0.72 0,-0.41 -0.32,-0.73 -0.72,-0.73 -0.4,0 -0.73,0.32 -0.73,0.73z"/>
  </g>
  <g id="_2414547384576">
   <path class="fil9" d="M-507.86 421.04c-0.87,0 -1.64,-0.63 -1.79,-1.52l-3.64 -21.8c-0.16,-0.99 0.51,-1.93 1.5,-2.1 0.99,-0.16 1.92,0.51 2.09,1.5l3.63 21.81c0.17,0.99 -0.5,1.92 -1.49,2.09 -0.1,0.01 -0.2,0.02 -0.3,0.02z"/>
   <path class="fil9" d="M-490.78 416.32c-0.73,0 -1.42,-0.45 -1.69,-1.17l-5.82 -15.27c-0.36,-0.94 0.11,-1.99 1.05,-2.34 0.94,-0.36 1.99,0.11 2.35,1.05l5.81 15.26c0.36,0.94 -0.11,1.99 -1.05,2.35 -0.21,0.08 -0.43,0.12 -0.65,0.12z"/>
   <path class="fil13" d="M-497.38 432.09c0.39,3.12 0.05,4.39 -0.42,4.44 -1.03,0.11 -1.46,-2.24 -1.46,-2.24 0,0 -1.2,3.21 -2.35,2.81 -0.85,-0.2 0,-2.93 0,-2.93 0,0 -1.45,2.55 -2.25,2.2 -0.8,-0.35 0.74,-4.28 0.74,-4.28l5.74 0z"/>
   <path class="fil13" d="M-506.8 431.43c0.4,2.64 0.06,4.19 -0.42,4.24 -1.03,0.11 -1.45,-2.34 -1.45,-2.34 0,0 -1.2,3.16 -2.36,2.76 -0.85,-0.2 0,-2.96 0,-2.96 0,0 -1.45,2.74 -2.25,2.39 -0.8,-0.35 1.51,-6.15 1.51,-6.15l4.97 2.06z"/>
   <path class="fil23" d="M-472.84 433.77c0,0 -0.67,-15.1 -10.04,-28.24 -9.37,-13.13 -9.87,-9.2 -20.92,-20.33 -7.03,-6.03 -16.62,-5.15 -21.32,2.03 -4.7,7.17 -3.8,21.35 1.95,32.05 5.02,9.31 13.34,12.38 24.56,14.12 12.09,1.86 25.77,0.37 25.77,0.37z"/>
   <path class="fil14" d="M-502.98 386.62c2.24,-0.93 4.5,-3.64 4.91,-7.11 -0.79,0.75 -2.42,1.21 -7.99,2.8 -5.56,1.59 -7.44,6.45 -7.44,6.45 0,0 -1.89,-4.86 -7.45,-6.45 -5.57,-1.59 -7.2,-2.05 -7.99,-2.8 0.42,3.47 2.67,6.18 4.91,7.11 0,0 3.44,8.95 10.85,8.95 7.4,0 10.2,-8.95 10.2,-8.95z"/>
   <path class="fil24" d="M-528.4 393.4c0,4.11 3.33,7.45 7.45,7.45 4.11,0 7.45,-3.34 7.45,-7.45 0,-4.11 -3.34,-7.45 -7.45,-7.45 -4.12,0 -7.45,3.34 -7.45,7.45z"/>
   <path class="fil24" d="M-513.5 393.4c0,4.11 3.33,7.45 7.44,7.45 4.12,0 7.45,-3.34 7.45,-7.45 0,-4.11 -3.33,-7.45 -7.45,-7.45 -4.11,0 -7.44,3.34 -7.44,7.45z"/>
   <path class="fil13" d="M-513.5 393.4c0,0 1.94,1.34 2.38,3.1 -0.94,3.57 -2.38,5.21 -2.38,5.21 0,0 -1.45,-1.64 -2.39,-5.21 0.44,-1.76 2.39,-3.1 2.39,-3.1z"/>
   <path class="fil14" d="M-521.31 391.76c0,1.44 1.17,2.6 2.61,2.6 1.43,0 2.6,-1.16 2.6,-2.6 0,-1.44 -1.17,-2.61 -2.6,-2.61 -1.44,0 -2.61,1.17 -2.61,2.61z"/>
   <path class="fil14" d="M-510.76 391.76c0,1.44 1.16,2.6 2.6,2.6 1.44,0 2.6,-1.16 2.6,-2.6 0,-1.44 -1.16,-2.61 -2.6,-2.61 -1.44,0 -2.6,1.17 -2.6,2.61z"/>
   <path class="fil18" d="M-472.84 433.77c-7.28,-1.21 -23.85,-5.73 -31.71,-17.69 -7.87,-11.97 11.51,-21.72 11.51,-21.72 0,0 10.72,6.04 16.02,18.17 5.3,12.13 4.18,21.24 4.18,21.24z"/>
  </g>
  <g id="_2414547379824">
   <path class="fil22" d="M-268.14 569.72c0,0 1.53,15.45 5.45,19.76 3.93,4.3 7.97,4.68 6.2,0 -1.77,-4.69 0.38,-20 2.71,-29.42 0,0 0.26,-11.32 -1.83,-13.72 -2.1,-2.4 -13.24,15.33 -14.41,17.73 -1.16,2.4 1.88,5.65 1.88,5.65z"/>
   <path class="fil13" d="M-147.1 518.66l-24.2 -8.75 -0.07 0.08 -20.39 0c-16.61,6.97 -39.1,7.27 -58.18,12.21 -19.07,4.93 -25.35,23.28 -50.3,36.2 -10.52,5.45 -24.86,1.91 -24.86,1.91 0,0 -0.57,16.52 14.99,22.41 15.57,5.88 36.35,-3.7 44.23,-16.03 4.04,-6.34 7.19,-13.53 9.28,-19.02 0.32,4.57 3.06,12.84 5.14,20.61 2.09,7.78 6.93,19.08 12.91,25.06 5.98,5.98 10.25,5.31 10.63,3.6 0.38,-1.71 -3.51,-3.51 -4.84,-7.02 -1.33,-3.51 -3.42,-14.81 -3.79,-18.13 -0.37,-3.32 1.13,-8.73 4.64,-11.01 3.52,-2.27 7.12,-0.76 15.09,0.29 7.98,1.04 20.5,-2.09 22.69,-0.48 2.18,1.62 4.34,11.3 8.73,23.08 3.41,9.18 10.14,11.27 11.2,9.48 0.95,-1.62 -2.19,-5.57 -3.96,-16.45 -1.77,-10.89 1.65,-18.73 10.25,-29.11 8.61,-10.37 16.45,-18.22 20.81,-28.93z"/>
   <path class="fil22" d="M-194.61 585.55c-0.85,-3.03 -1.04,-16.89 1.09,-24.29l0 0c-2.22,-4.14 -6.55,-6.84 -12.85,-6.72 -0.93,0.05 -1.82,0.12 -2.67,0.2 -0.24,0.03 -0.48,0.05 -0.73,0.07 -6,0.6 -10.22,1.66 -16.09,2.15 -7.6,0.63 -8.76,6.74 -8.76,6.74 0.71,-1.18 1.61,-2.2 2.71,-2.92 3.52,-2.27 7.12,-0.76 15.09,0.29 2.34,0.3 5.06,0.25 7.8,0.07 0,0.02 2.55,9.81 4.64,17.3 2.08,7.49 6.83,13.09 10.01,13.09 3.19,0 0.62,-2.94 -0.24,-5.98z"/>
   <path class="fil25" d="M-161.48 513.47c-12.14,1.96 -23.65,6.88 -23.65,6.88 -1.76,10.79 -4.04,21.8 8.3,41.34l0.01 0c1.72,-4.53 4.69,-9.01 8.91,-14.1 8.61,-10.37 16.45,-18.22 20.81,-28.93l-14.38 -5.19z"/>
   <path class="fil22" d="M-186.45 488.75c-1.99,0.1 -1.61,9.59 1.81,17.18l7.21 -8.07c-1.71,-3.89 -7.02,-9.21 -9.02,-9.11z"/>
   <path class="fil22" d="M-147.83 488.75c-1.99,-0.1 -7.31,5.22 -9.01,9.11l7.21 8.07c3.42,-7.59 3.79,-17.08 1.8,-17.18z"/>
   <path class="fil12" d="M-167.14 524.91c26.01,0 24.82,-17.56 24.82,-17.56 0,0 -3.04,0.19 -7.31,-1.42 -4.94,-9.87 -12.19,-11.63 -17.51,-11.63 -5.31,0 -12.57,1.76 -17.5,11.63 -4.27,1.61 -7.31,1.42 -7.31,1.42 0,0 -1.19,17.56 24.81,17.56z"/>
   <path class="fil15" d="M-178.16 508.84c0,1.06 0.87,1.93 1.93,1.93 1.07,0 1.93,-0.87 1.93,-1.93 0,-1.07 -0.86,-1.93 -1.93,-1.93 -1.06,0 -1.93,0.86 -1.93,1.93z"/>
   <path class="fil22" d="M-167.14 528.99c6.27,0 7.16,-15.19 7.16,-15.19 -1.14,-2.65 -4.5,-3.89 -7.16,-3.89 -2.65,0 -6.02,1.24 -7.16,3.89 0,0 0.9,15.19 7.16,15.19z"/>
   <path class="fil15" d="M-156.12 508.84c0,1.06 -0.86,1.93 -1.93,1.93 -1.06,0 -1.93,-0.87 -1.93,-1.93 0,-1.07 0.87,-1.93 1.93,-1.93 1.07,0 1.93,0.86 1.93,1.93z"/>
   <path class="fil15" d="M-236.55 571.79c0,0 -8.27,-2.52 -8.73,12.01 1.97,3.67 4.25,7.06 6.73,9.54 5.98,5.98 10.25,5.31 10.63,3.6 0.38,-1.71 -3.51,-3.51 -4.84,-7.02 -1.33,-3.51 -3.42,-14.81 -3.79,-18.13z"/>
   <path class="fil15" d="M-256.49 589.48c-1.09,-2.9 -0.69,-9.88 0.33,-17 -1.09,-4.64 -7.49,-2.1 -10.55,6.37l0 0c0.88,4.17 2.19,8.62 4.02,10.63 3.93,4.3 7.97,4.68 6.2,0z"/>
   <path class="fil15" d="M-194.37 591.53c3.19,0 0.62,-2.94 -0.24,-5.98 -0.65,-2.33 -0.92,-11.06 -0.04,-18.33 -3.12,-2.42 -8.65,0.91 -10.31,9.11 0.19,0.72 0.39,1.42 0.58,2.11 2.08,7.49 6.83,13.09 10.01,13.09z"/>
   <path class="fil15" d="M-178.39 567.91l-0.01 0c-2.73,-3.15 -6.79,-1.29 -10.3,6.25 0.95,2.9 2.03,6.12 3.3,9.51 3.41,9.18 10.14,11.27 11.2,9.48 0.95,-1.62 -2.19,-5.57 -3.96,-16.45 -0.51,-3.14 -0.59,-6.02 -0.23,-8.79z"/>
   <path class="fil15" d="M-164.57 526.12c0,-2.32 -5.13,-2.32 -5.13,0 0,1.16 5.13,1.16 5.13,0z"/>
   <path class="fil22" d="M-256.67 547.83c1.03,-2.68 1.81,-4.96 2.33,-6.57l0 0c-4.68,1.65 -8.85,6.81 -15.05,17.14 -6.21,10.32 -15.57,18.8 -31.89,20.32 -16.33,1.52 -22.56,-10.57 -22.56,-10.57l0 0c1.62,5.1 5.32,11.39 13.73,14.57 15.57,5.88 36.35,-3.7 44.23,-16.03 4,-6.27 7.11,-13.35 9.21,-18.82l0 -0.04z"/>
   <path class="fil25" d="M-325.1 560.31c0,0 -0.57,16.52 14.99,22.41 3.79,1.43 7.88,1.94 12.03,1.73 6.8,-8.87 2.51,-19.78 -1.45,-26.42l0 0c-0.24,0.12 -0.47,0.25 -0.71,0.37 -10.52,5.45 -24.86,1.91 -24.86,1.91z"/>
   <path class="fil13" d="M-256.02 546.12c-2.96,8.21 -8.02,18.43 -12.12,23.62 0.01,0.16 0.14,1.36 0.39,3.1 4.3,-4.52 9.75,-15.05 13.18,-23.95 -0.26,-1.12 -0.6,-2.04 -1.04,-2.55 -0.11,-0.13 -0.25,-0.2 -0.41,-0.22z"/>
  </g>
  <g id="_2414547377424">
   <path class="fil24" d="M-534.26 608.4l2.85 -11.96 -15.27 -0.57c0,0 -0.94,9.45 0,13.4 0.94,3.95 5.18,3.94 16.73,3.37 -0.73,-1.77 -4.31,-4.24 -4.31,-4.24z"/>
   <path class="fil24" d="M-483.84 575.07c-2.36,8.25 -5.73,21.64 -3.47,32.32 2.2,1.97 3.45,4.76 3.45,4.76l-8.47 0c0,0 -5.28,-8.67 -2.87,-21.73 2.4,-13.06 11.36,-15.35 11.36,-15.35z"/>
   <path class="fil24" d="M-476.2 534.54c0.44,1.98 1.42,2.81 1.42,2.81l8.82 -0.56c0,0 -5.49,-3.05 -10.24,-2.25z"/>
   <path class="fil20" d="M-461.64 551.98c-2.86,1.68 -5.74,3.75 -8.13,6.26 -7.09,7.45 -13.01,14.62 -16.82,21.05 -3.8,6.44 -6.14,17.21 -5.77,32.71 1.9,1.75 3.36,4.85 3.36,4.85l-15.28 0c0,0 -3.18,-14.69 -5.06,-21.12 -8.98,0.66 -26.6,1.95 -39.47,0.12 -2.34,7.16 -2.27,15.81 -2.27,15.81 0,0 2.93,2.3 3.66,4.26 -5.71,0.07 -10.31,-0.33 -13.24,-0.77 -2.92,-0.43 -4.53,-2.28 -4.75,-7.25 -0.22,-4.97 -0.95,-15.58 -0.44,-21.4 0,0 -2.56,5.36 -5.67,4.51 -1.49,-0.54 2.01,-11.88 4.21,-16.46 2.19,-4.58 9.21,-17.02 30.66,-19.65 21.45,-2.63 35.1,-2.54 50.31,-11.7 1.69,-1.01 3.24,-1.91 4.66,-2.69 0,0 9.15,-3.3 15.17,-2.13 6.02,1.17 13.19,4.97 4.87,13.6z"/>
   <path class="fil25" d="M-447.54 542c-4.24,0 -6.04,-0.26 -11.8,-2.99 -9.21,-3.96 -13.63,-3.36 -22.99,1.87l4.12 -0.38c0,0 4.69,-2.18 11.76,-1.15 5.94,0.92 6.77,3.1 6.53,4.5 -0.24,1.39 -2.2,2.81 -6.29,2.95 -4.09,0.15 -14.14,-0.87 -21.94,3.22 -7.8,4.1 -14.57,13.89 -14.57,13.89 0,0 14.43,-6.09 23.5,-8.09 9.06,-2 14.78,-2.24 17.13,-3.57l0 0c5.81,-3.49 11.66,-5.38 13.31,-6.08 2.41,-1.02 2.34,-2.49 1.24,-4.17z"/>
   <path class="fil24" d="M-557.03 612.91c-7.11,-1.36 -6.24,-13.75 -6.14,-24.09 0.1,-10.33 -3.12,-12.87 -1.4,-18.96l0 0c-1.32,1.87 -2.19,3.53 -2.74,4.69 -2.2,4.58 -5.7,15.91 -4.21,16.46 3.11,0.84 5.67,-4.51 5.67,-4.51 -0.51,5.81 0.22,16.41 0.44,21.38 0.22,4.98 1.83,6.81 4.75,7.24 2.93,0.44 7.53,0.81 13.24,0.74 -0.25,-0.66 -0.74,-1.37 -1.29,-2.01 -0.09,0 -2.85,-0.18 -8.32,-0.94z"/>
   <path class="fil24" d="M-490.15 614.78c-7.56,-0.61 -11.09,1.99 -11.97,-5.72 -0.88,-7.73 -2.84,-13.6 -7.22,-13.33l5.08 21.12 15.28 0c0,0 -0.34,-0.94 -1.17,-2.07z"/>
   <path class="fil24" d="M-487.76 540.25c0.88,5.19 8.34,4.82 8.34,4.82l1.75 -4.38c0,0 -4.53,-1.83 -10.09,-0.44z"/>
   <path class="fil14" d="M-446.82 543.78l0 0c-0.05,-0.56 -0.31,-1.15 -0.72,-1.78 -0.78,0 -1.48,-0.01 -2.14,-0.04l0 0c-1.03,0.9 -0.65,2.2 2.86,1.82z"/>
   <path class="fil14" d="M-463.12 543.33c0,0.68 -0.55,1.23 -1.23,1.23 -0.68,0 -1.23,-0.55 -1.23,-1.23 0,-0.67 0.55,-1.22 1.23,-1.22 0.68,0 1.23,0.55 1.23,1.22z"/>
  </g>
  <path class="fil10" d="M-395.83 630.34c0,0 1.21,-3.53 1.96,-7.71 0.58,-3.28 1.4,-8.15 1.25,-11.35l5.28 10.14c-2.8,7.77 -6.53,11.66 -6.53,11.66 0,0 -1.85,0 -5.2,0 0,-2.63 3.24,-2.74 3.24,-2.74z"/>
  <path class="fil11" d="M-386.31 594.36c-0.72,-1.49 0.24,-3.59 2.15,-7.79 1.91,-4.21 1.29,-12.91 -0.77,-13.1 -2.05,-0.19 -3.58,5.73 -3.91,10.7 -0.34,4.97 0.56,8.32 -1.15,8.5l1.96 1.69 1.72 0z"/>
  <path class="fil10" d="M-388.17 594.07c0.32,0 0.61,-0.2 0.71,-0.52 1.37,-4.33 2.53,-13.8 2.58,-14.2 0.04,-0.4 -0.25,-0.78 -0.66,-0.83 -0.4,-0.05 -0.78,0.25 -0.83,0.65 -0.01,0.1 -1.19,9.73 -2.51,13.93 -0.13,0.39 0.09,0.81 0.49,0.94 0.07,0.02 0.15,0.03 0.22,0.03z"/>
  <path class="fil10" d="M-392.66 592.66c0.85,-0.49 0.51,-8.04 0,-13.4 -0.52,-5.35 -0.74,-5.99 -0.74,-5.99 0,0 2.21,-0.6 3.6,3.29 1.39,3.88 1.02,9.52 0,13.86 -0.32,1.24 -0.03,1.78 0.42,1.85l-1.19 1.05 -2.09 -0.66z"/>
  <path class="fil11" d="M-393.95 593.16c4.11,-1.87 7.84,-0.96 9.51,3.15 1.67,4.11 1.72,6.03 4.63,7.27 2.92,1.24 9.18,3.4 12.95,9.23 3.78,5.83 5.64,14.29 5.93,17.78 3.44,-0.05 5.16,1.77 5.3,3.75 -8.17,0 -34.36,0 -34.36,0 0,0 0.81,-4.75 10.13,-3.8 -1.99,-2.09 -3.92,-4.6 -4.82,-7.11l0 0 -0.88 -0.76c-2.81,7.78 -6.53,11.67 -6.53,11.67 0,0 -1.85,0 -5.2,0 0,-2.64 3.24,-2.74 3.24,-2.74 0,0 1.1,-3.56 1.96,-7.71 0.86,-4.16 0.57,-6.17 -0.2,-10.09 -0.76,-3.91 -0.38,-10.17 -0.38,-10.18 0,0 -6.83,-0.67 -7.19,-3.06 -0.33,-2.22 1.8,-5.54 5.91,-7.4z"/>
  <path class="fil14" d="M-393.93 597.19c0,0.61 0.49,1.1 1.1,1.1 0.6,0 1.09,-0.49 1.09,-1.1 0,-0.6 -0.49,-1.09 -1.09,-1.09 -0.61,0 -1.1,0.49 -1.1,1.09z"/>
  <path class="fil10" d="M-387.87 602.97c5.06,-1.23 3.81,-4.74 3.3,-6.96 0.04,0.1 0.09,0.2 0.13,0.3 1.56,3.83 1.7,5.75 4.07,7 -2.11,2.08 -6.81,1.6 -7.5,-0.34z"/>
  <path class="fil10" d="M-379.86 630.54c-1.99,-2.08 -3.92,-4.6 -4.82,-7.1 -0.73,-2.04 -0.79,-4.08 0.36,-5.88 0.29,-0.58 0.65,-1.07 1.02,-1.49 1.41,-1.57 3.42,-2.17 5.66,-1.7 3.46,0.74 6.89,3.87 7.99,7.28 0.12,0.39 -0.09,0.81 -0.49,0.94 -0.39,0.12 -0.81,-0.1 -0.94,-0.49 -0.92,-2.89 -3.94,-5.64 -6.87,-6.27 -1.2,-0.25 -2.91,-0.25 -4.24,1.24 -0.88,0.98 -1.32,2.13 -1.33,3.43 0.71,1.77 2.13,3.88 4.33,6.56 3.82,4.65 12.3,3.12 18.26,3.52 0,0 0,0.01 0,0.01 3.44,-0.05 5.16,1.77 5.3,3.75 -8.17,0 -34.36,0 -34.36,0 0,0 0.81,-4.75 10.13,-3.8z"/>
  <path class="fil14" d="M-396.9 600.25c0.31,-0.86 -2.24,-1.65 -2.6,-0.67 -0.36,0.98 2.08,1.68 2.6,0.67z"/>
  <g id="_2414547360768">
   <path class="fil8" d="M-481.52 292.89c-0.78,1.64 -0.33,2.5 0.3,2.98 0.64,0.49 2.74,-0.5 3.17,-2.08 0.43,-1.59 -3.47,-0.9 -3.47,-0.9z"/>
   <path class="fil9" d="M-481.6 291.83c0.94,-1.27 2.38,-1.06 3.3,-0.36 0.92,0.7 1.25,1.62 0.5,2.68 -0.75,1.06 -4.5,-1.37 -3.8,-2.32z"/>
   <path class="fil26" d="M-479.54 292.68c0,0 -1.11,-1.69 -2.33,-1.69 -1.57,0.01 -2.28,0.86 -4.04,0.16 -1.88,-0.75 -0.95,-3.51 -0.92,-3.61l0.01 0c0,0 2.88,1.84 5.12,1.53 2.23,-0.31 2.27,-2.09 1.05,-6.02 -1.22,-3.93 -4.63,-5.56 -7.33,-4.91 -2.7,0.65 -3.55,1.94 -5,3.73 -1.46,1.8 -2.84,3.44 -7.36,3.54 -4.52,0.11 -10.03,0.83 -12.97,6.55 -0.54,1.06 -0.86,2.22 -0.97,3.44 0,0 0,0 0,0 0.21,-5.88 -0.06,-11.56 -5.05,-15.1 -4.99,-3.53 -14.82,-5.24 -21.13,2.79 -6.32,8.03 -2.69,16.18 2.73,18.56 5.42,2.37 11.77,-0.02 12.2,-7.4 0.78,7.9 3.78,11.88 7.06,13.67 1.97,1.08 4.8,1.8 7.36,2.19l14.1 -1.94c4.83,-1.69 6.39,-6.32 6.16,-9.44 -0.01,-0.16 -0.03,-0.32 -0.06,-0.48 1.27,0.24 3.06,0.11 4.48,-0.78 1.71,-1.06 3.12,-3.22 3.6,-3.79 0.41,-0.5 1.28,-0.37 1.71,0.05 0.49,0.48 1,0.39 0.63,-0.08 0.48,0.32 0.71,0.22 0.32,-0.3 0.35,0.29 0.6,0.19 0.26,-0.35 0.39,0.33 0.53,-0.05 0.37,-0.32z"/>
   <path class="fil14" d="M-483.21 284.03c0,0.41 0.33,0.75 0.74,0.75 0.41,0 0.74,-0.34 0.74,-0.75 0,-0.4 -0.33,-0.74 -0.74,-0.74 -0.41,0 -0.74,0.34 -0.74,0.74z"/>
   <path class="fil14" d="M-480.1 288.13l-0.46 -0.74c-0.12,-0.18 -0.36,-0.24 -0.54,-0.12 -0.19,0.11 -0.24,0.35 -0.12,0.54l0.57 0.91c0.24,-0.15 0.42,-0.34 0.55,-0.59z"/>
   <path class="fil22" d="M-488.98 280.3c0,0 0.36,-5.77 1.43,-5.77 1.06,0 2.18,5.44 2.18,5.44 0,0 -1.69,-0.21 -3.61,0.33z"/>
   <path class="fil22" d="M-485.19 294.42c-0.89,1.02 -2.91,2 -4.75,2.04 -0.59,-1.17 -1.56,-2.17 -2.76,-2.79 -1.41,-0.73 -3.77,-1.3 -7.05,0.15 -0.39,0.17 -0.57,0.62 -0.39,1.02 0.17,0.39 0.62,0.56 1.02,0.39 2.71,-1.19 4.6,-0.76 5.71,-0.19 1.26,0.66 2.19,1.85 2.48,3.2 0,0.02 0.37,0.07 0.56,0.08 0,0 0,0 0,0.01 0.05,0 0.1,0 0.15,0.01 0.04,0 0.07,0 0.1,0 0.11,0.01 0.21,0.01 0.32,0.01 0.03,0 0.07,0 0.1,0 0.11,0 0.22,0 0.34,-0.01 0.01,0 0.03,0 0.04,0l0 0c0.96,-0.06 2,-0.31 2.89,-0.87 1.71,-1.06 3.12,-3.22 3.6,-3.79 0.21,-0.25 0.54,-0.34 0.86,-0.32l0 0c-0.75,-0.5 -2.01,-0.34 -3.22,1.06z"/>
   <path class="fil22" d="M-489.84 284.03c-0.98,-2.26 -1.06,-4.21 -0.13,-5.14 -1.27,0.71 -1.99,1.73 -3.01,2.98 -1.09,1.34 -2.13,2.59 -4.46,3.19 6.34,-0.95 8.58,1.24 7.6,-1.03z"/>
   <path class="fil22" d="M-538.19 299.02c-3.25,-2.08 -5.64,-7.82 -3.65,-13.91 -4.32,7.33 -0.86,14.36 4.11,16.54 3.72,1.63 7.89,1.01 10.27,-1.93 -2.57,-0.07 -7.11,1.62 -10.73,-0.7z"/>
   <path class="fil22" d="M-497.01 308.17c0.03,-0.01 0.07,-0.02 0.1,-0.03 -0.06,0 -0.1,0 -0.1,0 -3.8,0 -8.75,-0.76 -11.7,-3.19 -2.07,-1.71 -5.83,-8.29 -3.84,-14.27 -0.27,0.39 -0.52,0.82 -0.76,1.28 -2.59,5.05 0.06,12.54 4.65,16.99 -4,-0.23 -9.94,-2.57 -12.94,-7.65 -2.36,-4 -3.12,-6.99 -3.93,-7.05 0.78,7.9 3.78,11.88 7.06,13.67 1.47,0.81 3.43,1.42 5.39,1.85 7.01,0.87 15.41,0.41 22.64,-0.8 -1.11,-0.48 -3.08,-0.86 -6.57,-0.8z"/>
   <path class="fil9" d="M-478.83 291.86c-0.05,0 -0.09,-0.01 -0.14,-0.03 -0.17,-0.07 -0.24,-0.27 -0.17,-0.44 0.01,-0.02 0.25,-0.57 0.8,-1.01 0.14,-0.11 0.35,-0.09 0.47,0.05 0.11,0.15 0.09,0.36 -0.06,0.48 -0.41,0.32 -0.59,0.74 -0.6,0.75 -0.05,0.12 -0.17,0.2 -0.3,0.2z"/>
  </g>
  <path class="fil27" d="M264.61 176.07c0.25,-2.73 1.65,-1.47 1.4,1.98 -0.25,3.45 -2.84,13.72 -7.19,20.53 -4.35,6.82 -9.46,13.51 -11.83,15.92 -2.37,2.41 -3.2,2.58 1.12,2.3 4.31,-0.29 12.54,-5.25 14.99,-10.93 0.79,-1.9 1.73,-2.41 1.21,1.51 -0.53,3.92 -7.47,10.71 -12.68,13.34 -5.21,2.62 -14.52,2.44 -18.21,2.94 -3.67,0.51 -8.47,2.72 -10.14,5.3 0.52,1.24 0.99,2.53 1.35,3.78l-0.08 -0.41c2.38,-2.93 7.67,-6.49 16.56,-4.77 0,0.74 -0.1,1.47 -0.29,2.18 -1.55,5.78 -8.84,10.03 -15.56,5.9 0.03,0.26 0.06,0.52 0.07,0.76 0.13,1.96 -0.12,3.78 -0.6,5.72l0 0c0,0 2.27,7.99 4,15.43 0,0 0,0 0,0.01 2.27,0.64 20.71,-0.88 33.33,-2.07 12.61,-1.18 27.82,-1.18 38.71,2.27 3.22,1.02 6.17,2.27 8.78,3.81 6.23,3.67 10.5,8.94 11.72,16.47 1.72,10.67 -1.29,8.19 -3.66,5.39 -0.64,-0.76 -1.28,-1.89 -1.87,-3.14 0,0.01 0,0.02 0,0.02 -0.1,1.46 -0.16,2.87 -0.2,4.25 -0.79,32.07 14.67,43.48 14.67,43.48l-14.45 51.52 -7.05 0 -1.98 0 -4.56 0c0,0 1.29,-5.39 9.54,-10.02 0.02,-0.01 0.04,-0.02 0.06,-0.03 1.51,-7.12 2.27,-37.01 2.27,-37.01 0,0 -3.46,-1.05 -8.1,-4.2 0.13,0.3 0.2,0.46 0.2,0.46 -2.19,10.89 -10.76,45.76 -10.76,45.76l-13.7 0c0,0 3.02,-7.37 8.84,-9.63 0.33,-15.75 0.44,-33.89 0.44,-33.89 0,0 -12.54,-15.48 -15.22,-24.56 0,0 0,-0.01 0,-0.02 -7.49,1.06 -15.86,2.74 -31.58,3.87 -4.89,0.35 -9.21,0.38 -13.07,0.08l-4.41 25.04c0,0 1.29,2.8 0.86,5.6 -0.43,2.81 -2.37,5.1 -2.37,5.1l-2.8 32.27 -5.7 0 -1.97 0 -4.41 0c0,0 1.38,-3.25 5.34,-6.81 -2.4,0 -8.32,0 -12.03,0 0.86,-3.95 6.69,-8.43 6.69,-8.43l-2.59 -30.35c0,0 -2.65,-1.05 -3.03,-5.15 -0.38,-4.09 1.4,-6.41 1.4,-6.41l-4.48 -27.72c0,0 0.04,0.01 0.12,0.03 -0.59,-0.81 -1.19,-1.66 -1.79,-2.54 -4.59,-6.77 -5.55,-15.71 -5.02,-24.31 0.43,-7.02 1.85,-13.81 3.1,-19.01 0.6,-2.5 1.16,-4.63 1.55,-6.24 -0.37,-1.69 -0.55,-3.31 -0.44,-5.04 0.01,-0.24 0.04,-0.5 0.07,-0.76 -6.72,4.13 -14.01,-0.12 -15.55,-5.9 -0.19,-0.71 -0.3,-1.44 -0.3,-2.18 8.89,-1.72 14.18,1.84 16.57,4.77l-0.09 0.4c0.36,-1.24 0.83,-2.52 1.35,-3.76 -1.66,-2.58 -6.47,-4.8 -10.15,-5.31 -3.69,-0.5 -13,-0.32 -18.21,-2.94 -5.21,-2.63 -12.15,-9.42 -12.68,-13.34 -0.53,-3.92 0.42,-3.41 1.21,-1.51 2.45,5.68 10.68,10.64 14.99,10.93 4.32,0.28 3.49,0.11 1.12,-2.3 -2.38,-2.41 -7.48,-9.1 -11.83,-15.92 -4.35,-6.81 -6.94,-17.08 -7.19,-20.53 -0.25,-3.45 1.15,-4.71 1.4,-1.98 0.47,5.46 4.93,11.11 5.68,11.14 0.76,0.04 1.19,-2.23 1.73,-5.53 0.54,-3.31 1.04,-6.51 1.86,-6.44 0.82,0.07 0.33,3.27 0.04,8.31 -0.28,5.03 0.97,10.46 1.91,10.49 0.93,0.04 2.08,-2.69 3.06,-5.21 0.97,-2.52 2.11,-5.28 2.58,-5.07 0.47,0.22 0.72,1.83 -1.15,7.26 -1.87,5.43 -1.62,9.75 -0.9,13.16 0.72,3.41 7.05,10.14 10.07,12.4 3.02,2.27 3.81,2.23 1,-0.82 -2.8,-3.06 -4.85,-8.17 -4.92,-11.47 -0.07,-3.31 0.68,-2.88 1.11,-1.15 2.09,7.55 7.48,11.46 10.97,13.15 3.49,1.69 2.91,0.54 1.58,-2.94 -1.33,-3.49 -1.11,-7.7 -0.5,-9.49 0.61,-1.8 2.12,-2.88 1.76,-1.01 -0.36,1.87 -0.47,4.26 1.36,9.6 1.64,4.77 6.61,9.1 7.66,9.98 2.5,0.36 5.02,1.68 7.5,1.68 2.48,0 4.99,-1.31 7.49,-1.68 1.04,-0.87 6.02,-5.21 7.65,-9.98 1.84,-5.34 1.73,-7.73 1.37,-9.6 -0.36,-1.87 1.15,-0.79 1.76,1.01 0.61,1.79 0.83,6 -0.5,9.49 -1.33,3.48 -1.91,4.63 1.58,2.94 3.49,-1.69 8.88,-5.6 10.96,-13.15 0.44,-1.73 1.19,-2.16 1.12,1.15 -0.07,3.3 -2.12,8.41 -4.93,11.47 -2.8,3.05 -2.01,3.09 1.01,0.82 3.02,-2.26 9.35,-8.99 10.07,-12.4 0.71,-3.41 0.97,-7.73 -0.9,-13.16 -1.87,-5.43 -1.62,-7.04 -1.15,-7.26 0.46,-0.21 1.61,2.55 2.58,5.07 0.97,2.52 2.13,5.25 3.06,5.21 0.93,-0.03 2.19,-5.46 1.91,-10.49 -0.29,-5.04 -0.78,-8.24 0.04,-8.31 0.82,-0.07 1.32,3.13 1.86,6.44 0.54,3.3 0.97,5.57 1.73,5.53 0.75,-0.03 5.21,-5.68 5.68,-11.14z"/>
  <path class="fil27" d="M449.29 273.64c0.14,-0.11 0.35,-0.09 0.47,0.06 0.11,0.14 0.09,0.35 -0.05,0.47 -0.21,0.16 -0.36,0.35 -0.46,0.5 0.03,0.02 0.05,0.04 0.08,0.06 0.92,0.7 1.25,1.62 0.5,2.68 -0.11,0.16 -0.29,0.24 -0.52,0.26 -0.71,1.21 -2.35,1.88 -2.9,1.46 -0.56,-0.43 -0.98,-1.16 -0.51,-2.47 -0.07,-0.02 -0.15,-0.03 -0.23,-0.04 -0.33,-0.02 -0.66,0.07 -0.87,0.32 -0.29,0.35 -0.93,1.29 -1.77,2.21 -0.5,0.56 -1.05,1.09 -1.71,1.51 -0.04,0.02 -0.08,0.05 -0.12,0.08 -0.49,0.3 -1.01,0.51 -1.55,0.65 -0.19,0.05 -0.39,0.1 -0.61,0.13 -0.24,0.04 -0.49,0.07 -0.73,0.08 -0.36,0.02 -0.71,0.02 -1.04,-0.01l0 0 -0.01 0c-0.19,-0.02 -0.37,-0.05 -0.54,-0.08 0.03,0.16 0.05,0.32 0.06,0.49 0.23,3.09 -1.31,7.68 -6.06,9.4 -0.03,0.01 -0.06,0.02 -0.1,0.03 3.49,-0.06 5.46,0.32 6.57,0.8 -6.36,1.07 -13.63,1.55 -20.07,1.06l-0.6 0.08c-0.55,-0.08 -1.13,-0.18 -1.7,-0.3 -0.09,-0.01 -0.18,-0.02 -0.27,-0.03 -1.96,-0.43 -3.92,-1.05 -5.39,-1.86 -3.27,-1.79 -6.28,-5.77 -7.06,-13.67 -0.13,2.31 -0.85,4.13 -1.93,5.47 -2.38,2.94 -6.55,3.56 -10.27,1.93 -4.97,-2.18 -8.43,-9.2 -4.11,-16.54 0.39,-0.68 0.85,-1.35 1.38,-2.02 6.32,-8.03 16.14,-6.32 21.13,-2.78 4.99,3.53 5.27,9.21 5.05,15.09 0.12,-1.22 0.43,-2.38 0.97,-3.44 0.24,-0.46 0.49,-0.89 0.76,-1.28 3.06,-4.55 8.05,-5.17 12.21,-5.26 2.56,-0.06 4.15,-0.64 5.29,-1.45 0.84,-0.6 1.45,-1.33 2.07,-2.1 0.01,-0.02 0.03,-0.04 0.05,-0.06 0.55,-0.71 1.08,-1.42 1.78,-2.05 0.35,-0.32 0.73,-0.61 1.18,-0.87 -0.01,0.01 -0.02,0.02 -0.03,0.03 0.36,-0.2 0.75,-0.39 1.2,-0.54 0.21,-1.68 0.6,-3.84 1.25,-3.84 0.64,0 1.31,1.98 1.73,3.55 2.14,0.38 4.26,2.04 5.17,4.96 0.79,2.52 1.05,4.15 0.55,5.08 -0.13,0.25 -0.31,0.44 -0.55,0.59 -0.27,0.18 -0.62,0.29 -1.05,0.35 -2.24,0.31 -5.12,-1.53 -5.12,-1.53 -0.04,0.1 -0.97,2.86 0.91,3.61 2.03,0.8 3.43,-0.64 4.92,0.09 0.64,-0.42 1.38,-0.4 2.02,-0.15 0.12,-0.2 0.33,-0.47 0.63,-0.71z"/>
  <path class="fil27" d="M158.79 396.04c9.43,3.74 16.91,7.21 21.27,7.74 -0.35,1.01 -0.66,1.99 -0.92,2.9 0.78,-1.19 1.39,-1.8 1.44,-1.85 0.23,-0.23 0.6,-0.23 0.83,0 0.23,0.23 0.23,0.6 0,0.83 -0.02,0.02 -1.98,2.02 -3.39,5.84 -0.02,0.06 -0.04,0.11 -0.08,0.15 -0.07,0.38 -0.1,0.59 -0.1,0.59 0,0 2.22,5.78 5.25,7.47 1.56,0.87 3.25,1.23 4.62,1.48 1.29,0.25 2.29,0.41 2.59,0.84 0.29,0.41 -0.29,1.49 -1.5,2.77 -1.42,1.51 -3.72,3.28 -6.51,4.53 -2.48,1.11 -7.29,2.55 -14.31,3.7l-0.51 3.15c-0.08,0.45 -0.47,0.78 -0.92,0.78 -0.05,0 -0.1,0 -0.15,-0.01 -0.51,-0.08 -0.86,-0.56 -0.78,-1.07l0.42 -2.55c-1.06,0.15 -2.16,0.3 -3.31,0.44l0 2.55c0,0.51 -0.3,0.93 -0.82,0.93 -0.52,0 -0.82,-0.42 -0.82,-0.93l0 -2.36c-3.26,0.36 -6.84,0.64 -10.76,0.82 -3.94,0.18 -8.21,0.24 -12.82,0.16 -2.39,0 -4.58,-0.09 -6.55,-0.22l0.51 2.13c0.12,0.5 -0.19,1.01 -0.69,1.13 -0.08,0.01 -0.15,0.02 -0.22,0.02 -0.42,0 -0.81,-0.29 -0.91,-0.72l-0.65 -2.71c-0.33,-0.02 -0.65,-0.05 -0.96,-0.08l0.76 3.16c0.12,0.5 -0.19,1.01 -0.69,1.13 -0.08,0.01 -0.15,0.02 -0.22,0.02 -0.42,0 -0.81,-0.29 -0.91,-0.71l-0.91 -3.82c-3.89,-0.47 -6.09,-1.02 -6.09,-1.02 0,0 -1.53,-2.66 -2.45,-6.75 -0.21,-0.15 -0.29,-0.43 -0.19,-0.69 0.01,-0.02 0.02,-0.04 0.03,-0.06 -1.03,-5.18 -0.97,-12.39 4.03,-19.39 9.35,-13.08 27.95,-14.06 37.39,-10.32z"/>
  <path class="fil27" d="M609.15 376.05c2.91,1.24 9.17,3.39 12.95,9.23 3.77,5.82 5.63,14.27 5.92,17.77 0,0 0,0.01 0,0.01 3.44,-0.05 5.16,1.77 5.31,3.75 -8.17,0 -34.36,0 -34.36,0 0,0 0.81,-4.75 10.13,-3.8 -1.99,-2.09 -3.92,-4.6 -4.82,-7.1 0,0 0,-0.01 -0.01,-0.01l-0.88 -0.76c-2.8,7.78 -6.53,11.67 -6.53,11.67 0,0 -1.85,0 -5.19,0 0,-0.51 0.12,-0.93 0.31,-1.26 -0.61,0 -1.31,0 -2.09,0 0,-2.64 3.23,-2.74 3.23,-2.74 0,0 1.22,-3.53 1.96,-7.71 0.59,-3.27 1.4,-8.12 1.26,-11.33 0,-0.01 0,-0.01 0,-0.02 -0.3,-3.62 -0.05,-7.65 -0.05,-7.66 0,0 -6.84,-0.67 -7.19,-3.06 -0.34,-2.22 1.8,-5.54 5.91,-7.4 0.43,-0.2 0.86,-0.37 1.28,-0.5 0.86,-0.49 0.52,-8.04 0,-13.4 -0.51,-5.35 -0.73,-5.99 -0.73,-5.99 0,0 2.21,-0.6 3.6,3.29 1.39,3.88 1.02,9.52 0,13.86 -0.32,1.24 -0.03,1.78 0.41,1.85 0.03,0 0.06,0.01 0.08,0.01 0.75,-1.04 0.19,-4.03 0.46,-8.11 0.34,-4.97 1.87,-10.89 3.92,-10.7 2.06,0.19 2.68,8.89 0.77,13.09 -1.54,3.38 -2.46,5.4 -2.39,6.83 0.8,0.62 1.47,1.49 1.98,2.62 0.04,0.1 0.08,0.2 0.13,0.3 1.55,3.83 1.7,5.75 4.07,7 0.17,0.09 0.36,0.18 0.56,0.27z"/>
  <path class="fil27" d="M537.8 368.42c1.99,0.41 4.13,1.14 6.63,2.22 4.69,2.22 6.75,2.81 9.66,2.95 0.65,0.03 1.35,0.04 2.13,0.04 0.41,0.63 0.68,1.22 0.73,1.78 0.08,0.93 -0.45,1.75 -1.97,2.39 -1.6,0.68 -7.2,2.49 -12.85,5.81 -0.15,0.09 -0.31,0.18 -0.46,0.27 -0.01,0 -0.01,0.01 -0.02,0.01 -2.71,1.63 -5.4,3.61 -7.65,5.98 -5.58,5.86 -10.44,11.55 -14.1,16.84 0.01,-0.01 0.02,-0.01 0.02,-0.01 -2.36,8.25 -5.73,21.64 -3.46,32.32 2.19,1.97 3.44,4.76 3.44,4.76l-8.34 0c0.79,0.77 1.5,1.76 2.05,2.63 0,0 0,0 0.01,0 0.82,1.13 1.16,2.07 1.16,2.07l-0.01 0 -15.27 0 -0.02 0c0,0 -0.06,-0.29 -0.17,-0.79l-4.89 -20.33c-5.29,0.39 -13.59,1 -22.15,1.05l-2.77 11.62c0,0 3.59,2.47 4.32,4.24 -11.55,0.57 -15.8,0.58 -16.74,-3.37 -0.84,-3.56 -0.16,-11.64 -0.02,-13.15 -0.71,-0.08 -1.42,-0.17 -2.11,-0.27 -2.34,7.16 -2.26,15.81 -2.26,15.81 0,0 1.23,0.97 2.3,2.19 0.04,0 0.06,0 0.07,0 0.54,0.64 1.04,1.35 1.28,2.01 0,0 -0.01,0 -0.02,0 0.01,0.02 0.02,0.04 0.02,0.06 -5.7,0.07 -10.31,-0.33 -13.23,-0.76 -2.93,-0.44 -4.54,-2.29 -4.76,-7.26 0,0 0,-0.01 0,-0.01 -0.16,-3.74 -0.61,-10.63 -0.61,-16.29 0,-1.89 0.05,-3.64 0.18,-5.1 0,0 -2.56,5.36 -5.67,4.52 -1.5,-0.55 2.01,-11.89 4.2,-16.47 0.56,-1.16 1.42,-2.82 2.75,-4.69 3.92,-5.55 11.89,-12.99 27.92,-14.96 21.44,-2.63 35.09,-2.54 50.3,-11.7 0.06,-0.03 0.11,-0.06 0.16,-0.09 -0.77,-0.69 -1.36,-1.62 -1.57,-2.86 2.78,-0.7 5.3,-0.59 7.13,-0.3 2.16,-1.15 4.07,-2.01 5.84,-2.6 0,0 -0.98,-0.83 -1.42,-2.81 4.75,-0.8 10.24,2.25 10.24,2.25z"/>
  <path class="fil27 str0" d="M378.25 455.95l0 0zm-9.62 -72.94c1.91,-0.1 6.9,4.82 8.8,8.65 3.6,-2.5 7.39,-3.1 10.5,-3.1 3.13,0 6.92,0.6 10.51,3.1 1.9,-3.83 6.89,-8.75 8.8,-8.65 2,0.09 1.62,9.58 -1.8,17.17 4.27,1.62 7.31,1.43 7.31,1.43 0,0 0.42,6.26 -4.78,11.31 -4.36,10.71 -12.2,18.55 -20.8,28.93 -4.23,5.09 -7.2,9.57 -8.92,14.1 -1.79,4.7 -2.24,9.46 -1.34,15 1.78,10.89 4.91,14.84 3.96,16.45 -1.06,1.8 -7.78,-0.3 -11.2,-9.47 -4.01,-10.75 -6.15,-19.76 -8.16,-22.48 0.02,0.03 0.03,0.05 0.04,0.07 -2.13,7.4 -1.94,21.25 -1.09,24.29 0.86,3.04 3.43,5.98 0.25,5.98 -3.19,0 -7.93,-5.6 -10.02,-13.1 -2.09,-7.49 -4.63,-17.27 -4.64,-17.3 -2.74,0.19 -5.46,0.24 -7.79,-0.07 -7.98,-1.04 -11.58,-2.56 -15.09,-0.28 -1.11,0.72 -2.01,1.74 -2.72,2.91 -1.55,2.56 -2.18,5.82 -1.93,8.1 0.37,3.32 2.46,14.61 3.79,18.13 1.33,3.51 5.22,5.31 4.84,7.02 -0.38,1.71 -4.65,2.37 -10.63,-3.61 -5.98,-5.98 -10.82,-17.27 -12.9,-25.05 -0.74,-2.75 -1.56,-5.56 -2.33,-8.25 0,0.02 0,0.02 0,0.02 -2.33,9.43 -4.48,24.74 -2.71,29.42 1.78,4.68 -2.27,4.31 -6.2,0 -2.81,-3.08 -4.39,-11.89 -5.06,-16.63 -0.25,-1.75 -0.37,-2.94 -0.39,-3.1 -9.09,10.79 -27.72,18.36 -41.97,12.97 -15.56,-5.88 -14.99,-22.4 -14.99,-22.4 0,0 14.34,3.54 24.86,-1.91 24.95,-12.93 31.23,-31.27 50.3,-36.21 19.08,-4.93 41.57,-5.24 58.18,-12.2l0.01 0c-0.27,-1.59 -0.2,-2.64 -0.2,-2.64 0,0 3.04,0.19 7.31,-1.43 -3.42,-7.59 -3.8,-17.08 -1.8,-17.17z"/>
 </g>
</svg>
