<svg width="43" height="35" viewBox="0 0 43 35" fill="none" xmlns="http://www.w3.org/2000/svg">
<path d="M11.88 31.9433C11.68 31.9433 11.48 31.8833 11.31 31.7533C10.89 31.4333 10.8 30.8433 11.12 30.4233L15.49 24.6033C15.8 24.1833 16.4 24.0933 16.82 24.4133C17.23 24.7233 17.32 25.3233 17.01 25.7333L12.63 31.5633C12.45 31.8133 12.16 31.9433 11.88 31.9433Z" fill="#563B3B"/>
<path d="M8.33001 31.8333C8.15001 31.8333 7.96999 31.7833 7.80999 31.6833C7.36999 31.3933 7.24999 30.8033 7.52999 30.3733L11.06 24.9633C11.35 24.5233 11.94 24.4033 12.37 24.6933C12.81 24.9733 12.94 25.5633 12.65 26.0033L9.11998 31.4033C8.93998 31.6833 8.64001 31.8333 8.33001 31.8333Z" fill="#563B3B"/>
<path d="M14.28 3.69331C13.04 2.09331 11.4 -0.0966943 8.37999 0.00330572C5.35999 0.113306 3.63998 2.81332 4.05998 6.01332C4.30998 8.12332 2.41 9.94331 1.42 12.4433C0.439999 14.9333 -0.820019 21.1933 4.61998 24.1733C10.07 27.1633 14.42 26.5333 18.92 25.7933C23.42 25.0533 31.15 25.9333 35.4 28.7433C40.04 34.3633 41.16 34.6433 42.46 34.6833C39.41 30.6733 33.85 22.4533 29.85 18.1733C25.84 13.8833 22.26 10.3733 19.03 7.73332C15.79 5.09332 14.95 4.55331 14.28 3.69331Z" fill="#E26A1A"/>
<path d="M14.28 3.69331C13.04 2.09331 11.4 -0.0966943 8.38 0.00330572C5.95 0.0833057 4.37002 1.85332 4.05002 4.20332C4.88002 4.26332 5.79001 3.95332 5.79001 3.95332C6.14001 2.41332 7.75 1.41333 9.44 2.06333C11.12 2.72333 11.31 4.26333 10.59 5.40333C10.59 5.40333 15.3 8.91332 17.49 8.67332C18.25 8.59332 18.58 8.10333 18.63 7.40333C15.72 5.05333 14.92 4.51331 14.28 3.69331Z" fill="#36697B"/>
<path d="M36.79 26.9133C34.44 23.6933 31.93 20.4033 29.85 18.1733C25.84 13.8833 22.26 10.3733 19.03 7.7333C17.92 6.8333 17.09 6.17329 16.46 5.66329C14.14 4.67329 9.12002 4.99332 7.33002 7.06332C5.54002 9.14332 4.52 12.3033 10.31 14.9033C16.11 17.5033 25.18 21.0533 29.6 23.5833C34.03 26.1133 35.75 27.3633 36.79 26.9133Z" fill="#563B3B"/>
<path d="M6.48001 4.51331L4.41 2.8233C4.41 2.8233 1.11 3.7833 0 4.7533C1.93 6.1533 4.08002 6.23331 4.08002 6.23331L6.48001 4.51331Z" fill="#5389A5"/>
<path d="M6.48001 4.51331C6.48001 4.51331 3.3 4.8633 0 4.7533C1.93 6.1533 4.08002 6.23331 4.08002 6.23331L6.48001 4.51331Z" fill="#36697B"/>
<path d="M7.41 3.40332C7.41 3.80332 7.74001 4.12332 8.14001 4.12332C8.54001 4.12332 8.86002 3.80332 8.86002 3.40332C8.86002 2.99332 8.54001 2.67331 8.14001 2.67331C7.74001 2.67331 7.41 2.99332 7.41 3.40332Z" fill="#261918"/>
</svg>
