<svg width="183" height="110" viewBox="0 0 183 110" fill="none" xmlns="http://www.w3.org/2000/svg">
<path d="M56.9627 80.9714C56.9627 80.9714 58.4927 96.4214 62.4127 100.731C66.3427 105.031 70.3827 105.411 68.6127 100.731C66.8427 96.0414 68.9927 80.7314 71.3227 71.3114C71.3227 71.3114 71.5827 59.9914 69.4927 57.5914C67.3927 55.1914 56.2527 72.9214 55.0827 75.3214C53.9227 77.7214 56.9627 80.9714 56.9627 80.9714Z" fill="#E26A1A"/>
<path d="M178.003 29.9114L153.803 21.1614L153.733 21.2414H133.343C116.733 28.2114 94.2427 28.5114 75.1627 33.4514C56.0927 38.3814 49.8127 56.7314 24.8627 69.6514C14.3427 75.1014 0.00265587 71.5614 0.00265587 71.5614C0.00265587 71.5614 -0.567324 88.0814 14.9927 93.9714C30.5627 99.8514 51.3427 90.2714 59.2227 77.9414C63.2627 71.6014 66.4127 64.4114 68.5027 58.9214C68.8227 63.4914 71.5627 71.7614 73.6427 79.5314C75.7327 87.3114 80.5727 98.6114 86.5527 104.591C92.5327 110.571 96.8027 109.901 97.1827 108.191C97.5627 106.481 93.6727 104.681 92.3427 101.171C91.0127 97.6614 88.9227 86.3614 88.5527 83.0414C88.1827 79.7214 89.6827 74.3114 93.1927 72.0314C96.7127 69.7614 100.313 71.2714 108.283 72.3214C116.263 73.3614 128.783 70.2314 130.973 71.8414C133.153 73.4614 135.313 83.1414 139.703 94.9214C143.113 104.101 149.843 106.191 150.903 104.401C151.853 102.781 148.713 98.8314 146.943 87.9514C145.173 77.0614 148.593 69.2214 157.193 58.8414C165.803 48.4714 173.643 40.6214 178.003 29.9114Z" fill="#EA3232"/>
<path d="M130.493 96.8014C129.643 93.7714 129.453 79.9114 131.583 72.5114C129.363 68.3714 125.033 65.6714 118.733 65.7914C117.803 65.8414 116.913 65.9114 116.063 65.9914C115.823 66.0214 115.583 66.0414 115.333 66.0614C109.333 66.6614 105.113 67.7214 99.2427 68.2114C91.6427 68.8414 90.4827 74.9514 90.4827 74.9514C91.1927 73.7714 92.0927 72.7514 93.1927 72.0314C96.7127 69.7614 100.313 71.2714 108.283 72.3214C110.623 72.6214 113.343 72.5714 116.083 72.3914C116.083 72.4114 118.633 82.2014 120.723 89.6914C122.803 97.1814 127.553 102.781 130.733 102.781C133.923 102.781 131.353 99.8414 130.493 96.8014Z" fill="#E26A1A"/>
<path d="M163.623 24.7214C151.483 26.6814 139.973 31.6014 139.973 31.6014C138.213 42.3914 135.933 53.4014 148.273 72.9414H148.283C150.003 68.4114 152.973 63.9314 157.193 58.8414C165.803 48.4714 173.643 40.6214 178.003 29.9114L163.623 24.7214Z" fill="white"/>
<path d="M138.653 0.00138919C136.663 0.101389 137.043 9.59138 140.463 17.1814L147.673 9.11137C145.963 5.22137 140.653 -0.0986108 138.653 0.00138919Z" fill="#E26A1A"/>
<path d="M177.273 0.00138919C175.283 -0.0986108 169.963 5.22137 168.263 9.11137L175.473 17.1814C178.893 9.59138 179.263 0.101389 177.273 0.00138919Z" fill="#E26A1A"/>
<path d="M157.963 36.1614C183.973 36.1614 182.783 18.6014 182.783 18.6014C182.783 18.6014 179.743 18.7914 175.473 17.1814C170.533 7.3114 163.283 5.55139 157.963 5.55139C152.653 5.55139 145.393 7.3114 140.463 17.1814C136.193 18.7914 133.153 18.6014 133.153 18.6014C133.153 18.6014 131.963 36.1614 157.963 36.1614Z" fill="#E57828"/>
<path d="M146.943 20.0914C146.943 21.1514 147.813 22.0214 148.873 22.0214C149.943 22.0214 150.803 21.1514 150.803 20.0914C150.803 19.0214 149.943 18.1614 148.873 18.1614C147.813 18.1614 146.943 19.0214 146.943 20.0914Z" fill="#3D0F1E"/>
<path d="M157.963 40.2414C164.233 40.2414 165.123 25.0514 165.123 25.0514C163.983 22.4014 160.623 21.1614 157.963 21.1614C155.313 21.1614 151.943 22.4014 150.803 25.0514C150.803 25.0514 151.703 40.2414 157.963 40.2414Z" fill="#E26A1A"/>
<path d="M168.983 20.0914C168.983 21.1514 168.123 22.0214 167.053 22.0214C165.993 22.0214 165.123 21.1514 165.123 20.0914C165.123 19.0214 165.993 18.1614 167.053 18.1614C168.123 18.1614 168.983 19.0214 168.983 20.0914Z" fill="#3D0F1E"/>
<path d="M88.5527 83.0414C88.5527 83.0414 80.2827 80.5214 79.8227 95.0514C81.7927 98.7214 84.0727 102.111 86.5527 104.591C92.5327 110.571 96.8027 109.901 97.1827 108.191C97.5627 106.481 93.6727 104.681 92.3427 101.171C91.0127 97.6614 88.9227 86.3614 88.5527 83.0414Z" fill="#3D0F1E"/>
<path d="M68.6127 100.731C67.5227 97.8314 67.9227 90.8514 68.9427 83.7314C67.8527 79.0914 61.4527 81.6314 58.3927 90.1014C59.2727 94.2714 60.5827 98.7214 62.4127 100.731C66.3427 105.031 70.3827 105.411 68.6127 100.731Z" fill="#3D0F1E"/>
<path d="M130.733 102.781C133.923 102.781 131.353 99.8414 130.493 96.8014C129.843 94.4714 129.573 85.7414 130.453 78.4714C127.333 76.0514 121.803 79.3814 120.143 87.5814C120.333 88.3014 120.533 89.0014 120.723 89.6914C122.803 97.1814 127.553 102.781 130.733 102.781Z" fill="#3D0F1E"/>
<path d="M146.713 79.1614H146.703C143.973 76.0114 139.913 77.8714 136.403 85.4114C137.353 88.3114 138.433 91.5314 139.703 94.9214C143.113 104.101 149.843 106.191 150.903 104.401C151.853 102.781 148.713 98.8314 146.943 87.9514C146.433 84.8114 146.353 81.9314 146.713 79.1614Z" fill="#3D0F1E"/>
<path d="M160.533 37.3714C160.533 35.0514 155.403 35.0514 155.403 37.3714C155.403 38.5314 160.533 38.5314 160.533 37.3714Z" fill="#3D0F1E"/>
<path d="M68.4326 59.0814C69.4626 56.4014 70.2427 54.1214 70.7627 52.5114C66.0827 54.1614 61.9126 59.3214 55.7126 69.6514C49.5026 79.9714 40.1427 88.4514 23.8227 89.9714C7.49266 91.4914 1.26266 79.4014 1.26266 79.4014C2.88266 84.5014 6.58268 90.7914 14.9927 93.9714C30.5627 99.8514 51.3427 90.2714 59.2227 77.9414C63.2227 71.6714 66.3326 64.5914 68.4326 59.1214V59.0814Z" fill="#E26A1A"/>
<path d="M0.00265587 71.5614C0.00265587 71.5614 -0.567324 88.0814 14.9927 93.9714C18.7827 95.4014 22.8727 95.9114 27.0227 95.7014C33.8227 86.8314 29.5327 75.9214 25.5727 69.2814C25.3327 69.4014 25.1027 69.5314 24.8627 69.6514C14.3427 75.1014 0.00265587 71.5614 0.00265587 71.5614Z" fill="white"/>
<path d="M69.0827 57.3714C66.1227 65.5814 61.0626 75.8014 56.9626 80.9914C56.9726 81.1514 57.1027 82.3514 57.3527 84.0914C61.6527 79.5714 67.1027 69.0414 70.5327 60.1414C70.2727 59.0214 69.9327 58.1014 69.4927 57.5914C69.3827 57.4614 69.2427 57.3914 69.0827 57.3714Z" fill="#EA8532"/>
</svg>
