<svg width="45" height="62" viewBox="0 0 45 62" fill="none" xmlns="http://www.w3.org/2000/svg">
<path fill-rule="evenodd" clip-rule="evenodd" d="M20.15 31.185C23.06 32.425 29.3199 34.575 33.0999 40.415C36.8699 46.235 38.73 54.685 39.02 58.185V58.195C42.46 58.145 44.18 59.965 44.33 61.945C36.16 61.945 9.96994 61.945 9.96994 61.945C9.96994 61.945 10.7799 57.195 20.0999 58.145C18.1099 56.055 16.18 53.545 15.28 51.045C15.28 51.045 15.28 51.035 15.27 51.035L14.39 50.275C11.59 58.055 7.85995 61.945 7.85995 61.945C7.85995 61.945 6.00995 61.945 2.66995 61.945C2.66995 61.435 2.78995 61.015 2.97995 60.685C2.36995 60.685 1.66998 60.685 0.889984 60.685C0.889984 58.045 4.11996 57.945 4.11996 57.945C4.11996 57.945 5.33999 54.415 6.07999 50.235C6.66999 46.965 7.48 42.115 7.34 38.905C7.34 38.895 7.34 38.895 7.34 38.885C7.04 35.265 7.28995 31.235 7.28995 31.225C7.28995 31.225 0.449945 30.555 0.0999446 28.165C-0.240055 25.945 1.89998 22.625 6.00998 20.765C6.43998 20.565 6.86995 20.395 7.28995 20.265C8.14995 19.775 7.80995 12.225 7.28995 6.86498C6.77995 1.51498 6.55997 0.874961 6.55997 0.874961C6.55997 0.874961 8.76994 0.27497 10.1599 4.16497C11.5499 8.04497 11.1799 13.685 10.1599 18.025C9.83994 19.265 10.13 19.805 10.57 19.875C10.6 19.875 10.63 19.885 10.65 19.885C11.4 18.845 10.84 15.855 11.11 11.775C11.45 6.80499 12.98 0.884973 15.03 1.07497C17.09 1.26497 17.71 9.96497 15.8 14.165C14.26 17.545 13.3399 19.565 13.4099 20.995C14.2099 21.615 14.88 22.485 15.39 23.615C15.43 23.715 15.47 23.815 15.52 23.915C17.07 27.745 17.22 29.665 19.59 30.915C19.76 31.005 19.95 31.095 20.15 31.185Z" fill="#2B2A29"/>
</svg>
