<svg width="57" height="58" viewBox="0 0 57 58" fill="none" xmlns="http://www.w3.org/2000/svg">
<path d="M21.08 41.53C20.21 41.53 19.44 40.9 19.29 40.01L15.65 18.21C15.49 17.22 16.16 16.28 17.15 16.11C18.14 15.95 19.07 16.62 19.24 17.61L22.87 39.42C23.04 40.41 22.37 41.34 21.38 41.51C21.28 41.52 21.18 41.53 21.08 41.53Z" fill="#4B775E"/>
<path d="M38.16 36.81C37.43 36.81 36.74 36.36 36.47 35.64L30.65 20.37C30.29 19.43 30.76 18.38 31.7 18.03C32.64 17.67 33.69 18.14 34.05 19.08L39.86 34.34C40.22 35.28 39.75 36.33 38.81 36.69C38.6 36.77 38.38 36.81 38.16 36.81Z" fill="#4B775E"/>
<path d="M31.56 52.58C31.95 55.7 31.61 56.97 31.14 57.02C30.11 57.13 29.68 54.78 29.68 54.78C29.68 54.78 28.48 57.99 27.33 57.59C26.48 57.39 27.33 54.66 27.33 54.66C27.33 54.66 25.88 57.21 25.08 56.86C24.28 56.51 25.82 52.58 25.82 52.58H31.56Z" fill="#EA8532"/>
<path d="M22.14 51.92C22.54 54.56 22.2 56.11 21.72 56.16C20.69 56.27 20.27 53.82 20.27 53.82C20.27 53.82 19.07 56.98 17.91 56.58C17.06 56.38 17.91 53.62 17.91 53.62C17.91 53.62 16.46 56.36 15.66 56.01C14.86 55.66 17.17 49.86 17.17 49.86L22.14 51.92Z" fill="#EA8532"/>
<path d="M56.1 54.26C56.1 54.26 55.43 39.16 46.06 26.02C36.69 12.89 36.19 16.82 25.14 5.69C18.11 -0.34 8.52003 0.539999 3.82003 7.72C-0.879972 14.89 0.0200405 29.07 5.77004 39.77C10.79 49.08 19.11 52.15 30.33 53.89C42.42 55.75 56.1 54.26 56.1 54.26Z" fill="#CA1717"/>
<path d="M25.96 7.10999C28.2 6.17999 30.46 3.47 30.87 0C30.08 0.75 28.45 1.20999 22.88 2.79999C17.32 4.38999 15.44 9.25 15.44 9.25C15.44 9.25 13.55 4.38999 7.98999 2.79999C2.41999 1.20999 0.79 0.75 0 0C0.42 3.47 2.66997 6.17999 4.90997 7.10999C4.90997 7.10999 8.35001 16.06 15.76 16.06C23.16 16.06 25.96 7.10999 25.96 7.10999Z" fill="#261918"/>
<path d="M0.539978 13.89C0.539978 18 3.86999 21.34 7.98999 21.34C12.1 21.34 15.44 18 15.44 13.89C15.44 9.77998 12.1 6.44 7.98999 6.44C3.86999 6.44 0.539978 9.77998 0.539978 13.89Z" fill="#543C3C"/>
<path d="M15.44 13.89C15.44 18 18.77 21.34 22.88 21.34C27 21.34 30.33 18 30.33 13.89C30.33 9.77998 27 6.44 22.88 6.44C18.77 6.44 15.44 9.77998 15.44 13.89Z" fill="#543C3C"/>
<path d="M15.44 13.89C15.44 13.89 17.38 15.23 17.82 16.99C16.88 20.56 15.44 22.2 15.44 22.2C15.44 22.2 13.99 20.56 13.05 16.99C13.49 15.23 15.44 13.89 15.44 13.89Z" fill="#EA8532"/>
<path d="M7.63 12.25C7.63 13.69 8.79999 14.85 10.24 14.85C11.67 14.85 12.84 13.69 12.84 12.25C12.84 10.81 11.67 9.63998 10.24 9.63998C8.79999 9.63998 7.63 10.81 7.63 12.25Z" fill="#261918"/>
<path d="M18.18 12.25C18.18 13.69 19.34 14.85 20.78 14.85C22.22 14.85 23.38 13.69 23.38 12.25C23.38 10.81 22.22 9.63998 20.78 9.63998C19.34 9.63998 18.18 10.81 18.18 12.25Z" fill="#261918"/>
<path d="M56.1 54.26C48.82 53.05 32.25 48.53 24.39 36.57C16.52 24.6 35.9 14.85 35.9 14.85C35.9 14.85 46.62 20.89 51.92 33.02C57.22 45.15 56.1 54.26 56.1 54.26Z" fill="#9B5149"/>
</svg>
