<svg width="57" height="58" viewBox="0 0 57 58" fill="none" xmlns="http://www.w3.org/2000/svg">
<path d="M41.84 56.405C41.33 56.405 40.82 56.195 40.46 55.775L39.85 55.065C37.32 54.965 34.69 54.755 32.1 54.415C32.23 56.455 31.93 57.315 31.54 57.355C30.51 57.465 30.08 55.115 30.08 55.115C30.08 55.115 28.88 58.325 27.73 57.915C26.88 57.715 27.73 54.995 27.73 54.995C27.73 54.995 26.28 57.545 25.48 57.195C24.85 56.915 25.67 54.415 26.05 53.365C24.86 53.115 23.7 52.825 22.58 52.515C22.92 54.985 22.58 56.445 22.12 56.495C21.09 56.605 20.67 54.155 20.67 54.155C20.67 54.155 19.47 57.305 18.32 56.905C17.47 56.705 18.32 53.955 18.32 53.955C18.32 53.955 16.87 56.695 16.07 56.345C15.4 56.055 16.89 51.985 17.4 50.625C12.7 48.465 8.93999 45.235 6.17999 40.105C2.26999 32.845 0.600024 23.985 1.40002 16.795C1.10002 15.995 0.940002 15.125 0.940002 14.225C0.940002 11.655 2.23997 9.39499 4.21997 8.05499C4.40997 7.75499 4.61001 7.475 4.82001 7.205C2.75001 6.115 0.790024 3.54499 0.400024 0.334991C1.19002 1.08499 2.83001 1.54499 8.39001 3.13499C8.71001 3.22499 9.01 3.32499 9.31 3.44499C13.1 1.51499 17.71 1.54499 21.92 3.61499C22.35 3.43499 22.8 3.27499 23.28 3.13499C28.85 1.54499 30.48 1.08499 31.28 0.334991C30.88 3.58499 28.87 6.175 26.78 7.245C31.3 11.665 33.92 13.395 36.3 15.185C36.47 15.275 47.07 21.315 52.32 33.355C57.62 45.485 56.5 54.595 56.5 54.595C56.5 54.595 50.83 55.215 43.56 55.155C43.46 55.455 43.28 55.745 43.02 55.965C42.68 56.255 42.26 56.405 41.84 56.405Z" fill="#2B2A29"/>
</svg>
