<svg width="67" height="36" viewBox="0 0 67 36" fill="none" xmlns="http://www.w3.org/2000/svg">
<path d="M62.2827 18.36C61.5027 20 61.9527 20.86 62.5827 21.34C63.2227 21.83 65.3227 20.84 65.7527 19.26C66.1827 17.67 62.2827 18.36 62.2827 18.36Z" fill="#77937C"/>
<path d="M62.2027 17.3C63.1427 16.03 64.5827 16.24 65.5027 16.94C66.4227 17.64 66.7527 18.56 66.0027 19.62C65.2527 20.68 61.5027 18.25 62.2027 17.3Z" fill="#4B775E"/>
<path d="M64.2627 18.15C64.2627 18.15 63.1527 16.46 61.9327 16.46C60.3627 16.47 59.6527 17.32 57.8927 16.62C56.0127 15.87 56.9427 13.11 56.9727 13.01H56.9827C56.9827 13.01 59.8627 14.85 62.1027 14.54C64.3327 14.23 64.3727 12.45 63.1527 8.51999C61.9327 4.58999 58.5227 2.96002 55.8227 3.61002C53.1227 4.26002 52.2727 5.55 50.8227 7.34C49.3627 9.14 47.9827 10.78 43.4627 10.88C38.9427 10.99 33.4327 11.71 30.4927 17.43C29.9527 18.49 29.6326 19.65 29.5226 20.87C29.7326 14.99 29.4627 9.30999 24.4727 5.76999C19.4827 2.23999 9.65265 0.530002 3.34265 8.56C-2.97735 16.59 0.652688 24.74 6.07269 27.12C11.4927 29.49 17.8426 27.1 18.2726 19.72C19.0526 27.62 22.0527 31.6 25.3327 33.39C27.3027 34.47 30.1327 35.19 32.6927 35.58L46.7927 33.64C51.6227 31.95 53.1827 27.32 52.9527 24.2C52.9427 24.04 52.9227 23.88 52.8927 23.72C54.1627 23.96 55.9527 23.83 57.3727 22.94C59.0827 21.88 60.4927 19.72 60.9727 19.15C61.3827 18.65 62.2527 18.78 62.6827 19.2C63.1727 19.68 63.6827 19.59 63.3127 19.12C63.7927 19.44 64.0227 19.34 63.6327 18.82C63.9827 19.11 64.2327 19.01 63.8927 18.47C64.2827 18.8 64.4227 18.42 64.2627 18.15Z" fill="#EF1A1A"/>
<path d="M60.5927 9.5C60.5927 9.91 60.9227 10.25 61.3327 10.25C61.7427 10.25 62.0727 9.91 62.0727 9.5C62.0727 9.1 61.7427 8.76001 61.3327 8.76001C60.9227 8.76001 60.5927 9.1 60.5927 9.5Z" fill="#261918"/>
<path d="M63.7027 13.6L63.2427 12.86C63.1227 12.68 62.8827 12.62 62.7027 12.74C62.5127 12.85 62.4627 13.09 62.5827 13.28L63.1527 14.19C63.3927 14.04 63.5727 13.85 63.7027 13.6Z" fill="#261918"/>
<path d="M54.8227 5.76999C54.8227 5.76999 55.1827 0 56.2527 0C57.3127 0 58.4327 5.44 58.4327 5.44C58.4327 5.44 56.7427 5.22999 54.8227 5.76999Z" fill="#E26A1A"/>
<path d="M58.6127 19.89C57.7227 20.91 55.7027 21.89 53.8627 21.93C53.2727 20.76 52.3027 19.76 51.1027 19.14C49.6927 18.41 47.3327 17.84 44.0527 19.29C43.6627 19.46 43.4827 19.91 43.6627 20.31C43.8327 20.7 44.2827 20.87 44.6827 20.7C47.3927 19.51 49.2827 19.94 50.3927 20.51C51.6527 21.17 52.5827 22.36 52.8727 23.71C52.8727 23.73 53.2427 23.78 53.4327 23.79C53.4327 23.79 53.4327 23.79 53.4327 23.8C53.4827 23.8 53.5327 23.8 53.5827 23.81C53.6227 23.81 53.6527 23.81 53.6827 23.81C53.7927 23.82 53.8927 23.82 54.0027 23.82C54.0327 23.82 54.0727 23.82 54.1027 23.82C54.2127 23.82 54.3227 23.82 54.4427 23.81C54.4527 23.81 54.4727 23.81 54.4827 23.81C55.4427 23.75 56.4827 23.5 57.3727 22.94C59.0827 21.88 60.4927 19.72 60.9727 19.15C61.1827 18.9 61.5127 18.81 61.8327 18.83C61.0827 18.33 59.8227 18.49 58.6127 19.89Z" fill="#E26A1A"/>
<path d="M53.9627 9.5C52.9827 7.24 52.9027 5.29002 53.8327 4.36002C52.5627 5.07002 51.8427 6.09 50.8227 7.34C49.7327 8.68 48.6927 9.93 46.3627 10.53C52.7027 9.58 54.9427 11.77 53.9627 9.5Z" fill="#E26A1A"/>
<path d="M5.61269 24.49C2.36269 22.41 -0.0273335 16.67 1.96267 10.58C-2.35733 17.91 1.10271 24.94 6.07271 27.12C9.79271 28.75 13.9627 28.13 16.3427 25.19C13.7727 25.12 9.23269 26.81 5.61269 24.49Z" fill="#E26A1A"/>
<path d="M46.7927 33.64C46.8227 33.63 46.8627 33.62 46.8927 33.61C46.8327 33.61 46.7927 33.61 46.7927 33.61C42.9927 33.61 38.0427 32.85 35.0927 30.42C33.0227 28.71 29.2627 22.13 31.2527 16.15C30.9827 16.54 30.7327 16.97 30.4927 17.43C27.9027 22.48 30.5527 29.97 35.1427 34.42C31.1427 34.19 25.2027 31.85 22.2027 26.77C19.8427 22.77 19.0826 19.78 18.2726 19.72C19.0526 27.62 22.0527 31.6 25.3327 33.39C26.8027 34.2 28.7627 34.81 30.7227 35.24C37.7327 36.11 46.1327 35.65 53.3627 34.44C52.2527 33.96 50.2827 33.58 46.7927 33.64Z" fill="#E26A1A"/>
<path d="M64.9727 17.33C64.9227 17.33 64.8827 17.32 64.8327 17.3C64.6627 17.23 64.5927 17.03 64.6627 16.86C64.6727 16.84 64.9127 16.29 65.4627 15.85C65.6027 15.74 65.8127 15.76 65.9327 15.9C66.0427 16.05 66.0227 16.26 65.8727 16.38C65.4627 16.7 65.2827 17.12 65.2727 17.13C65.2227 17.25 65.1027 17.33 64.9727 17.33Z" fill="#4B775E"/>
</svg>
