<svg width="126" height="83" viewBox="0 0 126 83" fill="none" xmlns="http://www.w3.org/2000/svg">
<path fill-rule="evenodd" clip-rule="evenodd" d="M106.8 2.55502C108.79 2.96502 110.93 3.69502 113.43 4.77502C118.12 6.99502 120.18 7.585 123.09 7.725C123.74 7.755 124.44 7.76501 125.22 7.76501C125.63 8.39501 125.9 8.98501 125.95 9.54501C126.03 10.475 125.5 11.295 123.98 11.935C122.38 12.615 116.78 14.425 111.13 17.745C110.98 17.835 110.82 17.925 110.67 18.015C110.66 18.015 110.66 18.025 110.65 18.025C107.94 19.655 105.25 21.635 103 24.005C97.42 29.865 92.56 35.555 88.9 40.845C88.91 40.835 88.92 40.835 88.92 40.835C86.56 49.085 83.19 62.475 85.46 73.155C87.65 75.125 88.9 77.915 88.9 77.915H80.56C81.35 78.685 82.06 79.675 82.61 80.545C82.61 80.545 82.61 80.545 82.62 80.545C83.44 81.675 83.78 82.615 83.78 82.615H83.77H68.5H68.48C68.48 82.615 68.42 82.325 68.31 81.825L63.42 61.495C58.13 61.885 49.83 62.495 41.27 62.545L38.5 74.165C38.5 74.165 42.09 76.635 42.82 78.405C31.27 78.975 27.02 78.985 26.08 75.035C25.24 71.475 25.92 63.395 26.06 61.885C25.35 61.805 24.64 61.715 23.95 61.615C21.61 68.775 21.69 77.425 21.69 77.425C21.69 77.425 22.92 78.395 23.99 79.615C24.03 79.615 24.05 79.615 24.06 79.615C24.6 80.255 25.1 80.965 25.34 81.625C25.34 81.625 25.33 81.625 25.32 81.625C25.33 81.645 25.34 81.665 25.34 81.685C19.64 81.755 15.03 81.355 12.11 80.925C9.17998 80.485 7.57 78.635 7.35 73.665V73.655C7.19 69.915 6.73998 63.025 6.73998 57.365C6.73998 55.475 6.79001 53.725 6.92001 52.265C6.92001 52.265 4.35999 57.625 1.24999 56.785C-0.250005 56.235 3.26001 44.895 5.45001 40.315C6.01001 39.155 6.87001 37.495 8.20001 35.625C12.12 30.075 20.09 22.635 36.12 20.665C57.56 18.035 71.21 18.125 86.42 8.96499C86.48 8.93499 86.53 8.905 86.58 8.875C85.81 8.185 85.22 7.25501 85.01 6.01501C87.79 5.31501 90.31 5.42499 92.14 5.71499C94.3 4.56499 96.21 3.70502 97.98 3.11502C97.98 3.11502 97 2.28502 96.56 0.305018C101.31 -0.494982 106.8 2.55502 106.8 2.55502Z" fill="#2B2A29"/>
</svg>
